<svg id="Layer_29" data-name="Layer 29" xmlns="http://www.w3.org/2000/svg" viewBox="0 0 616.96 703.24"><defs><style>.cls-1{fill:#050406;}.cls-2{fill:#3d3b3f;}.cls-3{fill:#403e43;}</style></defs><path class="cls-1" d="M946.24,882.12c12.8-19.3,20.62-40.49,24.76-63.22,3.52-19.26,3.77-38.64,2.5-58a347.84,347.84,0,0,0-10.35-64.09c-6.72-26.11-16.67-50.87-30.92-73.84-11-17.77-21.82-35.7-33.06-53.34-30.28-47.53-53.78-98.22-71.71-151.61-9.56-28.45-18-57.24-26.25-86.08a153.57,153.57,0,0,0-6.78-18.74,70.36,70.36,0,0,0-19.5-25.68c-5.19-4.41-11.41-6.93-17.91-8.43a88.86,88.86,0,0,0-42.39.47c-5.72,1.45-11.28,3.43-16,7.16-1.49,1.17-3,1.66-4.67.4-9-6.82-19.64-8.83-30.49-9.92a83.84,83.84,0,0,0-30,2.28c-15.84,4.22-26,15.29-33.49,29.05-6,10.91-9.26,22.88-12.51,34.78C577.34,380.31,566,417,552,452.71c-16,40.78-35.23,80-59.1,116.81-12.1,18.68-23.59,37.73-35.08,56.79-16.19,26.85-26.26,56-32.61,86.5-4.78,23-7.68,46.21-7.46,69.67.35,35.22,7.74,68.67,27.38,98.62l-2.82.18c-8.7-7.22-14.7-16.88-22.52-24.91-3-3.13-4.53-7.44-6.56-11.31C402.67,825,396.7,803.48,393.13,781.2A417.07,417.07,0,0,1,387.56,717a473.63,473.63,0,0,1,14.26-116.93C416.57,540.86,437.63,484,466.22,430c30-56.65,60.86-112.78,97-165.82,6.21-9.12,12.2-18.41,19.15-27C598,217.9,617.69,205.11,642,199.67a44.1,44.1,0,0,1,22.55.92c8.74,2.59,17.48,5.19,26.08,8.21a15.63,15.63,0,0,0,11-.13c8.44-2.88,17-5.39,25.55-8,9.18-2.8,18.29-2.48,27.53.09a104.06,104.06,0,0,1,55.45,37.11c14.06,18,26.24,37.36,38.46,56.64a1607,1607,0,0,1,92.71,166.9,694.64,694.64,0,0,1,55,166.77,453.78,453.78,0,0,1,7.55,64.54,377.64,377.64,0,0,1-.5,50.8c-2.54,29.79-6.31,59.37-18,87.29-2.79,6.67-6,13.13-9.32,19.54a18.4,18.4,0,0,1-2.63,4.39C966.68,862,961.22,870.28,954,877c-2.21,2.06-4.2,4.36-6.29,6.55Z" transform="translate(-387.55 -198.62)"/><path class="cls-2" d="M442.29,881.28l2.82-.18c1,1.14,2,2.23,2.93,3.43a37.76,37.76,0,0,0,19.06,13.79c1.66.52,3.84.55,4.31,2.9-1.11,1.09-2.16.53-3.24.21a40.48,40.48,0,0,1-21.7-14.83C445.12,884.78,443.15,883.46,442.29,881.28Z" transform="translate(-387.55 -198.62)"/><path class="cls-3" d="M946.24,882.12l1.42,1.47c-6.39,9.87-15.09,16.2-27,17.56,4-3.62,9.64-4.3,14-7.45C939.17,890.43,942.45,886,946.24,882.12Z" transform="translate(-387.55 -198.62)"/></svg>