<svg id="Layer_28" data-name="Layer 28" xmlns="http://www.w3.org/2000/svg" viewBox="0 0 585.59 609.03"><defs><style>.cls-1{fill:#050506;}</style></defs><path class="cls-1" d="M899.36,508.52Q901.66,523.45,917,526c-.24.33-.47.67-.7,1-5.35,0-10.7.09-16,0a69.79,69.79,0,0,1-57.66-34.47c-8.48-14.8-13.69-30.88-18.29-47.17-5.59-19.8-8.95-40-11.79-60.38-2.89-20.71-5.45-41.48-10.07-61.9-4.2-18.54-14.63-33.2-28.45-45.8-2.54-2.31-5.46-2.62-8.48-2.41-21.16,1.45-39.57,8.89-53.85,25.1a101.66,101.66,0,0,0-7.55,9.31c-3.2,4.64-7,9.13-6.83,15.29a1.05,1.05,0,0,1-1,1.12c-.88.12-1.48-.31-1.45-1.24.11-5.09-2.75-9-5.35-12.91-14.72-22.19-35.15-34.76-61.93-36.64a14.21,14.21,0,0,0-11.29,4c-18.09,16.23-26.67,36.93-30,60.5-3.52,25-7.18,50.07-11.46,75A291.29,291.29,0,0,1,555.35,481c-6.92,16-17,29.13-32.65,37.6a64.63,64.63,0,0,1-28.77,8.27c-6,.22-12,0-18.27,0,1-1.48,2.52-1.79,4.12-2.24,8.07-2.3,11.52-8.39,12.9-16.32-5.61,5.06-13.18,6.74-18.81,11.41-13.93,11.56-23.07,25.76-22.4,44.67.27,7.92,3,15.24,6.36,22.33,3.25,6.89,7.3,13.34,11.17,19.89,4.06,6.87,8.26,13.68,11.51,21,9.62,21.63,6.37,41.52-8.42,59.68-5.32,6.54-11.94,11.73-18.57,16.88-9.35,7.26-18.22,15-25.21,24.7a57.24,57.24,0,0,0-5.93,9.73c-3.4,7.44-2.67,14.41,2.56,20.78,2.42,3,5,5.76,7.38,8.73,6.44,8.06,10.64,17.11,11.4,27.49.94,12.86-4,20.14-17.3,24.91a21.28,21.28,0,0,1,4.58-6.62c9.59-9.58,8.2-22.09,2.28-30.8A127,127,0,0,0,422,768.69c-2.31-2.53-4.57-5.13-7.06-7.48-10.58-9.91-12.38-22.16-9.74-35.67,2.41-12.28,8.35-22.76,16.4-32.15a134.34,134.34,0,0,0,13.9-18.79c9.37-15.91,7.51-31.61-.76-47.18a59.48,59.48,0,0,0-4.45-6.63A223,223,0,0,1,415,595.41a92.5,92.5,0,0,1-10.14-31.87c-3.08-24.25-2-48.28,4.32-71.92,4.56-17,12.67-32.14,25.81-44.25,5.18-4.77,10.19-9.75,15.52-14.36a173.67,173.67,0,0,0,35-41.89C496,373.87,505,355.8,514.21,337.91c13-25.14,26.87-49.87,38.46-75.74,9.39-21,25.86-33.79,47-41.43a147.31,147.31,0,0,1,58.81-9.05c11.82.66,23.4,3,34.16,8.25a7.17,7.17,0,0,0,6.86,0c17.08-7.73,35.08-9.52,53.57-7.85a154.28,154.28,0,0,1,46.77,11.82c18.06,7.67,31.07,20.24,39.27,37.91,16.5,35.54,35.65,69.72,53.53,104.55,8.61,16.77,18,33.08,30.08,47.7,7.68,9.3,16.86,17.05,25.66,25.2,2.37,2.2,4.69,4.46,7.09,6.63,16,14.48,24.94,32.73,29.26,53.63,5.06,24.54,5.56,49.08.65,73.68C982.84,585.9,976.42,597,970,608c-3.43,5.91-7.58,11.4-11.32,17.13a49.68,49.68,0,0,0-7.78,35.35,36.25,36.25,0,0,0,4.25,11.73c4,7.63,9.3,14.35,14.91,20.85,8.33,9.67,14.39,20.47,16.83,33.18,2.56,13.42.33,25.32-9.91,35.09a140.48,140.48,0,0,0-17.36,20.43,27.41,27.41,0,0,0-5.41,14.19,22,22,0,0,0,6.09,17.21c1.9,2,3.86,4,4.88,6.87-11-2.76-17.92-11.65-17.21-22.32a51.23,51.23,0,0,1,11.47-29.27c2.39-3,5-5.78,7.38-8.72,5.37-6.5,6.42-13.53,2.72-21.24-3.18-6.6-7.65-12.25-12.49-17.65-5.62-6.26-12.11-11.57-18.72-16.73a162.78,162.78,0,0,1-15.5-13.49c-16.4-16.51-22.22-41.68-10.61-64.72,4.8-9.52,10.48-18.53,15.82-27.74,5.16-8.9,9.92-17.94,11.8-28.26,1.08-5.92,1.31-11.76-.29-17.53-4.41-15.87-13-28.65-27.89-36.51A137.23,137.23,0,0,1,899.36,508.52Z" transform="translate(-403.21 -211.47)"/></svg>