<svg id="Layer_30" data-name="Layer 30" xmlns="http://www.w3.org/2000/svg" viewBox="0 0 575.11 644.75"><defs><style>.cls-1{fill:#050406;}.cls-2{fill:#514f54;}.cls-3{fill:#c3c1c4;}.cls-4{fill:#a9a7ab;}.cls-5{fill:#aba8ad;}.cls-6{fill:#4c4a4f;}.cls-7{fill:#89868b;}.cls-8{fill:#a3a0a4;}.cls-9{fill:#a6a3a7;}.cls-10{fill:#a7a5a9;}.cls-11{fill:#6c696f;}</style></defs><path class="cls-1" d="M912.1,833.22c13.17-13.26,19.54-30.14,24.9-47.43,5.75-18.56,8.84-37.65,10.74-57,2.56-26,2.29-52.07.64-78.11-1.28-20.3-3.55-40.52-6.16-60.7-2.42-18.65-4.73-37.32-7.25-56a372.63,372.63,0,0,0-8-42.53c.42-2.42-1.22-4.43-1.3-6.75a5.73,5.73,0,0,0-1.62-3.92c-.86,1.47-.89,2.74.56,3.79a21.42,21.42,0,0,0,1.18,9.22c.32,4.88.65,9.75,1,14.58-2.23.71-2.32-1.12-2.85-2.15a182.51,182.51,0,0,0-22.14-33.16c-5.25-6.3-10.82-12.34-18-16.55-2.25-1.33-2.86-3.42-3.66-5.52-6.64-17.47-17.28-32.5-28.69-47.06-.07-.08-.3,0-.76-.08-.86,15.32,1.65,30.93-3.15,45.91-2.34.22-3-1.48-4.3-2.14-4.58-2.36-5.74-5.56-4.77-11.09,2.66-15.27,1.91-30.71.12-46.09a18.3,18.3,0,0,0-4.09-9.18c-12-15.74-23.1-32.12-32.21-49.75-.19-1.31-.51-2.55-1.92-3.18-1,2,.12,3.65,1,5.31,8.26,29,10,58.75,8.91,88.72-.28,7.64-2.5,14.93-5.56,22a5.21,5.21,0,0,1-5.25,3.49c-4.6.11-9-1.18-13.54-1.72-2.37-.28-1.84-2-1.56-3.46a110.83,110.83,0,0,0,2.18-20.95c0-26.86-5-52.87-13.15-78.36A201.31,201.31,0,0,0,750.88,295c-.44-1.76-1.48-3-3.87-4.88,1.24,3.09,1.38,5.29,2.85,7,5.4,15.91,8,32.41,10.19,49,1.8,13.83,1.81,27.71,1.51,41.61-.34,15.23-.16,30.47-1.2,45.67-.24,3.42-.3,6.84-1.35,10.15-1.54,4.88-3.49,6.71-8.64,6.58a208.18,208.18,0,0,1-21.63-1.45,245.3,245.3,0,0,0-65.41,0,202.77,202.77,0,0,1-21.06,1.46c-5.9.18-7.76-1.42-9.33-7.1s-1.57-11.68-1.77-17.55c-.51-14.65-.93-29.31-1-44-.2-29.08,3.48-57.63,12.32-85.42a7.91,7.91,0,0,0,1.85-5.6c-1.68,1.39-2.74,2.64-3.09,4.38-14.91,22.72-23.74,47.94-29.58,74.21-4,18.2-6.83,36.64-6,55.43a108.55,108.55,0,0,0,2.13,18.09c.52,2.45-.09,3.58-2.58,3.75-4.35.3-8.56,1.79-13,1.48a5,5,0,0,1-4.75-3.32c-3.13-7.22-5.34-14.65-5.62-22.54-1-28.63.58-57,7.9-84.89a21.81,21.81,0,0,0,2.09-8.54,9.24,9.24,0,0,0-3.12,5.23,364.73,364.73,0,0,1-31.91,48.55,16.15,16.15,0,0,0-3.33,8.29c-1.83,16.5-2.53,33,.69,49.43.42,2.15,0,3.64-1.74,4.91-2.31,1.65-4.53,3.41-7.06,5.33-2.9-4.23-3.18-9-3.4-13.63-.53-10.81-.68-21.64-.25-32.53-1.93-.35-2.26,1.28-3,2.18-11.06,14.34-21.21,29.23-27.51,46.39a6.27,6.27,0,0,1-2.59,3.58c-9.9,6.12-17.16,14.92-24.07,24a182.78,182.78,0,0,0-16.49,26c-.46.88-.41,2.41-2.76,2.26.39-6.05.77-12.13,1.16-18.2,2-2.32.5-5.2,1.41-7.7-2,2.26-2.24,5-2.61,7.75-4.87,19.18-7.71,38.72-10.3,58.3-2.27,17.13-4.6,34.26-6.5,51.44-2.15,19.45-4.35,38.9-5.24,58.49-.68,14.83-1.17,29.66-.59,44.49.73,18.8,2.32,37.49,6,56A258.24,258.24,0,0,0,459,797.55c4.7,13,10.75,25.13,20.34,35.25l-1,1.37a34.71,34.71,0,0,1-9.46-9c-13.58-17.94-22.75-38.13-29.88-59.31-8.22-24.38-13.4-49.47-17.36-74.86-3.05-19.56-4.41-39.3-6.83-58.93-1.86-15.11-3.22-30.26-4.51-45.42-1.08-12.72-1.48-25.48-1.82-38.22-.59-21.54,1-43,3.81-64.33,5.82-44.79,20.16-86.84,40.32-127,13.15-26.21,30.93-49.25,49.82-71.48,18.47-21.73,39.12-41.06,63.19-56.54,25-16.08,52.38-25.78,81.68-30.31,15.47-2.38,31-3.65,46.64-2.14a31.56,31.56,0,0,0,4.56,0c55.48-2.85,105.61,12,148.49,47.53,52.17,43.27,90.5,96.62,113.19,160.89A399.19,399.19,0,0,1,981,494.16c3.25,29.26,3,58.52,1,87.81-1.21,17.65-2.68,35.27-5.3,52.79-1.5,10-1.74,20.09-2.89,30.11-4.66,40.51-11.79,80.47-27.31,118.48a188.85,188.85,0,0,1-21.86,39.92c-3.15,4.33-6.65,8.31-11.25,11.18Z" transform="translate(-408.36 -195.97)"/><path class="cls-2" d="M485.82,839.6c-2.49-1.52-5.28-2.63-7.09-5.1l1.3-1.21a40.66,40.66,0,0,1,6.62,5.52Z" transform="translate(-408.36 -195.97)"/><path class="cls-3" d="M588.7,333.79a9.24,9.24,0,0,1,3.12-5.23,21.81,21.81,0,0,1-2.09,8.54C589.16,336.07,590.21,334.53,588.7,333.79Z" transform="translate(-408.36 -195.97)"/><path class="cls-4" d="M465.29,490.41c.37-2.73.62-5.49,2.61-7.75-.91,2.5.61,5.38-1.41,7.7Z" transform="translate(-408.36 -195.97)"/><path class="cls-5" d="M925.77,493.85a21.42,21.42,0,0,1-1.18-9.22,3.8,3.8,0,0,0,1.06.13c.08,2.32,1.72,4.33,1.3,6.75C925.74,491.87,926.32,493.15,925.77,493.85Z" transform="translate(-408.36 -195.97)"/><path class="cls-6" d="M912.1,833.22l1.26,1.23c-1.05,1.76-2.9,2.48-4.52,3.5l-2.11-.29A27.53,27.53,0,0,1,912.1,833.22Z" transform="translate(-408.36 -195.97)"/><path class="cls-7" d="M906.73,837.66l2.11.29a6.78,6.78,0,0,1-5.43,2.49C904.37,839.33,905.11,838,906.73,837.66Z" transform="translate(-408.36 -195.97)"/><path class="cls-8" d="M641.21,294.89c.35-1.74,1.41-3,3.09-4.38a7.91,7.91,0,0,1-1.85,5.6C642.13,295.6,642,294.9,641.21,294.89Z" transform="translate(-408.36 -195.97)"/><path class="cls-9" d="M749.86,297.13c-1.47-1.75-1.61-3.95-2.85-7,2.39,1.85,3.43,3.12,3.87,4.88C749.73,295.31,750.26,296.43,749.86,297.13Z" transform="translate(-408.36 -195.97)"/><path class="cls-5" d="M801.3,333.7c-.84-1.66-1.93-3.27-1-5.31,1.41.63,1.73,1.87,1.92,3.18C801.29,332,801.71,333,801.3,333.7Z" transform="translate(-408.36 -195.97)"/><path class="cls-10" d="M488,840.13a1.61,1.61,0,0,1-2.22-.53l.83-.79c.87,0,1.46.29,1.42,1.29Z" transform="translate(-408.36 -195.97)"/><path class="cls-1" d="M480,833.29l-1.3,1.21-.39-.33,1-1.37A.58.58,0,0,1,480,833.29Z" transform="translate(-408.36 -195.97)"/><path class="cls-10" d="M488.07,840.1a1.64,1.64,0,0,1,.48.23.49.49,0,0,1,0,.35c-.39.12-.58-.07-.54-.55Z" transform="translate(-408.36 -195.97)"/><path class="cls-11" d="M925.65,484.76a3.8,3.8,0,0,1-1.06-.13c-1.45-1.05-1.42-2.32-.56-3.79A5.73,5.73,0,0,1,925.65,484.76Z" transform="translate(-408.36 -195.97)"/></svg>