<svg id="Layer_31" data-name="Layer 31" xmlns="http://www.w3.org/2000/svg" viewBox="0 0 641.14 659.75"><defs><style>.cls-1{fill:#3c3a3f;}.cls-2{fill:#3f3d41;}.cls-3{fill:#040405;}.cls-4{fill:#959297;}.cls-5{fill:#b2b0b4;}.cls-6{fill:#9f9ca1;}.cls-7{fill:#fff;}</style></defs><path class="cls-1" d="M887.65,845.41c-1.12.45-2.48.47-3.1,1.78-1.48-1.17-3-2.29-4.44-3.5-4.46-3.77-6.31-8.6-4.46-13.06a13.76,13.76,0,0,1,11.68-8.77c6.52-.75,11.38,2.27,13,7.68a7.79,7.79,0,0,1-.85,6.54c-.66,1.09-1.59,2.79-2.86,2.2-2-.94-.07-2.08.42-3.13,2.15-4.54.29-8.7-4.54-10.26a12,12,0,0,0-13.53,4.7,8.66,8.66,0,0,0,.81,10.51A20,20,0,0,0,887.65,845.41Z" transform="translate(-375.4 -188.72)"/><path class="cls-2" d="M507.26,844.42a52.33,52.33,0,0,0,4.34-3.62c4.13-4.19,3.85-9.63-.61-13.45a11.68,11.68,0,0,0-9.5-2.93c-6.36.87-8.84,5.69-5.88,11.43a2.5,2.5,0,0,1,.07,2.72c-2.7-.91-3.82-3-4.17-5.58a9.84,9.84,0,0,1,5.9-10.1c6.63-3,15.33.1,18.49,6.69,2,4.18,1.29,8.15-1.55,11.72a18.08,18.08,0,0,1-5.67,4.64l-1-1Z" transform="translate(-375.4 -188.72)"/><path class="cls-3" d="M508.43,846.26c-1.34,2.1-3.53,1.83-5.54,2-.93.07-2,0-2.05-1.24s1.06-1.3,2-1.43c.56-.08,1.12-.14,1.67-.2Z" transform="translate(-375.4 -188.72)"/><path class="cls-2" d="M508.43,846.26l-3.95-.89c.77-.79,1.81-.77,2.78-1l.46.51.7,1.34Z" transform="translate(-375.4 -188.72)"/><path class="cls-3" d="M508.42,846.27l-.7-1.34,1,1Z" transform="translate(-375.4 -188.72)"/><path class="cls-3" d="M887.65,845.41c9.43,1.33,17.36-2.18,23.83-8.53,14.11-13.88,18.79-30.9,14.94-50.17-2.39-12-7-23.24-12.48-34.16A202.64,202.64,0,0,1,896.67,705c-2.83-13-1.74-24.9,5.73-36a6.53,6.53,0,0,0,1.32-4.75c-2.45-19.53,1.1-37.77,11.31-54.76a210.51,210.51,0,0,0,16.81-34.88,109.59,109.59,0,0,0,6.58-47.09c-.34-4.49-1.58-8.44-4.79-11.85-9.28-9.84-18.34-19.87-27.54-29.78A107.21,107.21,0,0,1,878.8,431c-.24-1.29-.7-2.55-1.26-4.55-5,12.79-13.12,21.64-25.66,26.33-.92-2.64.92-2.76,1.81-3.53C859.2,444.4,858,437.41,851,435a67.57,67.57,0,0,0-6.64-1.6c-1.75-.42-2.78.31-3.73,1.78-4.44,6.85-11,10.33-18.92,11.35l.08-1.86a13.5,13.5,0,0,0,6.59-6.08c1.76-3.35,1-5-2.58-6.6-1.05-.46-2.16-.77-3.16-1.31a11.06,11.06,0,0,1-4.3-16c1.41-2.25,3.18-4.27,4.78-6.4,2.17-2.89,4.36-5.76,6.5-8.68,4.54-6.19,4.51-12.6,1.13-19.32-4.92-9.79-12.63-16.54-22.41-21.11-4.3-2-8.68-3.86-12.93-6-8.72-4.31-17.26-8.9-23.67-17.77-.31,4.6,1.66,7.25,3.86,9.7a37,37,0,0,0,9.58,7.13c5.12,2.91,10.28,5.76,15.4,8.67A37.11,37.11,0,0,1,813,413.43c-4.2,6.42-9.33,12-14.4,17.66-1.2,1.34-2.78,2.58-5,2.28-.89-2.17,1.09-2.62,2.14-3.32a6.7,6.7,0,0,0,3-7.42c-.55-3-1.3-5.93-2-8.89.35-2-.62-3.53-1.89-5a5.21,5.21,0,0,0-.4,4C792.67,424.58,787,434.1,777,440.89c-8.21,5.55-16.46,11-26.74,12-.73.07-1.47,0-2.74,0,1.48-4.12,4.67-7.06,5.42-11.12s1.78-8.19,1.3-13.09c-6.6,6.17-10.61,15-20.48,16.86,5.41-4.37,3.27-8.84.45-13.12-2.3-3.49-4.87-6.81-7.42-10.12-6.75-8.76-7.86-18.32-4-28.52,1.82-4.79,4-9.45,5.86-14.22a52.65,52.65,0,0,0,3.16-11.5c1.29-8.58-1.42-15.62-7.32-21.52-.74,0-1,.23-1,.62,1.48,7-1.1,12.71-5.86,17.61-2.78,2.87-5.77,5.53-8.63,8.31A85.25,85.25,0,0,0,702.2,380c-5.15,6.3-5.63,13.07-1.42,20.08,2.15,3.58,4.73,6.9,7.11,10.34a51.22,51.22,0,0,1,7.93,16.3,29.28,29.28,0,0,1-.7,16.85c-1.9,5.85-6.31,8.26-12.72,8-6.08-.29-12.19-.23-18.28-.1-10.52.23-20.22-3-29.75-6.88a21,21,0,0,1-8.07-6.21c-2.54-3.06-5.12-6.09-7.69-9.14-1.84,6.38-.35,12.39,6,23.7-11.22.16-19.64-5.5-28.17-11a40.36,40.36,0,0,1-18.93-29.17,5.46,5.46,0,0,0-.18-3.87,3.77,3.77,0,0,0-1.79,3.8c-.44,1.65-.85,3.31-1.33,4.95-1.69,5.69-2,10.93,4.28,14.24.22.12.2.69.39,1.44-3.32.29-5.08-1.78-7-3.83-7.25-7.74-14-15.83-18.14-25.88-1.57,9,.64,17.5,3.71,26.56a23,23,0,0,1-9.21-10.68,37.3,37.3,0,0,1-3.58-16c.37-20,5.74-38.25,19.34-53.47,2.79-3.12,5.74-6.08,7.57-9.92.26-.39.74-.87.24-1.25s-.86.05-1,.6c-9.9,4.43-19.47,9.43-27.65,16.7a49.13,49.13,0,0,0-8.47,10c-6.81,10.42-8.08,21.1-1.75,32.25,2.25,4,4.34,8,6.39,12.1a38.49,38.49,0,0,1,2.87,6.8c1.88,6.79-.86,12.19-7.53,14.48-3.39,1.16-7,1.6-10.54,2.43a21.78,21.78,0,0,0-4.89,1.47,7.75,7.75,0,0,0-2.17,12.5,30,30,0,0,0,3.14,2.41,1,1,0,0,1,.09,1.5,1.1,1.1,0,0,1-1,.36,28.24,28.24,0,0,1-4.18-1.72c-9.46-5.27-16.46-12.72-20.11-23.13-1.59.27-1.53,1.49-1.7,2.48a108.67,108.67,0,0,1-28.71,57.27c-8.75,9.28-17.51,18.57-25.95,28.14-13.25,15-20.05,33.09-22.77,52.64-1.71,12.3,1.07,24.21,5.85,35.63,6.87,16.4,17.52,30.21,29.42,43.18,5.15,5.61,10.41,11.13,15,17.23,5.08,6.76,9,14,10.42,22.55,1,5.81-.12,11.39-1.13,17-3.06,17-9.49,32.79-17,48.2-6.17,12.59-2.32,30.56,8.35,39.59,4.32,3.66,9.43,4.67,14.87,4.86.63,0,1.52-.59,2,.76-3.74,2.38-7.68,2.25-11.76,1.16-8.68-2.33-15-8-20.52-14.71-1.19-1.44-2.23-3-3.43-4.63-8.93,21.86-.66,45.78,12,57.65a36.86,36.86,0,0,0,16.93,9c1,.24,2.51.09,2.14,1.85-.27,1.29-1.47.92-2.32,1-17.09,1-30.49-4.73-40.38-19.49-14.33-21.38-16-44.22-10.11-68.32,2.71-11.1,6.39-21.84,12.88-31.48a70.39,70.39,0,0,0,7.37-15.4,29.72,29.72,0,0,0,.4-19.57A58.22,58.22,0,0,0,453,670.8a113,113,0,0,0-22.86-17.93c-3.57-2.17-7.19-4.29-10.93-6.15-15-7.42-25.91-19.07-35-32.75-10-14.94-11.12-30.78-5.18-47.39,3.35-9.37,8.32-17.91,13.8-26.17,2.74-4.12,5.63-8.14,8.33-12.28,11.7-18,16.95-37.5,15.26-59a110.73,110.73,0,0,0-9.51-37.92,50.89,50.89,0,0,1-4.9-16.88,21.57,21.57,0,0,1,6.73-18.05,86.39,86.39,0,0,1,19.81-14.37c6-3.27,12.19-6.2,18.28-9.32a43.81,43.81,0,0,0,17-14.84c2.62-3.94,3.68-8.34,4.7-12.71,3-13,6.67-25.77,10.78-38.4,6.56-20.23,18-37.83,32.38-53.21C543.6,219.29,583,199,629.15,191.8a251.64,251.64,0,0,1,40.38-3.07c8.4,0,16.78.41,24.45,4.45a4.15,4.15,0,0,0,4.3-.11c6-3.4,12.71-4.09,19.33-4.24,44-1,85.38,8.14,123,31.66,28.74,17.94,51.22,41.72,66.61,72,5,9.91,7.42,20.72,10.56,31.26,2.5,8.37,4.64,16.85,6.8,25.32,2.29,9,7.9,15.39,15.43,20.38,4.77,3.16,10,5.52,15.09,8a127.9,127.9,0,0,1,25.05,15.75c9.43,7.69,12,17.19,8.44,28.55-1.27,4-3,7.81-4.51,11.68-13.39,33.4-12.69,65.65,7.86,96.26,5.93,8.85,12.11,17.53,16.85,27.12,4.33,8.77,7.37,17.84,7.68,27.79a45.26,45.26,0,0,1-6.23,25.11c-9,15.15-20.24,28-36.24,36.23a147.93,147.93,0,0,0-26.85,17.23c-10,8.26-18.08,17.9-22,30.58a29.9,29.9,0,0,0,.43,20.1,84.94,84.94,0,0,0,8,16.38c7.85,12.05,11.6,25.54,14,39.46,2.1,12.11,2.31,24.27-1.16,36.21a79.42,79.42,0,0,1-16.7,30.21A33.16,33.16,0,0,1,907,847.89a133,133,0,0,1-20.55.24c-.79,0-1.49-.15-1.88-.94C885.17,845.88,886.53,845.86,887.65,845.41ZM914.4,653.79c8.29-8.86,15.55-16.83,21.89-25.61,6.94-9.61,12.74-19.83,16.4-31.14s5.09-22.65,2.39-35a16.74,16.74,0,0,0-1.5,2.47c-3.05,8.72-7.94,16.37-13.49,23.67a130.83,130.83,0,0,0-23.7,52.56C915.56,644.61,914.3,648.42,914.4,653.79Z" transform="translate(-375.4 -188.72)"/><path class="cls-4" d="M821.82,444.63l-.08,1.86c-1.91,1.08-3.74.47-6.57-.22C817.91,445.16,819.76,444.51,821.82,444.63Z" transform="translate(-375.4 -188.72)"/><path class="cls-5" d="M595.59,412.67a3.77,3.77,0,0,1,1.79-3.8,5.46,5.46,0,0,1,.18,3.87Z" transform="translate(-375.4 -188.72)"/><path class="cls-6" d="M794.43,412.67a5.21,5.21,0,0,1,.4-4c1.27,1.51,2.24,3,1.89,5C796.07,413.14,795.51,412.35,794.43,412.67Z" transform="translate(-375.4 -188.72)"/><path class="cls-7" d="M590.88,339.42c.12-.55.47-1,1-.6s0,.86-.24,1.25A5.07,5.07,0,0,1,590.88,339.42Z" transform="translate(-375.4 -188.72)"/></svg>