<svg id="Layer_10" data-name="Layer 10" xmlns="http://www.w3.org/2000/svg" viewBox="0 0 151.03 14.74"><defs><style>.cls-1{fill:#3e3c41;}.cls-2{fill:#232226;}.cls-3{fill:#0d0e11;}.cls-4{fill:#524f55;}</style></defs><path class="cls-1" d="M637.77,770.65a75.6,75.6,0,0,1,38.09,3.11c14,4.87,28.37,4.14,42.48-.47,3.58-1.17,7-2.89,10.91-2.82,0,.64,0,1.27,0,1.91-3.61,1.15-7.2,2.38-10.83,3.45-14.74,4.33-29.68,4.8-44.26,0-10.16-3.33-20.18-5-30.75-3.4a44.72,44.72,0,0,1-5.68.13Z" transform="translate(-620.5 -764.52)"/><path class="cls-2" d="M753.28,770.57c1.32,0,2.65-.06,4,0,2.39.09,4.37-.4,5.84-2.63a7,7,0,0,1,5.07-3.3c1.16-.14,2.32-.1,3,1a2.56,2.56,0,0,1-.38,3.14c-1.79,2.07-4,3.62-6.75,3.74-3.57.15-7.16.82-10.74,0Z" transform="translate(-620.5 -764.52)"/><path class="cls-2" d="M637.77,770.65v2c-3.43.71-6.85,0-10.27-.18a1.6,1.6,0,0,0-1.68-.63,7.57,7.57,0,0,1-4.3-2.58,2.83,2.83,0,0,1-.6-3.63c.83-1.4,2.29-1.1,3.59-.84a4.9,4.9,0,0,1,3.33,2C630.13,770.89,634,770.65,637.77,770.65Z" transform="translate(-620.5 -764.52)"/><path class="cls-3" d="M729.29,772.38c0-.64,0-1.27,0-1.91,2.63-.45,5.21-1.25,7.92-.88,0,.64.05,1.29.07,1.93Z" transform="translate(-620.5 -764.52)"/><path class="cls-1" d="M737.24,771.52c0-.64,0-1.29-.07-1.93a8.63,8.63,0,0,1,4.78,0c-.05.64-.09,1.28-.14,1.92A8,8,0,0,1,737.24,771.52Z" transform="translate(-620.5 -764.52)"/><path class="cls-3" d="M741.81,771.53c.05-.64.09-1.28.14-1.92l9,.83-.06,2Z" transform="translate(-620.5 -764.52)"/><path class="cls-4" d="M750.88,772.42l.06-2,2.34.13v2Z" transform="translate(-620.5 -764.52)"/><path class="cls-1" d="M625.82,771.79a1.6,1.6,0,0,1,1.68.63A1.34,1.34,0,0,1,625.82,771.79Z" transform="translate(-620.5 -764.52)"/></svg>