<svg id="Layer_12" data-name="Layer 12" xmlns="http://www.w3.org/2000/svg" viewBox="0 0 112.92 7.69"><defs><style>.cls-1{fill:#1f1f23;}.cls-2{fill:#3f3e43;}.cls-3{fill:#68666b;}.cls-4{fill:#646267;}</style></defs><path class="cls-1" d="M698.34,776.94a10.79,10.79,0,0,1-4.56,0c-.79-1-1.55-1-2.29,0L679,773.54c-.33-.65-.72-1-1.28-.2a100.9,100.9,0,0,0-31.46,4.72c-1.73.57-3.76.24-5.64.24-.77,0-1.67-.27-1.53-1.22a2.58,2.58,0,0,1,1.16-1.79,7.78,7.78,0,0,1,3.32-.45c7.23.62,13.94-2.22,20.94-3,6.69-.71,13.43-2.07,20.13.64,7.43,3,15,2.13,22.43-.27a31.78,31.78,0,0,1,15.7-.76c5.68,1,11.5,1.27,17.07,3.06,1.91.61,4.12.3,6.19.39a21.64,21.64,0,0,1,4,.14c1,.23,2.2.93,2,2.29s-1.43.86-2.29,1c-3.64.63-7.16-.64-10.52-1.39-8.56-1.9-17.06-3.76-25.88-3.48-.47-.55-.87-.37-1.25.12-4.32.58-8.4,2.06-12.52,3.38C699.14,776.4,698.76,776.31,698.34,776.94Z" transform="translate(-639.06 -770.85)"/><path class="cls-2" d="M691.49,777c.74-1,1.5-1.06,2.29,0Z" transform="translate(-639.06 -770.85)"/><path class="cls-3" d="M677.7,773.34c.56-.78.95-.45,1.28.2Z" transform="translate(-639.06 -770.85)"/><path class="cls-4" d="M712,773.62c.38-.49.78-.67,1.25-.12Z" transform="translate(-639.06 -770.85)"/><path class="cls-2" d="M698.34,776.94c.42-.63.8-.54,1.16.06Z" transform="translate(-639.06 -770.85)"/></svg>