<svg id="Layer_11" data-name="Layer 11" xmlns="http://www.w3.org/2000/svg" viewBox="0 0 153.73 9.53"><defs><style>.cls-1{fill:#2d2c30;}</style></defs><path class="cls-1" d="M663.31,764.63c6.89-.45,15.39,1,23.92,1.56,10.13.65,20.16-.24,30.2-.92a100.18,100.18,0,0,1,10.23-.56c11.77.39,23.57.22,35.26,2.09a21.79,21.79,0,0,1,8,2.69c1,.58,2.11,1.32,1.9,2.6-.29,1.66-1.88,1.61-3.17,1.88a3.88,3.88,0,0,1-2.73-.41c-7.39-4-15.48-5.18-23.65-5.41-13.51-.37-27-.45-40.52.82a71.16,71.16,0,0,1-13.69,0c-12.34-1.18-24.72-1-37.09-.91-9.36.09-18.56,1.16-27,5.57a3,3,0,0,1-1.62.44c-1.45-.21-3.34.11-4-1.58-.76-1.94,1.13-2.61,2.33-3.3,4.77-2.71,10.2-3,15.43-3.49C645.23,765,653.43,765,663.31,764.63Z" transform="translate(-619.16 -764.54)"/></svg>