<svg id="Layer_15" data-name="Layer 15" xmlns="http://www.w3.org/2000/svg" viewBox="0 0 117.69 13.91"><defs><style>.cls-1{fill:#313035;}.cls-2{fill:#2b2a2f;}.cls-3{fill:#3f3d42;}.cls-4{fill:#333237;}.cls-5{fill:#29292e;}.cls-6{fill:#59565c;}</style></defs><path class="cls-1" d="M676.63,774.75c-8.37,0-16.32-2.15-24.26-4.52-4.25-1.27-7.9-4.27-12.61-4.2a4.81,4.81,0,0,1-2.46-1.26,1.93,1.93,0,0,1-.59-1.43c0-.58.52-.91,1.15-1,1.88-.11,3.64-.21,5.38,1.07,6.88,5.09,15,6.59,23.21,8,3.41.61,7,.55,10.18,2.36Z" transform="translate(-636.71 -762.15)"/><path class="cls-2" d="M731.51,770.49c5.82-2.19,12.12-3.21,17.07-7.46,1.5-1.29,3.53-.94,5.33-.35.3.09.55,1,.48,1.45-.38,2.41-2.49,2-4,2.16a17.75,17.75,0,0,0-6.43,1.76,55.39,55.39,0,0,1-12.41,4.34C731.52,771.76,731.52,771.12,731.51,770.49Z" transform="translate(-636.71 -762.15)"/><path class="cls-3" d="M731.51,770.49c0,.63,0,1.27,0,1.9-5.88-.3-11.28,2.78-17.17,2.47a7.5,7.5,0,0,0,0-1.06A69.22,69.22,0,0,1,731.51,770.49Z" transform="translate(-636.71 -762.15)"/><path class="cls-4" d="M676.63,774.75v-.89c4.88-.45,9.75-.88,14.32,1.45A49.78,49.78,0,0,1,676.63,774.75Z" transform="translate(-636.71 -762.15)"/><path class="cls-5" d="M714.35,773.8a7.5,7.5,0,0,1,0,1.06l-10.25.88L703,774C706.77,773.65,710.56,773.24,714.35,773.8Z" transform="translate(-636.71 -762.15)"/><path class="cls-6" d="M703,774l1.11,1.77a9,9,0,0,1-1.59.32c-.9,0-2,0-1.74-1.35S702.09,773.78,703,774Z" transform="translate(-636.71 -762.15)"/></svg>