<svg id="Layer_14" data-name="Layer 14" xmlns="http://www.w3.org/2000/svg" viewBox="0 0 115.36 6.75"><defs><style>.cls-1{fill:#1a1a1e;}</style></defs><path class="cls-1" d="M665.29,772c5,.33,12,.71,19,2.65a42.28,42.28,0,0,0,22.1-.12c12.07-3.15,24.37-3.25,36.67-1.47a28.09,28.09,0,0,0,5.09.39,7.11,7.11,0,0,1,3.86.83,2.58,2.58,0,0,1,1.22,2.94c-.31,1.67-1.77,1.29-2.72,1.12-3.07-.56-5.81-2.09-9-2.62a58.91,58.91,0,0,0-7.13-.92c-3.43-.13-6.88.22-10.29,0-7-.54-13.82.84-20.42,2.67a31.9,31.9,0,0,1-18.22-.23c-9-2.7-18.22-2.45-27.43-2.41-5.42,0-10.91-.22-15.68,3.13a3.93,3.93,0,0,1-2.74.44c-.74-.06-1.53-.17-1.62-1.18-.07-.78-.11-1.67.58-2.07a9.51,9.51,0,0,1,4.21-1.64C649.54,773,656.31,771.89,665.29,772Z" transform="translate(-637.89 -771.88)"/></svg>