<svg id="Layer_13" data-name="Layer 13" xmlns="http://www.w3.org/2000/svg" viewBox="0 0 158.01 14.26"><defs><style>.cls-1{fill:#2e2d32;}.cls-2{fill:#232226;}.cls-3{fill:#19181b;}.cls-4{fill:#9a989c;}</style></defs><path class="cls-1" d="M752,776.33a134.25,134.25,0,0,1-15.8-2.53c-6.34-1.3-12.8-1.24-19.25-1.23q-26.43,0-52.86,0l1.1-1.93c12.5-.87,25-.29,37.54-.3,10.8,0,21.64-.81,32.39.94,5.67.93,11.34,1.91,17,2.87Z" transform="translate(-617.14 -763.27)"/><path class="cls-2" d="M665.19,770.65l-1.1,1.93a248,248,0,0,0-28.67,4.61c-1.61.37-3.86.6-5-.22-3.88-2.77-8.31-4.72-11.78-8.11-1.47-1.44-1.92-3.4-1-4.57,1.24-1.59,3.48-1.09,5.21-.12a6.48,6.48,0,0,1,3.38,5c.17,3.1,2.44,3.86,4.33,4.43a17.82,17.82,0,0,0,7.84.74C647.29,773,656.1,770.74,665.19,770.65Z" transform="translate(-617.14 -763.27)"/><path class="cls-3" d="M752,776.33l.13-2.17a26.83,26.83,0,0,0,3.88.38c4.28-.21,7.58-1.86,9.76-5.91,2.9-5.41,3.69-5.6,8.45-4.18,0,.91,0,1.82,0,2.72-5.7,5.59-11.82,10.33-20.41,10.09C753.05,777.24,752.35,777.14,752,776.33Z" transform="translate(-617.14 -763.27)"/><path class="cls-4" d="M774.24,767.17c0-.9,0-1.81,0-2.72C775.47,765.35,775.46,766.25,774.24,767.17Z" transform="translate(-617.14 -763.27)"/></svg>