<svg id="Layer_25" xmlns="http://www.w3.org/2000/svg" viewBox="0 0 436.25 73.05">
  <path fill="#0d0d0f" d="M773.83,583.12l-14.43.68a2.31,2.31,0,0,1,.42-2.35A220,220,0,0,1,785,544.86a22.75,22.75,0,0,1,9.72-6.72c11-4.11,22.52-5.48,34.06-6.49a536.54,536.54,0,0,1,53.65-1.49,9.29,9.29,0,0,1,7.48,3.18c6.85,7.67,13.89,15.17,20.83,22.75a14.19,14.19,0,0,1,3.51,6.11c-9,5.6-18,11.13-28.43,14-.46-2.9,2.46-3.7,3.57-5.65,2.22-3.87,2.41-4-.2-7.55-4.67-6.29-10.32-11.71-15.44-17.6a6.68,6.68,0,0,0-5.06-2.25c-6.47-.27-12.93-.6-19.4-.76-2,0-4.15-.14-6.3,1,.79,1.55,1.58,3,2.31,4.57,6.82,14.33,1.81,31.89-11.43,40.21-2,1.25-3.47,2.08-6,.14-4-3.11-7.62-2.2-10.56,2.33-1.2,1.85-2.22,2-4.11,1.82-13.06-1.63-24.1-13.09-25.77-26.82-.16-1.33.48-3-1.09-4C781.32,567.13,775.82,576.58,773.83,583.12Zm47-21.87c6.33.07,11.4-4.4,11.54-10.17s-4.57-10.46-11-10.61c-6.63-.16-12,4.47-12,10.35C809.35,556.44,814.55,561.18,820.79,561.25Zm2.22,8.83c1.77-.22,3.56-.58,3.7-2.71s-1.38-2.88-3.3-2.93-3.56.48-3.73,2.54S821.36,569.62,823,570.08Z" transform="translate(-478.04 -521.5)"/>
  <path fill="#0d0d0f" d="M508.59,577.18c-2.91.8-4.93-1.2-7.21-2.33-6-3-12-5.77-17.81-9-7.11-3.94-7.09-4.54-1.55-10.58,6.57-7.16,13.2-14.25,19.65-21.51a9.77,9.77,0,0,1,7.86-3.63c21.34-.17,42.65,0,63.86,2.61a106.06,106.06,0,0,1,23.86,5.37,22.55,22.55,0,0,1,9.73,6.71,222.06,222.06,0,0,1,26.12,38.3c-5.14.81-10,0-14.76.11-3-8.81-9.43-19.08-13.52-21.41-.08,1.17-.1,2.31-.23,3.44C603,579,592.27,590.45,579.18,592.33c-2,.28-3.22.42-4.58-1.85-2.68-4.48-6.42-5.22-10.59-2.17-2.19,1.61-3.58,1.36-5.48.1-10.4-6.87-15.28-16.53-14.77-29,.24-5.83,2.45-11,5.17-15.91a2.8,2.8,0,0,0-2.2-.94c-8-.83-15.94.36-23.91.59a6.1,6.1,0,0,0-4.52,2.13c-5.39,6.13-11.18,11.91-16.16,18.42-1.58,2.06-1.31,3.73-.19,5.68C503.68,572.44,506.35,574.62,508.59,577.18Zm62.47-15.92c6.2,0,11.48-4.66,11.61-10.26.13-5.91-5.16-10.63-11.81-10.54-6.4.1-11.29,4.65-11.23,10.45S564.76,561.25,571.06,561.26Zm1.43,5.64a3.5,3.5,0,0,0-3.75-2.5c-1.92.05-3.55.75-3.52,2.81s1.8,2.87,3.6,2.83A3.51,3.51,0,0,0,572.49,566.9Z" transform="translate(-478.04 -521.5)"/>
  <path fill="#d9e0e1" d="M508.59,577.18c-2.24-2.56-4.91-4.74-6.64-7.76-1.12-1.95-1.39-3.62.19-5.68,5-6.51,10.77-12.29,16.16-18.42a6.1,6.1,0,0,1,4.52-2.13c8-.23,15.91-1.42,23.91-.59a2.8,2.8,0,0,1,2.2.94c-2.72,4.89-4.93,10.08-5.17,15.91-.51,12.43,4.37,22.09,14.77,29,1.9,1.26,3.29,1.51,5.48-.1,4.17-3,7.91-2.31,10.59,2.17,1.36,2.27,2.62,2.13,4.58,1.85,13.09-1.88,23.84-13.29,25.41-27.06.13-1.13.15-2.27.23-3.44,4.09,2.33,10.55,12.6,13.52,21.41a17.79,17.79,0,0,1-15.23,10c-8.9.74-17.78,1.18-26.71,1.14-17.74-.08-35-3.18-52.19-7.25-4.47-1.06-8.43-3.46-12.45-5.61C510.11,580.64,508.5,579.47,508.59,577.18Z" transform="translate(-478.04 -521.5)"/>
  <path fill="#d9e0e1" d="M773.83,583.12c2-6.54,7.49-16,12.56-21.52,1.57,1,.93,2.67,1.09,4,1.67,13.73,12.71,25.19,25.77,26.82,1.89.23,2.91,0,4.11-1.82,2.94-4.53,6.52-5.44,10.56-2.33,2.51,1.94,4,1.11,6-.14,13.24-8.32,18.25-25.88,11.43-40.21-.73-1.53-1.52-3-2.31-4.57,2.15-1.12,4.27-1,6.3-1,6.47.16,12.93.49,19.4.76a6.68,6.68,0,0,1,5.06,2.25c5.12,5.89,10.77,11.31,15.44,17.6,2.61,3.5,2.42,3.68.2,7.55-1.11,2-4,2.75-3.57,5.65l.08-.08c-1.47-1-1.76.43-2.38,1.17-.1,2.77-2.29,3.68-4.23,4.87-6.77,4.13-14.34,6-22,7.54a236.32,236.32,0,0,1-56,4.69,139.19,139.19,0,0,1-15.24-1.52A15.44,15.44,0,0,1,773.83,583.12Z" transform="translate(-478.04 -521.5)"/>
  <path fill="#535055" d="M763.85,563.5c-.75-1.06-1-1.28-.94-1.35,7-13.45,15.28-25.21,31.07-29.66a266.79,266.79,0,0,1,49.21-9c9.47-.83,18.95-1.84,28.44-1.94,10.64-.11,20.85,1.69,28.21,10.81,2.94,3.64,6.14,7.06,8.82,10.92-1.91,1.38-2.38,0-3-.8-2.08-2.48-4.16-5-6.14-7.51-6.93-9-16.41-11.82-27.22-11.35-7.41.32-14.83.68-22.22,1.3a337,337,0,0,0-49.47,7.81c-14,3.3-24.58,10.57-31.74,23C767.37,558.2,765.69,560.63,763.85,563.5Z" transform="translate(-478.04 -521.5)"/>
  <path fill="#504e53" d="M484.65,544.31c6.71-16.33,20.8-24,37.94-22.56,8.7.75,17.46.81,26.17,1.66,17.42,1.69,34.61,4.47,51.33,9.85A37.53,37.53,0,0,1,619,546.33a99,99,0,0,1,9,13.16c.51,1,1.51,1.8.77,3.11-1.72.83-1.86-.93-2.27-1.66a125.24,125.24,0,0,0-9-13.16A35.42,35.42,0,0,0,599,535.07a219.45,219.45,0,0,0-45.13-9c-11-1-22-1.62-33-2.41-11.73-.86-21.74,2.37-29.14,12.06C489.53,538.67,487,541.45,484.65,544.31Z" transform="translate(-478.04 -521.5)"/>
  <path fill="#0d0d0f" d="M883.55,577.27c.62-.74.91-2.15,2.38-1.17C885.45,577.13,884.44,577.08,883.55,577.27Z" transform="translate(-478.04 -521.5)"/>
  <path fill="#fafafa" d="M820.79,561.25c-6.24-.07-11.44-4.81-11.45-10.43,0-5.88,5.35-10.51,12-10.35,6.44.15,11.15,4.7,11,10.61S827.12,561.32,820.79,561.25Z" transform="translate(-478.04 -521.5)"/>
  <path fill="#e9e8e9" d="M823,570.08c-1.65-.46-3.5-1-3.33-3.1s1.89-2.58,3.73-2.54,3.44.78,3.3,2.93S824.78,569.86,823,570.08Z" transform="translate(-478.04 -521.5)"/>
  <path fill="#f9f9f9" d="M571.06,561.26c-6.3,0-11.38-4.61-11.43-10.35s4.83-10.35,11.23-10.45c6.65-.09,11.94,4.63,11.81,10.54C582.54,556.6,577.26,561.27,571.06,561.26Z" transform="translate(-478.04 -521.5)"/>
  <path fill="#e5e4e5" d="M572.49,566.9a3.51,3.51,0,0,1-3.67,3.14c-1.8,0-3.57-.8-3.6-2.83s1.6-2.76,3.52-2.81A3.5,3.5,0,0,1,572.49,566.9Z" transform="translate(-478.04 -521.5)"/>
</svg>
