<svg id="Layer_24" xmlns="http://www.w3.org/2000/svg" viewBox="0 0 492.11 100.26">
  <path fill="#0f0e11" d="M818.05,604.49l-6.43.11a15.58,15.58,0,0,0-2.12-.8c-14.78-3.24-24-12.25-28-26.79-.25-.89-.69-1.73-1.1-2.77-3,2.3-5.3,5.08-6.15,8.28-1.56,5.89-5,8.35-10.83,7.79-2.84-.52-5.63.91-8.5.22-.63-1.55.62-2.44,1.27-3.46,13.88-21.82,32.23-38.66,55.67-49.82a53.13,53.13,0,0,1,13.34-4.73c8.46-1.54,13.06-6.92,14.35-15.57,2,2.2,2.08,5,3,7.39s1.64,3.95,4.88,2.89,6.7-1.19,10.08-1.67a11,11,0,0,0,6-3,45.44,45.44,0,0,0,11.92-16.71c-.24,6.1-2.33,10.91-3.16,16-.75,1.92.32,1.7,1.53,1.3,17.33-1.93,34.8-2.62,51.92-6.39,5.77-1.27,10.81-4.12,16.3-6.23-5.86,8.78-12.84,16.59-21.89,21.77-10,5.74-18.83,12.56-26.15,21.45-2,2.47-4.66,4.44-7,6.64-.07-.53-.15-1.06-.22-1.58,2.72-5.38,5.57-10.7,7.18-17.11-5.08-.15-9.8-.13-14.49-.57-8.13-.76-16.29-1.25-24.44-1.75-4.73-.29-9.1,1.06-13.58,3,1.76,2.33,3.32,4.23,4.7,6.26,10.44,15.46,7.09,37-7.43,48.1-1.86,1.43-3.43,2.09-6.11,1.28C826,596,821.77,598.19,818.05,604.49Zm12.19-42.55A14.48,14.48,0,1,0,816,576.6,14.41,14.41,0,0,0,830.24,561.94Zm-5.55,24.12a5,5,0,0,0-4.37-5.09A5.25,5.25,0,0,0,815,585.8a5.33,5.33,0,0,0,4.74,4.83A5.07,5.07,0,0,0,824.69,586.06Z" transform="translate(-449.95 -504.55)"/>
  <path fill="#0e0e10" d="M586.87,603.19l-2.77.59a4.7,4.7,0,0,0-3.56.81l-6.5-.06c-3.7-6.18-7.84-8.47-14-6.63-3.29,1-5.3.09-7.6-1.81-14-11.58-16.75-32.63-6.22-48,1.37-2,3.38-3.54,4.14-5.84a33.33,33.33,0,0,0-17.4-2.85c-7.21.6-14.41,1.2-21.63,1.73-4.28.32-8.57.49-12.93.73-.14,2.4,1.09,4,1.65,5.76,1.34,4.31,4.29,7.94,5.21,12.43-5.71-3.6-9.82-8.89-14.16-13.85a37.18,37.18,0,0,0-11-8.85,86.91,86.91,0,0,1-28.24-23.67c-.76-1-1.86-1.79-1.9-3.24,13.78,7.26,28.87,8.79,43.93,10.4,7.76.83,15.53,1.6,23.29,2.37a2.69,2.69,0,0,0,2.69-.88c-.85-3.55-1.79-7.5-2.73-11.46l1.72.05a66,66,0,0,1,3.91,5.59c5.31,9.34,14.86,9.43,23.74,11,1.41.25,1.92-.81,2.32-1.94,1-2.81,2-5.6,3-8.46,1.28.86.9,2.12,1.25,3.12,2,5.61,5.13,9.81,11.35,11.57,26.34,7.42,47.28,22.68,63.56,44.51,2.84,3.81,5.6,7.67,8.36,11.53a19,19,0,0,1,1.23,2.46c-3.23.43-6.08-1.22-8.94-.46-.75,0-1.5-.11-2.25-.09-5.27.1-5.23.09-7.3-4.59-1.76-4-3.66-7.84-7.14-10.59-1.32.68-1.35,1.88-1.59,3a34.19,34.19,0,0,1-6,12.67C599.91,596.44,593.6,600.1,586.87,603.19Zm-10.5-26.59a14.52,14.52,0,1,0-14.69-14.32A14.74,14.74,0,0,0,576.37,576.6Zm-4.07,4.33a5.28,5.28,0,0,0-5,4.52,5.15,5.15,0,0,0,4.36,5.16,5.21,5.21,0,0,0,5.35-4.77A5.39,5.39,0,0,0,572.3,580.93Z" transform="translate(-449.95 -504.55)"/>
  <path fill="#dae0e2" d="M505.22,560.1c-.92-4.49-3.87-8.12-5.21-12.43-.56-1.78-1.79-3.36-1.65-5.76,4.36-.24,8.65-.41,12.93-.73,7.22-.53,14.42-1.13,21.63-1.73a33.33,33.33,0,0,1,17.4,2.85c-.76,2.3-2.77,3.86-4.14,5.84-10.53,15.32-7.81,36.37,6.22,48,2.3,1.9,4.31,2.79,7.6,1.81,6.2-1.84,10.34.45,14,6.63-3.41,0-6.84.17-10.22-.12-4.58-.39-8.64-2.38-12.51-4.81-12-7.53-23.82-15.35-34.74-24.42-4.36-3.63-8.09-7.89-10.17-13.33-.45-.61-.09-1.79-1.31-1.85Z" transform="translate(-449.95 -504.55)"/>
  <path fill="#dae1e2" d="M818.05,604.49c3.72-6.3,7.93-8.47,14.57-6.45,2.68.81,4.25.15,6.11-1.28,14.52-11.13,17.87-32.64,7.43-48.1-1.38-2-2.94-3.93-4.7-6.26,4.48-2,8.85-3.33,13.58-3,8.15.5,16.31,1,24.44,1.75,4.69.44,9.41.42,14.49.57-1.61,6.41-4.46,11.73-7.18,17.11-1.55.87-1.91,2.39-2.15,4,.39,2.21-1.11,3.47-2.39,4.88a139,139,0,0,1-31.82,25.58c-2.11,1.27-4.16,2.66-6.15,4.12C836.45,603.08,827.78,605.69,818.05,604.49Z" transform="translate(-449.95 -504.55)"/>
  <path fill="#d6dcdd" d="M763.43,590.31c5.88.56,9.27-1.9,10.83-7.79.85-3.2,3.19-6,6.15-8.28.41,1,.85,1.88,1.1,2.77,4,14.54,13.21,23.55,28,26.79a15.58,15.58,0,0,1,2.12.8c-3.67.66-7.17-.38-10.68-1.13-11.48-2.47-23.12-4.46-33.63-10.15C765.87,592.54,763.94,592.31,763.43,590.31Z" transform="translate(-449.95 -504.55)"/>
  <path fill="#d8dedf" d="M586.87,603.19c6.73-3.09,13-6.75,17.49-12.93a34.19,34.19,0,0,0,6-12.67c.24-1.08.27-2.28,1.59-3,3.48,2.75,5.38,6.63,7.14,10.59,2.07,4.68,2,4.69,7.3,4.59.75,0,1.5.06,2.25.09a3.24,3.24,0,0,1-2,2.53,77.75,77.75,0,0,1-20.54,7.64c-3.67.78-7.37,1.48-10.95,2.57A18,18,0,0,1,586.87,603.19Z" transform="translate(-449.95 -504.55)"/>
  <path fill="#636166" d="M837,511.79c-20.91,4.22-38.43,13.45-53.09,27.8-1.09-1-.87-1.71-.3-2.26a100.16,100.16,0,0,1,50-26.66,5.65,5.65,0,0,1,1.69-.12C835.52,510.58,835.79,510.93,837,511.79Z" transform="translate(-449.95 -504.55)"/>
  <path fill="#615f64" d="M608.56,539.36A107.67,107.67,0,0,0,555,511.76C564.7,508.29,601.82,526.32,608.56,539.36Z" transform="translate(-449.95 -504.55)"/>
  <path fill="#6e6b71" d="M518.85,511l-1.72-.05c-1-1.68-.88-3.48-.53-6.37C517.57,507.3,518.21,509.13,518.85,511Z" transform="translate(-449.95 -504.55)"/>
  <path fill="#787a7c" d="M884.64,562.76c.24-1.58.6-3.1,2.15-4,.07.52.15,1.05.22,1.58C886.79,561.73,885.65,562.18,884.64,562.76Z" transform="translate(-449.95 -504.55)"/>
  <path fill="#d8dedf" d="M580.54,604.59a4.7,4.7,0,0,1,3.56-.81C583.13,605,581.86,604.93,580.54,604.59Z" transform="translate(-449.95 -504.55)"/>
  <path fill="#0e0e10" d="M505.09,560c1.22.06.86,1.24,1.31,1.85Z" transform="translate(-449.95 -504.55)"/>
  <path fill="#fbfafb" d="M830.24,561.94A14.41,14.41,0,0,1,816,576.6a14.52,14.52,0,1,1,14.26-14.66Z" transform="translate(-449.95 -504.55)"/>
  <path fill="#ecebec" d="M824.69,586.06a5.07,5.07,0,0,1-4.92,4.57A5.33,5.33,0,0,1,815,585.8a5.25,5.25,0,0,1,5.29-4.83A5,5,0,0,1,824.69,586.06Z" transform="translate(-449.95 -504.55)"/>
  <path fill="#fff" d="M873.84,523.13c-1.21.4-2.28.62-1.53-1.3Z" transform="translate(-449.95 -504.55)"/>
  <path fill="#fbfbfb" d="M576.37,576.6a14.62,14.62,0,0,1-14.69-14.32,14.55,14.55,0,1,1,14.69,14.32Z" transform="translate(-449.95 -504.55)"/>
  <path fill="#ebebec" d="M572.3,580.93a5.39,5.39,0,0,1,4.68,4.91,5.21,5.21,0,0,1-5.35,4.77,5.15,5.15,0,0,1-4.36-5.16A5.28,5.28,0,0,1,572.3,580.93Z" transform="translate(-449.95 -504.55)"/>
</svg>
