<svg id="Layer_27" xmlns="http://www.w3.org/2000/svg" viewBox="0 0 457.1 82.98">
  <path fill="#0d0d10" d="M573.62,590.85l-1.78-.09c-4.4-8.63-13.07-9.63-20.2-2.34l-1.12-.17c-.77-.54-1.52-1.11-2.31-1.63C529,574,527.45,549.32,545,534.28c.68-.58,1.74-.89,1.61-2.44-1.71-.25-3.5-.53-5.31-.76a101.2,101.2,0,0,0-40.63,3.31c-6.79,1.89-8.78,5.85-7.78,12.82a71.07,71.07,0,0,0,6.6,20.95c-8.58-1.51-14.73-6.5-19.69-13.42A78.26,78.26,0,0,1,468,531.51c-1.07-3.58-.27-6.13,2.88-8.29a37.79,37.79,0,0,1,8.93-5c15.56-5.38,31.52-6.52,47.81-4.57,21.64,2.59,40.55,12,58.94,22.95a109.66,109.66,0,0,1,31.62,28.4c5.08,6.7,8.83,14.17,12.38,21.74.49,1,1.79,2.33.39,3.57-.94.82-2.17.39-3.27.13s-2.21-.55-3.31-.83c-1.26-2.36-4.48-2.18-5.66-5.18-3.76-9.57-11-16.73-17.85-24.15-.67-.73-1.26-2.06-2.76-1.22-.37,12.11-5.6,21.48-16,27.87-1.6,1-3.26,1.89-4.9,2.82l-2.27.53C574.32,590.06,573.93,590.35,573.62,590.85ZM554.21,546.5a11.56,11.56,0,0,0,11.33,11.83,11.59,11.59,0,1,0-11.33-11.83Zm13.64,19.29c-.27-1.74-.85-3.31-2.94-3.54s-3.11,1.18-3.49,3,1.4,4,3.15,4C566.65,569.11,567.39,567.6,567.85,565.79Z" transform="translate(-467.52 -508.02)"/>
  <path fill="#0c0c0f" d="M817.27,590.41l-3.34-1c-1.6-1-3.2-2-4.79-3a31.45,31.45,0,0,1-14.27-19.84,73.16,73.16,0,0,1-1.09-7.68c-.57,0-1.09-.08-1.28.12-6.55,6.64-13,13.39-17.43,21.71-1.86,3.55-3.81,6.75-7.29,8.83-1.86.38-3.7.82-5.57,1.1-.48.08-1-.32-1.93-.62a93.58,93.58,0,0,1,10.23-20.18,104.94,104.94,0,0,1,33.79-32.57c12.65-7.72,25.66-14.87,39.86-19.23,22.12-6.79,44.44-7.59,66.71-.32a37.18,37.18,0,0,1,11.38,6.31c2.11,1.64,2.8,3.51,2.13,5.94-3.58,12.92-10,24.2-20.11,33.1a18.54,18.54,0,0,1-12.52,4.54c2.18-2.22,3.32-5,4.42-7.86,1.6-4.11,2-8.47,2.83-12.76,1.28-6.83-1-10.76-7.74-12.72A100.48,100.48,0,0,0,880.71,532a97,97,0,0,0-35.39-.11c.19,1.79,1.43,2.16,2.24,2.87,16.35,14.25,15.42,37.72-2,50.74-.74.56-1.4,1.23-2.09,1.84l-3,1.11c-7.31-7.27-16-6.29-20.24,2.27l-1.73.17C818.21,590.41,817.85,590.11,817.27,590.41Zm9.06-55.26a12,12,0,0,0-12.18,11.21c-.29,6.16,4.91,11.63,11.36,12a11.68,11.68,0,0,0,12.38-11.42A11.89,11.89,0,0,0,826.33,535.15Zm1.14,34.06a3.76,3.76,0,0,0,3.15-3.67,3.3,3.3,0,0,0-3.77-3.26,3.18,3.18,0,0,0-2.6,3.79A3.31,3.31,0,0,0,827.47,569.21Z" transform="translate(-467.52 -508.02)"/>
  <path fill="#dae1e2" d="M843.46,587.32c.69-.61,1.35-1.28,2.09-1.84,17.43-13,18.36-36.49,2-50.74-.81-.71-2-1.08-2.24-2.87a97,97,0,0,1,35.39.11,100.48,100.48,0,0,1,10.55,2.38c6.77,2,9,5.89,7.74,12.72-.8,4.29-1.23,8.65-2.83,12.76-1.1,2.83-2.24,5.64-4.42,7.86-1.28,4.58-4.8,7.12-8.7,9.12-10.69,5.47-22.17,8.54-33.93,10.62C847.33,587.76,845.27,589.87,843.46,587.32Z" transform="translate(-467.52 -508.02)"/>
  <path fill="#dbe1e2" d="M499.5,568.16a71.07,71.07,0,0,1-6.6-20.95c-1-7,1-10.93,7.78-12.82a101.2,101.2,0,0,1,40.63-3.31c1.81.23,3.6.51,5.31.76.13,1.55-.93,1.86-1.61,2.44-17.56,15-16,39.73,3.2,52.34.79.52,1.54,1.09,2.31,1.63-2.9,1.08-5.62-.28-8.31-.85-10.48-2.24-20.92-4.64-30.7-9.29A31.09,31.09,0,0,1,499.5,568.16Z" transform="translate(-467.52 -508.02)"/>
  <path fill="#d9dfe1" d="M577.2,589.8c1.64-.93,3.3-1.83,4.9-2.82,10.37-6.39,15.6-15.76,16-27.87,1.5-.84,2.09.49,2.76,1.22,6.81,7.42,14.09,14.58,17.85,24.15,1.18,3,4.4,2.82,5.66,5.18-14.25,2.33-28.62.82-42.93,1.22C579.93,590.92,578.34,591.19,577.2,589.8Z" transform="translate(-467.52 -508.02)"/>
  <path fill="#d9dfe1" d="M767.78,589.63c3.48-2.08,5.43-5.28,7.29-8.83,4.38-8.32,10.88-15.07,17.43-21.71.19-.2.71-.08,1.28-.12a73.16,73.16,0,0,0,1.09,7.68,31.45,31.45,0,0,0,14.27,19.84c1.59,1,3.19,2,4.79,3-1.1,1.86-2.95,1.44-4.6,1.44-10.86,0-21.71.08-32.56-.07A76.84,76.84,0,0,1,767.78,589.63Z" transform="translate(-467.52 -508.02)"/>
  <path fill="#67646a" d="M835.94,508.43c-19.69,6.77-37.75,16.05-51.08,32.77C788.28,529.49,816.78,511,835.94,508.43Z" transform="translate(-467.52 -508.02)"/>
  <path fill="#6b696e" d="M556.32,508c20.5,5.38,38.55,14.8,52.54,33.05-4.44-.85-5.24-4.17-7.33-5.89s-4.07-4-6.24-5.83a88.2,88.2,0,0,0-7.25-5.52c-2.5-1.7-5.11-3.27-7.77-4.72s-5.39-2.78-8.16-4c-2.6-1.15-5.34-2-7.9-3.17S558.36,510.62,556.32,508Z" transform="translate(-467.52 -508.02)"/>
  <path fill="#d8dedf" d="M820.24,590.7c4.26-8.56,12.93-9.54,20.24-2.27-1,.4-2.08,1.14-3.11,1.12C831.63,589.48,826,590.39,820.24,590.7Z" transform="translate(-467.52 -508.02)"/>
  <path fill="#dae1e2" d="M551.64,588.42c7.13-7.29,15.8-6.29,20.2,2.34C565.19,589.27,558.18,590.85,551.64,588.42Z" transform="translate(-467.52 -508.02)"/>
  <path fill="#d9dfe1" d="M573.62,590.85c.31-.5.7-.79,1.31-.52A.94.94,0,0,1,573.62,590.85Z" transform="translate(-467.52 -508.02)"/>
  <path fill="#d9dfe1" d="M817.27,590.41c.58-.3.94,0,1.24.46A.89.89,0,0,1,817.27,590.41Z" transform="translate(-467.52 -508.02)"/>
  <path fill="#fbfbfb" d="M554.21,546.5a11.78,11.78,0,0,1,11.88-11.35,11.6,11.6,0,1,1-.55,23.18A11.56,11.56,0,0,1,554.21,546.5Z" transform="translate(-467.52 -508.02)"/>
  <path fill="#e5e4e5" d="M567.85,565.79c-.46,1.81-1.2,3.32-3.28,3.39-1.75.06-3.53-2.13-3.15-4s1.37-3.2,3.49-3S567.58,564.05,567.85,565.79Z" transform="translate(-467.52 -508.02)"/>
  <path fill="#f9f9f9" d="M826.33,535.15a11.89,11.89,0,0,1,11.56,11.75,11.68,11.68,0,0,1-12.38,11.42c-6.45-.33-11.65-5.8-11.36-12A12,12,0,0,1,826.33,535.15Z" transform="translate(-467.52 -508.02)"/>
  <path fill="#e6e5e6" d="M827.47,569.21a3.31,3.31,0,0,1-3.22-3.14,3.18,3.18,0,0,1,2.6-3.79,3.3,3.3,0,0,1,3.77,3.26A3.76,3.76,0,0,1,827.47,569.21Z" transform="translate(-467.52 -508.02)"/>
</svg>
