<svg id="Layer_23" xmlns="http://www.w3.org/2000/svg" viewBox="0 0 478.64 94.44">
  <path fill="#0d0d0f" d="M774.78,588.21c-6.73.64-13.45,1.55-20.66,1.53a62.17,62.17,0,0,1,5.28-12.46c3.82-7.42,7.82-14.76,11.75-22.13.18-.33.34-.68.5-1,5.76-12,15.31-18.42,28.23-21.62,19-4.72,38.11-8.63,57.66-10.27,4.88-.41,7.57-4,9.87-7.75.73-1.21,1-2.69,2.49-3.94,0,2.59.08,5.17,0,7.75-.09,2.34.66,3.44,3.22,3.4,6.54-.12,12.94.5,18.31,4.89a3.49,3.49,0,0,0,3.26.43c5.53-1.43,11.11-2.73,15.08-7.35l-.23.1c0,4.1-2.93,6.74-5.07,9.73a53,53,0,0,1-3.89,4.39c10.1,8.62,20.5,15.9,34.94,15.81a5.58,5.58,0,0,1-3.37,2.3,184,184,0,0,0-18.63,6.89c-5.23,2.23-10.55,4.28-14.4,8.78a4.32,4.32,0,0,1-2.93,1.61c-1.32-1.48.24-2.4.81-3.34,2.09-3.48,1.41-6.06-1.39-9.06a80.72,80.72,0,0,0-19.22-15.07c-5.91-3.38-12.36-4-19.19-3.83.25,2.21,1.42,3.53,2.15,5,8.83,18.42,2.5,41-14.44,51.85-2.46,1.58-4,2.18-6.69-.31-6.48-6-15.32-3-17.58,5.49l-2.2.37q-25.75-6.15-31.54-32c-.52-2.3-.61-4.7-1-8.19a106.24,106.24,0,0,0-7.55,15.5C776.63,579.75,774.69,583.7,774.78,588.21Zm49.12-25.78a13.66,13.66,0,0,0,13.85-13.65,13.67,13.67,0,1,0-27.34.24A13.6,13.6,0,0,0,823.9,562.43Zm2.72,4.23a3.78,3.78,0,1,0-.16,7.56,3.6,3.6,0,0,0,3.72-3.44A3.65,3.65,0,0,0,826.62,566.66Z" transform="translate(-456.85 -507.25)"/>
  <path fill="#0c0c0e" d="M484.82,522.18a38.87,38.87,0,0,0,8.26,3.73c3.82,1.42,7,1.47,10.57-1.19,3.93-3,8.94-3,13.7-3,5.44,0,4.75-.77,4.86-4.67,0-1.51.15-3,.23-4.53.51,0,1.08,0,1.15.11,3,6.38,7.54,9.53,15,10.1,20.88,1.59,41.27,6,61.28,12.29,6.21,1.94,11.41,5.07,15,10.64,1.33,2.08,3,4,4.11,6.16,5.9,11,12.22,21.86,17.34,33.3.6,1.33,1.68,2.59,1.17,4.81-6.68-1-13.51-.82-20.15-2.57-1.68-9.58-6.26-17.9-10.91-26.21-.73,6.3-1.91,12.22-4.7,17.75-5.86,11.65-15.31,18.62-27.91,21.51l-2.27-.32c-.3-8.47-12.66-11-17.62-5.63-2.43,2.63-4.07,2.16-6.65.5a41,41,0,0,1-17.54-43.1c1.07-4.82,3.2-9.19,5.73-14.05-4.76.18-8.88.11-12.85,1.35-11.43,3.58-20.15,11-27.88,19.83-1.52,1.73-1,3.42-.34,5.29.8,2.32,2.88,4.07,2.93,6.7-.67-.31-1.56-.44-2-1-6-7.45-14.65-10.39-23.1-13.65-5.06-2-10.19-3.74-15.35-6.11,13.81-.43,24.23-7.73,34.53-16.16-2.89-3.77-6.43-7.2-8.51-11.64Zm82.85,40.25a13.68,13.68,0,0,0,14-13.53,13.67,13.67,0,1,0-27.33,0A13.52,13.52,0,0,0,567.67,562.43Zm-2,4.19a3.83,3.83,0,0,0-4,3.85,4,4,0,0,0,4.11,3.8,3.57,3.57,0,0,0,3.63-3.6A3.63,3.63,0,0,0,565.71,566.62Z" transform="translate(-456.85 -507.25)"/>
  <path fill="#dae0e1" d="M497.28,571c0-2.63-2.13-4.38-2.93-6.7-.65-1.87-1.18-3.56.34-5.29,7.73-8.82,16.45-16.25,27.88-19.83,4-1.24,8.09-1.17,12.85-1.35-2.53,4.86-4.66,9.23-5.73,14.05A41,41,0,0,0,547.23,595c2.58,1.66,4.22,2.13,6.65-.5,5-5.36,17.32-2.84,17.62,5.63a141,141,0,0,1-42-6c-8.08-2.38-15.52-6.24-21.45-12.46-2.64-2.76-6.2-4.43-8.59-7.46C498.61,573.18,497.29,572.52,497.28,571Z" transform="translate(-456.85 -507.25)"/>
  <path fill="#dae0e1" d="M820.61,600.05c2.26-8.5,11.1-11.5,17.58-5.49,2.7,2.49,4.23,1.89,6.69.31C861.82,584,868.15,561.44,859.32,543c-.73-1.51-1.9-2.83-2.15-5,6.83-.15,13.28.45,19.19,3.83a80.72,80.72,0,0,1,19.22,15.07c2.8,3,3.48,5.58,1.39,9.06-.57.94-2.13,1.86-.81,3.34l.07-.1c-1.53-.32-1.35.72-1.31,1.65a164.28,164.28,0,0,1-13.43,13.09c-10.29,8.55-22.61,11.88-35.48,13.92C837.58,599.18,829.17,600.42,820.61,600.05Z" transform="translate(-456.85 -507.25)"/>
  <path fill="#d8dedf" d="M573.77,600.4c12.6-2.89,22.05-9.86,27.91-21.51,2.79-5.53,4-11.45,4.7-17.75,4.65,8.31,9.23,16.63,10.91,26.21,0,2-1.31,3-2.93,3.81A143.27,143.27,0,0,1,590,600.67,29.48,29.48,0,0,1,573.77,600.4Z" transform="translate(-456.85 -507.25)"/>
  <path fill="#d8dee0" d="M774.78,588.21c-.09-4.51,1.85-8.46,3.51-12.47a106.24,106.24,0,0,1,7.55-15.5c.42,3.49.51,5.89,1,8.19q5.75,25.85,31.54,32c-7.12,1.32-14.18,1.69-21.06-1.23-5.9-2.5-12.15-4.18-17.85-7.18C777.69,591.06,775.54,590.48,774.78,588.21Z" transform="translate(-456.85 -507.25)"/>
  <path fill="#47454a" d="M773.71,523.35c1-1.61,1.88-3.27,2.9-4.85,3.59-5.5,8.12-9,15.19-9.45,15.7-1.07,31.37-2.47,47.12-1.41,0,.6,0,1.2,0,1.79-12.51-1.17-25,.24-37.43,1-3,.18-6,.64-9.06.72a15.27,15.27,0,0,0-12.89,7c-1.5,2.18-3.12,4.28-4.69,6.41Z" transform="translate(-456.85 -507.25)"/>
  <path fill="#47454a" d="M552.12,507.67c15.51-1.15,30.94.32,46.41,1.12,8.2.42,13.89,4.05,17.66,11.12A1.68,1.68,0,0,1,615,521.2a9.43,9.43,0,0,1-1.08-1.3c-3.86-6.5-9.69-8.85-17.07-9-8.86-.23-17.7-1.29-26.56-1.76a125.75,125.75,0,0,0-18.1.41C552.13,508.9,552.12,508.29,552.12,507.67Z" transform="translate(-456.85 -507.25)"/>
  <path fill="#757278" d="M615,521.2a1.68,1.68,0,0,0,1.24-1.29c7.86,11.4,12.74,24.12,16.42,37.38C627.29,545,622.35,532.48,615,521.2Z" transform="translate(-456.85 -507.25)"/>
  <path fill="#78757b" d="M773.71,523.35l1.1,1.2a193.36,193.36,0,0,0-14.69,33.3c-1.83-1.87-.65-3-.27-4.11C763.48,543.17,767.57,532.79,773.71,523.35Z" transform="translate(-456.85 -507.25)"/>
  <path fill="#6e6c71" d="M552.12,507.67c0,.62,0,1.23,0,1.84-3.95.41-7.91.79-11.85,1.24-3.73.42-7.46.92-11.64,1.45C532.31,509.59,541.1,508,552.12,507.67Z" transform="translate(-456.85 -507.25)"/>
  <path fill="#6e6c71" d="M838.88,509.43c0-.59,0-1.19,0-1.79a111.8,111.8,0,0,1,20.55,2.47c0,.53,0,1.06,0,1.6C852.69,510.44,845.76,510.17,838.88,509.43Z" transform="translate(-456.85 -507.25)"/>
  <path fill="#78757b" d="M484.82,522.18l-1.95.27c-1.82-1.36-1.73-3.63-2.66-5.45Z" transform="translate(-456.85 -507.25)"/>
  <path fill="#868388" d="M859.51,511.71c0-.54,0-1.07,0-1.6,1.47.09,3,.08,4.27,1.53A4.07,4.07,0,0,1,859.51,511.71Z" transform="translate(-456.85 -507.25)"/>
  <path fill="#0d0d0f" d="M909.74,519.67l0,.29a2.48,2.48,0,0,1-.26-.19Z" transform="translate(-456.85 -507.25)"/>
  <path fill="#0d0d0f" d="M894.92,570.83c0-.93-.22-2,1.31-1.65Z" transform="translate(-456.85 -507.25)"/>
  <path fill="#fbfafb" d="M823.9,562.43A13.6,13.6,0,0,1,810.41,549a13.67,13.67,0,1,1,27.34-.24A13.66,13.66,0,0,1,823.9,562.43Z" transform="translate(-456.85 -507.25)"/>
  <path fill="#fcfcfc" d="M826.62,566.66a3.65,3.65,0,0,1,3.56,4.12,3.6,3.6,0,0,1-3.72,3.44,3.78,3.78,0,1,1,.16-7.56Z" transform="translate(-456.85 -507.25)"/>
  <path fill="#fafafa" d="M567.67,562.43a13.52,13.52,0,0,1-13.34-13.53,13.67,13.67,0,1,1,27.33,0A13.68,13.68,0,0,1,567.67,562.43Z" transform="translate(-456.85 -507.25)"/>
  <path fill="#f4f3f4" d="M565.71,566.62a3.63,3.63,0,0,1,3.71,4,3.57,3.57,0,0,1-3.63,3.6,4,4,0,0,1-4.11-3.8A3.83,3.83,0,0,1,565.71,566.62Z" transform="translate(-456.85 -507.25)"/>
</svg>
