<svg id="Layer_22" xmlns="http://www.w3.org/2000/svg" viewBox="0 0 470.11 97.66">
  <path fill="#0c0c0e" d="M550.43,514.34c2.58,3.11,5.88,4.39,9.93,4.7a32.37,32.37,0,0,1,13.95,4.55c7.38,4.34,14.42,9.14,21.35,14.17,13.16,9.53,22.23,22.14,28.83,36.77a41.42,41.42,0,0,1,3.53,12c.37,3,.28,3.17-2.91,2.78-2.44-.29-4.89-.61-7.34-.92-1.65-1.15-1.26-3-1.6-4.61-1.29-6.27-3.11-12.33-7.61-18.55-.92,5.63-2.13,9.93-4.27,13.9-6.58,12.25-17,19-30.52,21.41l-3.35-.53c-3.49-6-7.86-6.4-12.74-1.29l-2.11.08c-1.31-.7-2.61-1.43-4-2.1a40,40,0,0,1-21-47c1.17-4.3,3.51-8.11,6-12.84-16.27,5.8-28.47,14.1-31.41,31.51a13.2,13.2,0,0,1-5.49-1.29c-10.13-4.62-20.63-8.51-29.55-15.47-2.95-2.29-6.14-4.26-9.24-6.39,1.26-2.19,3-1.15,4.2-.91a69.54,69.54,0,0,0,15.31.79c8.3-.27,15.69-2.43,20.32-10.16a18.82,18.82,0,0,1,2.7-2.89l1.1,1.11-.09.27.32-.35.63-.68a.79.79,0,0,1,.88-.85l0,0c1.83.74,3.12-.37,4.36-1.38.25-.2,0-1,0-1.46a7.36,7.36,0,0,0-1.43.24,10.38,10.38,0,0,0-1.38.84l-1.13-1.1c.81-1.13,2.23-1.94.64-3.72a64,64,0,0,1-8.53-12.23l10.79,6.38a1.4,1.4,0,0,0,1.62.75l1.84.46a1.35,1.35,0,0,0,1.73.56l2.38.12,4.13-.46c-.24,1.77,1.05,1.58,2.14,1.72,6.59.88,12.26-3,18.58-3.61,1.63-.17,2.1-2.27,1.83-3.68-.37-2-2.2-.42-3.28-.88,0-.64,0-1.28,0-1.91,3.07-.09,5.14-1.45,5.8-4.59l1.86,0c.06.91.13,1.83.19,2.75a.67.67,0,0,0,.75.77l.44,0C550,512.16,549.2,513.48,550.43,514.34Zm17.63,54.15a13.6,13.6,0,0,0,0-27.2,13.6,13.6,0,1,0,0,27.2Zm-2.79,11.11a2.68,2.68,0,0,0,2.7-2.9,2.76,2.76,0,0,0-3.34-2.83,2.66,2.66,0,0,0-2.38,3.18C562.41,578.82,563.5,579.62,565.27,579.6Z" transform="translate(-460.96 -503.8)"/>
  <path fill="#0b0b0d" d="M772.61,588.61a7.29,7.29,0,0,0-1.14,0c-9,1-9.44.84-6.16-8.09,4.68-12.73,11-24.66,21.06-34.12a159.36,159.36,0,0,1,33.82-24.06,28.83,28.83,0,0,1,12-3.31,12.82,12.82,0,0,0,9.38-4.64c.33-2.2,3.57-3.39,2.18-6.2.81-.83,1.77-1.07,2.1.24.76,3.09,3.23,3.34,5.67,3.75,0,.65,0,1.29,0,1.93-1.13.38-3-1-3.36.82-.32,1.59.09,3.45,2.27,3.94a5.21,5.21,0,0,0,.55.08c3.77.41,7.24,1.91,10.87,2.81,3,.74,6.2,1.36,9.15-.5a2.46,2.46,0,0,0,1.33-1.79c2.15,1.44,4.36,1.42,6.81.68,3.59-1.09,6.62-3.24,9.93-4.86a2.05,2.05,0,0,1,1.5,1.52c-2,2.74-3.8,5.62-6,8.17-1.56,1.82-.13,2.62.68,3.75l-1,1.1c-1.07-.28-1.8-2.66-3.11-.85-1,1.42.93,2.07,1.66,2.23,1.75.4,2.58,3,4.8,2l1.07-.93a23.38,23.38,0,0,1,3.07,3.32c4.26,6.84,10.94,9,18.39,9.46a63.8,63.8,0,0,0,16.49-.68c1.34-.26,3-1.09,4.53.47-2.26,2.89-5.81,4-8.51,6.21-8.8,7.17-19.36,11.12-29.51,15.79-2.14,1-4.51,2.28-7.09,1a2.78,2.78,0,0,0,.22-2.19c-2.61-8.81-6.68-16.53-15.1-21.24-3.82-2.13-7.53-4.45-11.62-6-1.07-.42-2.15-1.81-3.61-.4.67,1.13,1.37,2.26,2,3.42a39.94,39.94,0,0,1-18.46,55.85c-2.95,1.34-5.36,1.8-8.28-.42-3.29-2.49-4.72-2.27-9.3,2.22l-.78,1.3-2.57.19-1.24-.23c-18.68-3.71-29.73-15.19-33.8-33.71-2.3,1-2.95,2.88-3.59,4.55-1.69,4.4-3.77,8.75-4.1,13.54A4,4,0,0,1,772.61,588.61ZM824,568.49a13.6,13.6,0,1,0-13.58-13.83A13.68,13.68,0,0,0,824,568.49Zm3.07,5.27c-1.66.19-2.82,1-2.95,2.75a2.59,2.59,0,0,0,2.52,3,2.65,2.65,0,0,0,3.24-2.88C829.86,575,828.71,574.05,827.05,573.76Z" transform="translate(-460.96 -503.8)"/>
  <path fill="#dae0e1" d="M821.82,599c4.58-4.49,6-4.71,9.3-2.22,2.92,2.22,5.33,1.76,8.28.42a39.94,39.94,0,0,0,18.46-55.85c-.64-1.16-1.34-2.29-2-3.42,1.46-1.41,2.54,0,3.61.4,4.09,1.59,7.8,3.91,11.62,6,8.42,4.71,12.49,12.43,15.1,21.24a2.78,2.78,0,0,1-.22,2.19c.21,3.4-2,5.7-3.93,7.93a69.38,69.38,0,0,1-35.75,22c-6.93,1.83-13.91,3.63-21.17,3.52a22.74,22.74,0,0,1-3.34-.53C821.79,600.08,821.81,599.52,821.82,599Z" transform="translate(-460.96 -503.8)"/>
  <path fill="#d9e0e1" d="M505.24,568.33c2.94-17.41,15.14-25.71,31.41-31.51-2.54,4.73-4.88,8.54-6,12.84a40,40,0,0,0,21,47c1.34.67,2.64,1.4,4,2.1a1.67,1.67,0,0,1-1.88.89c-17.64-3.48-33-11.06-44.7-25.08C507.45,572.71,505.72,570.87,505.24,568.33Z" transform="translate(-460.96 -503.8)"/>
  <path fill="#d6dcde" d="M772.61,588.61a4,4,0,0,0,3.13-4c.33-4.79,2.41-9.14,4.1-13.54.64-1.67,1.29-3.55,3.59-4.55,4.07,18.52,15.12,30,33.8,33.71,0,.3.06.59.1.89-9.54-.3-18.41-3.38-27.2-6.69-4-1.52-8.09-3.08-12-4.9C776.28,588.66,774.41,589.07,772.61,588.61Z" transform="translate(-460.96 -503.8)"/>
  <path fill="#d7dedf" d="M573.77,600.49c13.49-2.41,23.94-9.16,30.52-21.41,2.14-4,3.35-8.27,4.27-13.9,4.5,6.22,6.32,12.28,7.61,18.55.34,1.62,0,3.46,1.6,4.61-5.6.6-10.09,4.07-15.18,6-7.62,2.88-15.54,4.55-23.35,6.61C577.5,601.41,575.5,601.74,573.77,600.49Z" transform="translate(-460.96 -503.8)"/>
  <path fill="#3e3d41" d="M843.74,508.15c1.39,2.81-1.85,4-2.18,6.2-1-1.77-2.67-1.08-4.07-1.1-21.24-.29-40.35,5.45-56.23,20.15l-1.07-1.27c10.88-11.39,24.42-17.46,39.74-20.12a93.08,93.08,0,0,1,19.79-1.2C841.82,510.9,843.51,510.72,843.74,508.15Z" transform="translate(-460.96 -503.8)"/>
  <path fill="#3c3a3f" d="M550.43,514.34c-1.23-.86-.42-2.18-.73-3.24,24.28-1.56,46,4.08,63.38,22.24L612,534.51c-3.4-2.73-6.66-5.64-10.21-8.14-14.88-10.49-31.79-13.49-49.58-13.11A1.89,1.89,0,0,0,550.43,514.34Z" transform="translate(-460.96 -503.8)"/>
  <path fill="#4a484c" d="M872.28,519.43a2.46,2.46,0,0,1-1.33,1.79c-6-3.81-12.72-5.49-19.48-7.15,0-.64,0-1.28,0-1.93A45.36,45.36,0,0,1,872.28,519.43Z" transform="translate(-460.96 -503.8)"/>
  <path fill="#d9e0e1" d="M557.68,598.67c4.88-5.11,9.25-4.67,12.74,1.29C565.92,602,561.61,602.27,557.68,598.67Z" transform="translate(-460.96 -503.8)"/>
  <path fill="#444247" d="M540.66,512.13c0,.63,0,1.27,0,1.91a86.38,86.38,0,0,0-19.14,6.48l-2.19-.94A47.07,47.07,0,0,1,540.66,512.13Z" transform="translate(-460.96 -503.8)"/>
  <path fill="#757378" d="M780.79,533.85,767,548l-1-.43c3.82-5.58,7.92-10.91,13.44-14.94A1.58,1.58,0,0,0,780.79,533.85Z" transform="translate(-460.96 -503.8)"/>
  <path fill="#757378" d="M613.79,533.79c5,3.71,8.66,8.64,12.15,13.71l-.76.72L612.53,535A1.61,1.61,0,0,0,613.79,533.79Z" transform="translate(-460.96 -503.8)"/>
  <path fill="#757378" d="M890.52,516.77a2.05,2.05,0,0,0-1.5-1.52c.86-1.48,2.27-2.1,4-3.09A5.48,5.48,0,0,1,890.52,516.77Z" transform="translate(-460.96 -503.8)"/>
  <path fill="#3c3a3f" d="M548.32,507.56l-1.86,0a3.48,3.48,0,0,1,1.53-3.65A4.51,4.51,0,0,1,548.32,507.56Z" transform="translate(-460.96 -503.8)"/>
  <path fill="#c4c2c6" d="M625.94,547.5a4.32,4.32,0,0,1,2.25,4.16c-2-.48-2.53-2-3-3.44Z" transform="translate(-460.96 -503.8)"/>
  <path fill="#c4c2c6" d="M767,548a3.42,3.42,0,0,1-2.33,3l0,0c-.27-1.44-.07-2.68,1.41-3.37Z" transform="translate(-460.96 -503.8)"/>
  <path fill="#4a484c" d="M843.76,505.22c-.23-.6-.12-1.35.43-1.41.39-.05.75.75.6,1.39A7.06,7.06,0,0,1,843.76,505.22Z" transform="translate(-460.96 -503.8)"/>
  <path fill="#444247" d="M521.43,520.49l-4.13.46c.37-.93,1.28-1.07,2.07-1.37l2.19.94Z" transform="translate(-460.96 -503.8)"/>
  <path fill="#3e3d41" d="M843.76,505.22a7.06,7.06,0,0,0,1,0c.13.44.48,1-.21,1.2C843.58,506.62,843.68,505.87,843.76,505.22Z" transform="translate(-460.96 -503.8)"/>
  <path fill="#3c3a3f" d="M549.26,511.08a.67.67,0,0,1-.75-.77A1.22,1.22,0,0,1,549.26,511.08Z" transform="translate(-460.96 -503.8)"/>
  <path fill="#0b0b0d" d="M887.5,530.91l1.09,1.28-1.07.93-1-1.14Z" transform="translate(-460.96 -503.8)"/>
  <path fill="#0c0c0e" d="M503.49,532l1.14-1.22,1,1.12-.17.45-.63.68-.23.08Z" transform="translate(-460.96 -503.8)"/>
  <path fill="#3e3d41" d="M780.79,533.85a1.58,1.58,0,0,1-1.29-1.25.71.71,0,0,1,.69-.47l1.07,1.27A.52.52,0,0,1,780.79,533.85Z" transform="translate(-460.96 -503.8)"/>
  <path fill="#3c3a3f" d="M613.79,533.79a1.61,1.61,0,0,1-1.26,1.21.59.59,0,0,1-.5-.49l1.05-1.17A.69.69,0,0,1,613.79,533.79Z" transform="translate(-460.96 -503.8)"/>
  <path fill="#0b0b0d" d="M886.36,529.77l1.14,1.14-1,1.07c-.79,0-1.18-.36-1.15-1.15Z" transform="translate(-460.96 -503.8)"/>
  <path fill="#0c0c0e" d="M504.63,530.79l1.14-1.13,1,1.09,0,.51-.46.23,0,0-.22.45-.49-.05Z" transform="translate(-460.96 -503.8)"/>
  <path fill="#0b0b0d" d="M885.2,528.69l1.16,1.08-1,1.06-1.18-1Z" transform="translate(-460.96 -503.8)"/>
  <path fill="#0c0c0e" d="M505.77,529.66l1.06-1,1.13,1.1-1.18,1Z" transform="translate(-460.96 -503.8)"/>
  <path fill="#c4c2c6" d="M764.68,550.94l-.6.48c0-.13,0-.32.1-.38a1.36,1.36,0,0,1,.47-.13Z" transform="translate(-460.96 -503.8)"/>
  <path fill="#444247" d="M514.92,520.83a1.35,1.35,0,0,1-1.73-.56A1.42,1.42,0,0,1,514.92,520.83Z" transform="translate(-460.96 -503.8)"/>
  <path fill="#444247" d="M511.35,519.81a1.4,1.4,0,0,1-1.62-.75A1.36,1.36,0,0,1,511.35,519.81Z" transform="translate(-460.96 -503.8)"/>
  <path fill="#c4c2c6" d="M821.82,599c0,.56,0,1.12-.05,1.69a.89.89,0,0,1-.73-.39Z" transform="translate(-460.96 -503.8)"/>
  <path fill="#c4c2c6" d="M817.33,601.11c0-.3-.08-.59-.1-.89l1.24.23C818.31,601,817.83,601.1,817.33,601.11Z" transform="translate(-460.96 -503.8)"/>
  <path fill="#fbfafb" d="M568.06,568.49a13.6,13.6,0,1,1,0-27.2,13.6,13.6,0,0,1,0,27.2Z" transform="translate(-460.96 -503.8)"/>
  <path fill="#edeced" d="M521.43,520.49l.13,0A86.38,86.38,0,0,1,540.7,514c1.08.46,2.91-1.11,3.28.88.27,1.41-.2,3.51-1.83,3.68-6.32.64-12,4.49-18.58,3.61C522.48,522.07,521.19,522.26,521.43,520.49Z" transform="translate(-460.96 -503.8)"/>
  <path fill="#edeced" d="M565.27,579.6c-1.77,0-2.86-.78-3-2.55a2.66,2.66,0,0,1,2.38-3.18A2.76,2.76,0,0,1,568,576.7,2.68,2.68,0,0,1,565.27,579.6Z" transform="translate(-460.96 -503.8)"/>
  <path fill="#d6dcde" d="M506.78,530.75l1.18-1a10.38,10.38,0,0,1,1.38-.84,7.36,7.36,0,0,1,1.43-.24c0,.5.2,1.26,0,1.46-1.24,1-2.53,2.12-4.36,1.38l.46-.23Z" transform="translate(-460.96 -503.8)"/>
  <polygon fill="#d6dcde" points="43.63 29.31 43.86 29.23 43.54 29.59 43.63 29.31"/>
  <path fill="#d6dcde" d="M505.62,531.91l.49.05.22-.45a.79.79,0,0,0-.88.85Z" transform="translate(-460.96 -503.8)"/>
  <path fill="#faf9fa" d="M824,568.49a13.6,13.6,0,1,1,13.82-13.61A13.63,13.63,0,0,1,824,568.49Z" transform="translate(-460.96 -503.8)"/>
  <path fill="#edeced" d="M851.47,514.07c6.76,1.66,13.51,3.34,19.48,7.15-3,1.86-6.13,1.24-9.15.5-3.63-.9-7.1-2.4-10.87-2.81a5.21,5.21,0,0,1-.55-.08c-2.18-.49-2.59-2.35-2.27-3.94C848.48,513.05,850.34,514.45,851.47,514.07Z" transform="translate(-460.96 -503.8)"/>
  <path fill="#edeced" d="M827.05,573.76c1.66.29,2.81,1.19,2.81,2.91a2.65,2.65,0,0,1-3.24,2.88,2.59,2.59,0,0,1-2.52-3C824.23,574.78,825.39,574,827.05,573.76Z" transform="translate(-460.96 -503.8)"/>
  <path fill="#c4c2c6" d="M884.17,529.79l1.18,1c0,.79.36,1.17,1.15,1.15l1,1.14c-2.22,1-3-1.55-4.8-2-.73-.16-2.67-.81-1.66-2.23C882.37,527.13,883.1,529.51,884.17,529.79Z" transform="translate(-460.96 -503.8)"/>
</svg>
