<svg id="Layer_26" xmlns="http://www.w3.org/2000/svg" viewBox="0 0 431.87 76.84">
  <path fill="#0e0e10" d="M771.87,583.24c-3.56.31-7,1.69-10.72,1-.95-1.43.26-2.42.76-3.5,5.06-10.93,12.43-20.38,19.43-30.07a10.46,10.46,0,0,1,5.57-3.65c10.3-3.54,21-5.15,31.74-6.22,14.71-1.45,29.37-3.52,44.17-4.21,6.46-.3,12.87-.61,19.31.2a10.91,10.91,0,0,1,5.28,1.9c9.06,6.66,16.53,15,25,23.9l-19.68,3.59c-5.11-4.53-9.51-9.79-14.91-14-1.54-1.2-2.84-2.25-5-2.12-7.39.43-14.79.71-22.19,1-2.16.07-3,.84-2.78,3.12a71.62,71.62,0,0,1,.24,10.25c-.61,10.6-5.51,18.73-14.57,24.35-1.9,1.18-3.24,1.63-5.44-.08-3.57-2.77-7.79-1.7-10.06,2.15-1,1.72-1.8,2.55-3.93,2-12.29-2.94-21.29-9.6-25.6-21.88a80.85,80.85,0,0,1-2.62-10.34c-4.32,5.35-6.63,10.94-9.66,16.09C774.89,579,774.21,581.66,771.87,583.24Zm46-15a10.09,10.09,0,0,0,9.84-14c-1.46-3.54-2.48-4.15-6.46-3.75-2.45.24-4.92.39-7.34.82-4.77.84-6.27,2.93-5.86,7.76A10,10,0,0,0,817.86,568.27Zm2,7.94a2.2,2.2,0,0,0,2-2.79,2.1,2.1,0,0,0-2.32-1.94,2.22,2.22,0,0,0-2.36,2.52C817.34,575.57,818.38,576.23,819.91,576.21Z" transform="translate(-480.55 -520.99)"/>
  <path fill="#0d0d10" d="M499.43,566.14l-18.88-3.3c.43-2.47,1.95-3.42,3.11-4.56,6.35-6.28,12.26-13,19.4-18.46a15.68,15.68,0,0,1,7.77-3.09c10.49-1.41,20.89,0,31.27.78,12.86,1,25.67,2.65,38.47,4.25,8.47,1.07,16.88,2.52,25,5.45,1.83.66,3.61,1.26,4.77,2.89,7.38,10.35,15.26,20.39,20.53,32.09a14.1,14.1,0,0,1,.5,1.92c-4.56.91-8.66-.62-12.81-1.55A147.46,147.46,0,0,0,606.2,560.3c-.61,2.91-.93,4.78-1.4,6.61-3.6,14-12.49,22.59-26.6,25.83-1.93.45-3,.19-4.13-1.67-2.53-4.2-6.42-5.08-10.42-2.2-1.75,1.26-2.89,1.28-4.5.29-6.73-4.1-11.64-9.61-14-17.3-1.63-5.4-1.43-10.88-1.14-16.39.22-4.24.19-4.28-4.22-4.49-6.45-.31-12.9-.49-19.34-.88a8.75,8.75,0,0,0-6.65,2.31C508.7,556.65,504.34,561.67,499.43,566.14Zm84.66-8.26c-.1-4.06-1.35-5.64-5.53-6.4-3-.55-6-.68-9-1.18-2.32-.39-3.55.83-4.59,2.54a10.07,10.07,0,0,0,.83,11.68,10.37,10.37,0,0,0,11.81,3.16A10.53,10.53,0,0,0,584.09,557.88Zm-9.18,16a2.56,2.56,0,0,0-2.37-2.36,2.06,2.06,0,0,0-2.37,1.83c-.26,1.44.2,2.65,1.84,2.85C573.48,576.34,574.48,575.61,574.91,573.85Z" transform="translate(-480.55 -520.99)"/>
  <path fill="#dbe1e2" d="M771.87,583.24c2.34-1.58,3-4.28,4.35-6.53,3-5.15,5.34-10.74,9.66-16.09A80.85,80.85,0,0,0,788.5,571c4.31,12.28,13.31,18.94,25.6,21.88,2.13.51,2.92-.32,3.93-2,2.27-3.85,6.49-4.92,10.06-2.15,2.2,1.71,3.54,1.26,5.44.08,9.06-5.62,14-13.75,14.57-24.35a71.62,71.62,0,0,0-.24-10.25c-.19-2.28.62-3,2.78-3.12,7.4-.25,14.8-.53,22.19-1,2.16-.13,3.46.92,5,2.12,5.4,4.24,9.8,9.5,14.91,14-2.32,7.34-5.72,14-11.35,19.47a31.1,31.1,0,0,1-17.09,8.47c-8.95,1.4-18.08,1.71-27.13,2.51-4.14.37-8.21,1.22-12.44,1.18-11.44-.11-22.78-1.45-33.56-5C784.44,590.6,777.46,588.11,771.87,583.24Z" transform="translate(-480.55 -520.99)"/>
  <path fill="#dae1e2" d="M499.43,566.14c4.91-4.47,9.27-9.49,14.41-13.73a8.75,8.75,0,0,1,6.65-2.31c6.44.39,12.89.57,19.34.88,4.41.21,4.44.25,4.22,4.49-.29,5.51-.49,11,1.14,16.39,2.32,7.69,7.23,13.2,14,17.3,1.61,1,2.75,1,4.5-.29,4-2.88,7.89-2,10.42,2.2,1.13,1.86,2.2,2.12,4.13,1.67,14.11-3.24,23-11.81,26.6-25.83.47-1.83.79-3.7,1.4-6.61a147.46,147.46,0,0,1,12.32,22.26c-.09,2.61-2.3,3.52-4,4.36-11.16,5.41-22.69,9.3-35.31,9.93-4.88.25-9.87,1.44-14.7.76-6.77-1-13.63-.44-20.34-1.86-4.26-.89-8.66-.6-13-1.09C517,593.07,507.8,585.44,502,573,501,570.79,499.32,568.79,499.43,566.14Z" transform="translate(-480.55 -520.99)"/>
  <path fill="#4e4c51" d="M626.23,555.21c-3-4.18-6.09-8.24-8.85-12.55-3.64-5.69-8.91-8.63-15.29-9.9-10.05-2-20.22-3.26-30.4-4.37-16.41-1.78-32.86-3.19-49.25-5.11a15.83,15.83,0,0,0-13.06,4.05c-3.7,3.25-7.31,6.61-11,9.93l-1.81-.18A80.17,80.17,0,0,1,508.4,525.5c3.93-3.27,8.32-5,13.67-4.39,25.86,3,51.86,4.87,77.6,9,8.72,1.41,15.85,4.94,20.49,12.81,2,3.43,4.71,6.45,6.36,10.12C626.42,553.79,626.33,554.5,626.23,555.21Z" transform="translate(-480.55 -520.99)"/>
  <path fill="#4d4b50" d="M894.3,537.92c-3.78-3.45-7.52-6.95-11.35-10.34a16.51,16.51,0,0,0-13.52-4.3c-22.06,2.31-44.13,4.42-66.12,7.27a109,109,0,0,0-16.19,3,20.61,20.61,0,0,0-11.84,8.26c-2.57,3.74-5.32,7.37-8,11l-1.13-1.06c2.12-4,5-7.58,7.56-11.36a21.85,21.85,0,0,1,13.31-9c9.21-2.33,18.65-3.33,28-4.42,17.14-2,34.32-3.53,51.44-5.65,7.51-.92,13.83.6,19.23,6,3.21,3.19,6.93,5.87,9.37,9.8Z" transform="translate(-480.55 -520.99)"/>
  <path fill="#7e7b81" d="M496.61,537.08l1.81.18a11.85,11.85,0,0,1-4.83,4.3C493.74,539.46,495.09,538.22,496.61,537.08Z" transform="translate(-480.55 -520.99)"/>
  <path fill="#848186" d="M896.37,538.31a3.84,3.84,0,0,1,2.45,3.66c-2.14-.56-3.09-2-4-3.54Z" transform="translate(-480.55 -520.99)"/>
  <path fill="#838085" d="M767.29,552.83a6.26,6.26,0,0,1-3.5,4.4c0-2.41,1.14-4,2.37-5.46Z" transform="translate(-480.55 -520.99)"/>
  <path fill="#9b999d" d="M626.23,555.21c.1-.71.19-1.42.29-2.13a12.08,12.08,0,0,1,1.33,1.71c.38.71,1.29,1.79-.06,2.2C626.8,557.29,626.18,556.32,626.23,555.21Z" transform="translate(-480.55 -520.99)"/>
  <path fill="#4d4b50" d="M896.37,538.31l-1.53.12a.73.73,0,0,1-.54-.51l.81-.84A1.74,1.74,0,0,1,896.37,538.31Z" transform="translate(-480.55 -520.99)"/>
  <path fill="#f8f8f8" d="M817.86,568.27a10,10,0,0,1-9.82-9.15c-.41-4.83,1.09-6.92,5.86-7.76,2.42-.43,4.89-.58,7.34-.82,4-.4,5,.21,6.46,3.75A10.09,10.09,0,0,1,817.86,568.27Z" transform="translate(-480.55 -520.99)"/>
  <path fill="#e7e6e7" d="M819.9,576.21c-1.52,0-2.56-.64-2.66-2.21a2.22,2.22,0,0,1,2.36-2.52,2.1,2.1,0,0,1,2.32,1.94A2.2,2.2,0,0,1,819.9,576.21Z" transform="translate(-480.55 -520.99)"/>
  <path fill="#f9f8f9" d="M584.09,557.88a10.53,10.53,0,0,1-6.48,9.8,10.37,10.37,0,0,1-11.81-3.16,10.07,10.07,0,0,1-.83-11.68c1-1.71,2.27-2.93,4.59-2.54,3,.5,6,.63,9,1.18C582.74,552.24,584,553.82,584.09,557.88Z" transform="translate(-480.55 -520.99)"/>
  <path fill="#edeced" d="M574.91,573.85c-.43,1.76-1.43,2.49-2.9,2.32-1.64-.2-2.1-1.41-1.84-2.85a2.06,2.06,0,0,1,2.37-1.83A2.56,2.56,0,0,1,574.91,573.85Z" transform="translate(-480.55 -520.99)"/>
</svg>
