<svg id="Layer_34" data-name="Layer 34" xmlns="http://www.w3.org/2000/svg" viewBox="0 0 344.35 31.06"><defs><style>.cls-1{fill:#0f0e11;}.cls-2{fill:#0e0d10;}.cls-3{fill:#434145;}.cls-4{fill:#4f4d52;}.cls-5{fill:#464449;}.cls-6{fill:#37363a;}.cls-7{fill:#424044;}.cls-8{fill:#3d3b40;}.cls-9{fill:#b0aeb2;}.cls-10{fill:#848186;}.cls-11{fill:#8f8c91;}.cls-12{fill:#a09da2;}.cls-13{fill:#cdcbce;}.cls-14{fill:#89878c;}.cls-15{fill:#bab8bb;}.cls-16{fill:#fff;}</style></defs><path class="cls-1" d="M768.09,493.79a14.11,14.11,0,0,1-6.83-.31,1,1,0,0,0-1.18-.83h0l.1-3.42c0-.74,0-1.49-.05-2.23a1.89,1.89,0,0,0,1-2.36c1-.22,2.27-.19,2-1.82l1.2-.36c.51,1.56,1.54,2.35,2.84,1,2.33-2.34,5.34-4.1,6.64-7.37.67-.41,1.45-.74,1.2-1.77l-.09,0a1.78,1.78,0,0,0,2.47-1.21l1-.95c.78-.11,1.61-.17,1.24-1.34l-.1.08a1.56,1.56,0,0,0,2.38-1.18l-.07.05c.8,0,1.57-.06,1.22-1.23l-.1.08c1.19.4,2.08.19,2.39-1.18l-.1.06c.74-.11,1.86.17,1.25-1.26l-.14.1c1.73.63,2.84.42,2.43-1.82l-.15.08c.27.27.64.81.8.75,9.62-3.22,19.27-.89,28.79.23,15.84,1.87,31.58,4.5,47.36,6.82a19.34,19.34,0,0,1,2.61,1.11c-5,.61-8.79,1.3-12.63,1.51-12.88.69-24.94,4.69-37,8.79-2.5.85-4.92,2-7.63,2.18a1.4,1.4,0,0,0-1.7.6l-2.8.59a1.49,1.49,0,0,0-1.77.6l-1.9.39a1.17,1.17,0,0,0-1.53.62l-2.92.6a1.32,1.32,0,0,0-1.65.58l-3.92.68a1.4,1.4,0,0,0-1.8.47l-4,.55a2.31,2.31,0,0,0-2.8.71l-3.85.54c-2.57-.43-5.15-1.05-7.58.53l-2.3.1C769.52,492.63,768.78,492.79,768.09,493.79Z" transform="translate(-523.83 -463)"/><path class="cls-2" d="M581.22,486.14l-2.84-.66a1.13,1.13,0,0,0-1.5-.66l-1.93-.48a1.11,1.11,0,0,0-1.47-.68H573l-.38-.24a2.14,2.14,0,0,0-2.55-.94h-.47l-.41-.23a2.14,2.14,0,0,0-2.58-.9l-2-.46a1.13,1.13,0,0,0-1.5-.66l-1.93-.46a1.2,1.2,0,0,0-1.54-.66l-1.89-.43a1.36,1.36,0,0,0-1.68-.61l-2.89-.59a1.3,1.3,0,0,0-1.7-.53l-4-.59a2.18,2.18,0,0,0-2.77-.62l-1.8-.23a4.77,4.77,0,0,0-5.74-.48l-4.55-.67V472l1.64-.32c1.86.46,3.68.68,5.22-.82l1.66-.3c1.85.45,3.65.67,5.19-.81l1.78-.27a2.25,2.25,0,0,0,2.81-.64l4.09-.47c2.15.29,4.32.73,6.18-.92L564,467a2.32,2.32,0,0,0,3-.46l6.14-.64c2.21.49,4.41.89,6.4-.69l4-.4c1.45.53,2.85.67,4.07-.53l2.3-.09c3.07,1.68,6.35.6,9.54.74l1.92.55c.23.87.84,1.06,1.64.9l1.71,0-.08-.07c.35,1.33,1.36,1.32,2.42,1.21l-.12-.06c.28,1.44,1,1.91,2.41,1.18l-.12-.08c-.52,1.33.44,1.2,1.23,1.24l-.09-.07c-.11.93.44,1.18,1.21,1.2l-.06-.06a2,2,0,0,0,2.38,1.26l.95,1a1.22,1.22,0,0,0,1.31,1.22l-.06,0c.27,1,1.09,1.27,1.94,1.53l1.56,1.38c1.05,3,3.72,4.6,5.84,6.66,1,1,2.09,0,3.1-.38,1,.67,1.06,2.25,2.5,2.45,1.33,2,.63,4.28,1.06,6.4a.73.73,0,0,1-.76.41,1.58,1.58,0,0,0-1.49.85c-3.42.79-6.83.25-10.24-.11-.38-.61-.77-.68-1.2-.05h-2.24c-1.27-1.21-2.67-1-4.12-.41l-5-.74a1.28,1.28,0,0,0-1.69-.52l-4-.59a2.08,2.08,0,0,0-2.65-.68l-3.05-.46a1.32,1.32,0,0,0-1.69-.56l-2.88-.61a1.21,1.21,0,0,0-1.57-.63l-1.87-.39a2.09,2.09,0,0,0-2.57-.83l-2-.37A1.38,1.38,0,0,0,581.22,486.14Z" transform="translate(-523.83 -463)"/><path class="cls-3" d="M632,492.39c-.43-2.12.27-4.43-1.06-6.4-.09-1.67-.65-3-2.35-3.67l.08.08c-.08-.74-.23-1.42-1.24-1.23l.08.1a1.8,1.8,0,0,0-1.2-2.4l.07.1c0-.78-.36-1.27-1.23-1.21l.06.07c.08-.88-.22-1.37-1.2-1.19l0,0c.13-.92-.11-1.44-1.17-1.16h0a5.1,5.1,0,0,0-4-4.5l-1.44-1.14c-.12-2.53-3.17-3.17-3.61-5.6,1.63-1,2.42.46,3.23,1.21a125.28,125.28,0,0,1,11,11.61c.64.77,1.34,2.8,2.85.72l0,0c-1.31,2.19-.47,3.67,2.29,4l-.07.42c-.75,2.51,1.37,4.08,2,6.12C636.23,491.62,635.9,492.12,632,492.39Z" transform="translate(-523.83 -463)"/><path class="cls-4" d="M759,482.33c-.43-.8-1.15-1.1-1.68-.34-1,1.37-1.73,2.88-2.58,4.34-.42.72-1,1.09-1.82.67s-.55-.94-.29-1.43C756,479.3,759.31,473,765,468.38c.07-.06.3.08.83.23-2.37,3.62-4.72,7.12-7,10.69-.59.94-2.09,2.12.06,3.11Z" transform="translate(-523.83 -463)"/><path class="cls-5" d="M633.12,482.21l.07-.42c1.18-2.44.1-3.6-2.29-4l0,0c.89-.5.54-1.1.15-1.71-1.08-1.68-2.14-3.35-3.21-5l1.92-.15a63.67,63.67,0,0,1,10.3,16.49C635.92,486.78,636.61,481.87,633.12,482.21Z" transform="translate(-523.83 -463)"/><path class="cls-6" d="M617.5,469.87l1.44,1.14a1.24,1.24,0,0,0-.15,1.91c.63.8,1,1.55,0,2.32a3.47,3.47,0,0,0-2.75-.89l.06,0c.1-1-.47-1.24-1.31-1.22l-.95-1c-.33-1.31-1.24-1.49-2.38-1.26l.06.06c.27-1.07-.38-1.22-1.21-1.2l.09.07c.06-.88-.48-1.17-1.23-1.24l.12.08a2,2,0,0,0-2.41-1.18l.12.06a1.59,1.59,0,0,0-2.42-1.21l.08.07c.54-1.17-.62-1.32-1.12-1.87h.08c-.2-1.24.5-1.9,1.5-1.35,2.57,1.43,5,3.1,7.49,4.68C614.1,468.86,615.39,470.38,617.5,469.87Z" transform="translate(-523.83 -463)"/><path class="cls-7" d="M773.82,476.12c-1.3,3.27-4.31,5-6.64,7.37-1.3,1.32-2.33.53-2.84-1,.38-.62.73-1.25,1.15-1.84,1.59-2.26,1.6-2.26-1.11-3.22.08-1.58,1.24-2.35,2.36-3.14l1.84.32c-.08.61-1.08,1.17-.31,1.79s1.23-.26,1.63-.7a4,4,0,0,0,.5-1.36l0,0c1.12.48,1.63-.69,2.48-.94l1.16,1.11C773.93,475.05,773.88,475.59,773.82,476.12Z" transform="translate(-523.83 -463)"/><path class="cls-7" d="M788.61,464.68l.15-.08c-.86.53-2,.77-2.43,1.82l.14-.1c-.75.09-1.37.3-1.25,1.26l.1-.06a1.81,1.81,0,0,0-2.39,1.18l.1-.08c-.77.05-1.32.31-1.22,1.23l.07-.05A2,2,0,0,0,779.5,471l.1-.08a1.28,1.28,0,0,0-1.24,1.34l-1,.95a2.19,2.19,0,0,0-2.47,1.21l.09,0a3.58,3.58,0,0,0-1,.17l-1.16-1.11c.43-1.22,3.11-1.5,1.51-3.58l1.57-1.21c1.44,1.16,2.39-.07,3.44-.73,2.39-1.51,4.73-3.11,7.17-4.54C787.83,462.57,788.61,463.14,788.61,464.68Z" transform="translate(-523.83 -463)"/><path class="cls-8" d="M775.91,468.62l-1.57,1.21c-2.22.72-4,1.86-4,4.52l0,0c-.76-.91-1.23.08-1.82.27l-1.84-.32a46.6,46.6,0,0,1,10.89-10.71C778.36,466.05,775.64,466.83,775.91,468.62Z" transform="translate(-523.83 -463)"/><path class="cls-3" d="M599.37,465c-3.19-.14-6.47.94-9.54-.74C593.05,463.88,596.32,463,599.37,465Z" transform="translate(-523.83 -463)"/><path class="cls-7" d="M763.14,482.82c.23,1.63-1,1.6-2,1.82a2.46,2.46,0,0,0-1,2.36c0,.74,0,1.49.05,2.23a2.58,2.58,0,0,1-2.57-1.7c-.31-1.94,2.59-3,1.4-5.2l-.07.08c1.61,1,1.47-1.88,2.89-1.33C763.49,480.76,762.11,482.68,763.14,482.82Z" transform="translate(-523.83 -463)"/><path class="cls-3" d="M532.65,472v2.37c-1.9.45-3.76-.05-5.63-.19.36-.66.73-1.31,1.1-2Z" transform="translate(-523.83 -463)"/><path class="cls-8" d="M757.62,487.53a2.58,2.58,0,0,0,2.57,1.7c0,1.14-.07,2.28-.1,3.42C755.7,492.25,755.57,492,757.62,487.53Z" transform="translate(-523.83 -463)"/><path class="cls-9" d="M763.14,482.82c-1-.14.35-2.06-1.3-1.74l.34,0c.86.27,1.33,0,1.27-.95s-.67-.59-1.15-.61l-.12-.44.37-.26c.36.77,1,1.12,1.71.67a1.21,1.21,0,0,0,.27-1.86l-.15-.2c2.71,1,2.7,1,1.11,3.22-.42.59-.77,1.22-1.15,1.84Z" transform="translate(-523.83 -463)"/><path class="cls-10" d="M528.12,472.22c-.37.66-.74,1.31-1.1,2-.72,0-1.43.06-2.14,0a1,1,0,0,1-1-1c0-.65.51-.91,1.08-.94C526,472.22,527.05,472.23,528.12,472.22Z" transform="translate(-523.83 -463)"/><path class="cls-10" d="M629.79,470.92l-1.92.15c-.27-.24-.53-.49-.81-.72-.58-.5-1.27-1.08-.76-1.87.64-1,1.39-.17,1.85.26A15.53,15.53,0,0,1,629.79,470.92Z" transform="translate(-523.83 -463)"/><path class="cls-3" d="M579.5,465.24c-2,1.58-4.19,1.18-6.4.69C575.14,464.88,577.32,465.07,579.5,465.24Z" transform="translate(-523.83 -463)"/><path class="cls-3" d="M537.2,475.05a4.77,4.77,0,0,1,5.74.48A12.68,12.68,0,0,1,537.2,475.05Z" transform="translate(-523.83 -463)"/><path class="cls-3" d="M561.22,467.46c-1.86,1.65-4,1.21-6.18.92C557,467.1,559.1,467.36,561.22,467.46Z" transform="translate(-523.83 -463)"/><path class="cls-3" d="M546.36,469.76c-1.54,1.48-3.34,1.26-5.19.81C542.76,469.4,544.57,469.63,546.36,469.76Z" transform="translate(-523.83 -463)"/><path class="cls-3" d="M539.51,470.87c-1.54,1.5-3.36,1.28-5.22.82C535.9,470.55,537.71,470.73,539.51,470.87Z" transform="translate(-523.83 -463)"/><path class="cls-8" d="M772.65,493.53c2.43-1.58,5-1,7.58-.53C777.77,494.15,775.2,493.77,772.65,493.53Z" transform="translate(-523.83 -463)"/><path class="cls-3" d="M603.6,464.55h-.08a1.15,1.15,0,0,0-.59,1.85c-.8.16-1.41,0-1.64-.9C602.08,465.24,603.06,465.41,603.6,464.55Z" transform="translate(-523.83 -463)"/><path class="cls-8" d="M768.09,493.79c.69-1,1.43-1.16,2.26-.16A2.17,2.17,0,0,1,768.09,493.79Z" transform="translate(-523.83 -463)"/><path class="cls-3" d="M587.53,464.31c-1.22,1.2-2.62,1.06-4.07.53A4.94,4.94,0,0,1,587.53,464.31Z" transform="translate(-523.83 -463)"/><path class="cls-3" d="M612,493.08c1.45-.6,2.85-.8,4.12.41A5.25,5.25,0,0,1,612,493.08Z" transform="translate(-523.83 -463)"/><path class="cls-7" d="M764.53,477.6a1.21,1.21,0,0,1-.27,1.86c-.73.45-1.35.1-1.71-.67C763.3,478.54,763.23,476.94,764.53,477.6Z" transform="translate(-523.83 -463)"/><path class="cls-3" d="M551,468.85a2.25,2.25,0,0,1-2.81.64A2.65,2.65,0,0,1,551,468.85Z" transform="translate(-523.83 -463)"/><path class="cls-3" d="M566.64,481.37a2.14,2.14,0,0,1,2.58.9A2.4,2.4,0,0,1,566.64,481.37Z" transform="translate(-523.83 -463)"/><path class="cls-3" d="M570.1,482.49a2.14,2.14,0,0,1,2.55.94A2.38,2.38,0,0,1,570.1,482.49Z" transform="translate(-523.83 -463)"/><path class="cls-3" d="M567,466.57a2.32,2.32,0,0,1-3,.46A3.17,3.17,0,0,1,567,466.57Z" transform="translate(-523.83 -463)"/><path class="cls-3" d="M585,487.07a2.09,2.09,0,0,1,2.57.83A2.41,2.41,0,0,1,585,487.07Z" transform="translate(-523.83 -463)"/><path class="cls-3" d="M544.74,475.76a2.18,2.18,0,0,1,2.77.62A2.61,2.61,0,0,1,544.74,475.76Z" transform="translate(-523.83 -463)"/><path class="cls-3" d="M598.58,490.55a2.08,2.08,0,0,1,2.65.68A2.49,2.49,0,0,1,598.58,490.55Z" transform="translate(-523.83 -463)"/><path class="cls-8" d="M784.08,492.46a2.31,2.31,0,0,1,2.8-.71A2.66,2.66,0,0,1,784.08,492.46Z" transform="translate(-523.83 -463)"/><path class="cls-3" d="M563.17,480.25a1.13,1.13,0,0,1,1.5.66A1.2,1.2,0,0,1,563.17,480.25Z" transform="translate(-523.83 -463)"/><path class="cls-7" d="M762.3,479.49c.48,0,1.1-.19,1.15.61s-.41,1.22-1.27.95A.94.94,0,0,1,762.3,479.49Z" transform="translate(-523.83 -463)"/><path class="cls-3" d="M573.48,483.66a1.11,1.11,0,0,1,1.47.68A1.18,1.18,0,0,1,573.48,483.66Z" transform="translate(-523.83 -463)"/><path class="cls-3" d="M551.54,477a1.3,1.3,0,0,1,1.7.53A1.36,1.36,0,0,1,551.54,477Z" transform="translate(-523.83 -463)"/><path class="cls-3" d="M581.22,486.14a1.38,1.38,0,0,1,1.73.56A1.4,1.4,0,0,1,581.22,486.14Z" transform="translate(-523.83 -463)"/><path class="cls-8" d="M809.22,486.67a1.4,1.4,0,0,1,1.7-.6A1.37,1.37,0,0,1,809.22,486.67Z" transform="translate(-523.83 -463)"/><path class="cls-3" d="M556.13,478.09a1.36,1.36,0,0,1,1.68.61A1.36,1.36,0,0,1,556.13,478.09Z" transform="translate(-523.83 -463)"/><path class="cls-8" d="M804.65,487.86a1.49,1.49,0,0,1,1.77-.6A1.48,1.48,0,0,1,804.65,487.86Z" transform="translate(-523.83 -463)"/><path class="cls-3" d="M589.39,488.29a1.21,1.21,0,0,1,1.57.63A1.23,1.23,0,0,1,589.39,488.29Z" transform="translate(-523.83 -463)"/><path class="cls-8" d="M801.22,488.87a1.17,1.17,0,0,1,1.53-.62A1.23,1.23,0,0,1,801.22,488.87Z" transform="translate(-523.83 -463)"/><path class="cls-3" d="M593.84,489.53a1.32,1.32,0,0,1,1.69.56A1.32,1.32,0,0,1,593.84,489.53Z" transform="translate(-523.83 -463)"/><path class="cls-3" d="M576.88,484.82a1.13,1.13,0,0,1,1.5.66A1.19,1.19,0,0,1,576.88,484.82Z" transform="translate(-523.83 -463)"/><path class="cls-8" d="M790.93,491.2a1.4,1.4,0,0,1,1.8-.47A1.5,1.5,0,0,1,790.93,491.2Z" transform="translate(-523.83 -463)"/><path class="cls-3" d="M605.27,491.82a1.28,1.28,0,0,1,1.69.52A1.35,1.35,0,0,1,605.27,491.82Z" transform="translate(-523.83 -463)"/><path class="cls-3" d="M618.33,493.49c.43-.63.82-.56,1.2.05Z" transform="translate(-523.83 -463)"/><path class="cls-3" d="M629.77,493.65a1.58,1.58,0,0,1,1.49-.85A1.12,1.12,0,0,1,629.77,493.65Z" transform="translate(-523.83 -463)"/><path class="cls-8" d="M760.08,492.65a1,1,0,0,1,1.18.83C760.54,493.66,760.22,493.28,760.08,492.65Z" transform="translate(-523.83 -463)"/><path class="cls-3" d="M559.7,479.13a1.2,1.2,0,0,1,1.54.66A1.22,1.22,0,0,1,559.7,479.13Z" transform="translate(-523.83 -463)"/><path class="cls-8" d="M796.65,490.05a1.32,1.32,0,0,1,1.65-.58A1.3,1.3,0,0,1,796.65,490.05Z" transform="translate(-523.83 -463)"/><path class="cls-11" d="M774.93,474.4a2.19,2.19,0,0,1,2.47-1.21A1.78,1.78,0,0,1,774.93,474.4Z" transform="translate(-523.83 -463)"/><path class="cls-12" d="M779.5,471a2,2,0,0,1,2.38-1.18A1.56,1.56,0,0,1,779.5,471Z" transform="translate(-523.83 -463)"/><path class="cls-9" d="M782.93,468.7a1.81,1.81,0,0,1,2.39-1.18C785,468.89,784.12,469.1,782.93,468.7Z" transform="translate(-523.83 -463)"/><path class="cls-13" d="M786.33,466.42c.48-1.05,1.57-1.29,2.43-1.82C789.17,466.84,788.06,467.05,786.33,466.42Z" transform="translate(-523.83 -463)"/><path class="cls-8" d="M760.14,487a2.46,2.46,0,0,1,1-2.36A1.89,1.89,0,0,1,760.14,487Z" transform="translate(-523.83 -463)"/><path class="cls-12" d="M778.36,472.24a1.28,1.28,0,0,1,1.24-1.34C780,472.07,779.14,472.13,778.36,472.24Z" transform="translate(-523.83 -463)"/><path class="cls-11" d="M774,474.52a3.58,3.58,0,0,1,1-.17c.25,1-.53,1.36-1.2,1.77C773.88,475.59,773.93,475.05,774,474.52Z" transform="translate(-523.83 -463)"/><path class="cls-13" d="M785.22,467.58c-.12-1,.5-1.17,1.25-1.26C787.08,467.75,786,467.47,785.22,467.58Z" transform="translate(-523.83 -463)"/><path class="cls-9" d="M781.81,469.85c-.1-.92.45-1.18,1.22-1.23C783.38,469.79,782.61,469.83,781.81,469.85Z" transform="translate(-523.83 -463)"/><path class="cls-6" d="M628.46,483.54c-1,.4-2.06,1.4-3.1.38-2.12-2.06-4.79-3.66-5.84-6.66-.34-.69-.67-1.39-1-2.08,1.61-1.93,2.87.91,4.38.33h0c-.26,1,.13,1.43,1.17,1.16l0,0c-.23,1.05.11,1.5,1.2,1.19l-.06-.07c-.19,1,0,1.65,1.23,1.21l-.07-.1c-.72,1.36.31,1.84,1.2,2.4l-.08-.1c.11.72.45,1.2,1.24,1.23l-.08-.08Z" transform="translate(-523.83 -463)"/><path class="cls-12" d="M628.46,483.54l.15-1.22c1.7.64,2.26,2,2.35,3.67C629.52,485.79,629.43,484.21,628.46,483.54Z" transform="translate(-523.83 -463)"/><path class="cls-9" d="M606.86,467.51a2,2,0,0,1,2.41,1.18C607.91,469.42,607.14,469,606.86,467.51Z" transform="translate(-523.83 -463)"/><path class="cls-13" d="M604.56,466.36a1.59,1.59,0,0,1,2.42,1.21C605.92,467.68,604.91,467.69,604.56,466.36Z" transform="translate(-523.83 -463)"/><path class="cls-12" d="M611.44,470.92c1.14-.23,2-.05,2.38,1.26A2,2,0,0,1,611.44,470.92Z" transform="translate(-523.83 -463)"/><path class="cls-14" d="M616,474.35a3.47,3.47,0,0,1,2.75.89h-.14l-.68.66C617.11,475.62,616.29,475.34,616,474.35Z" transform="translate(-523.83 -463)"/><path class="cls-12" d="M610.29,469.78c.83,0,1.48.13,1.21,1.2C610.73,471,610.18,470.71,610.29,469.78Z" transform="translate(-523.83 -463)"/><path class="cls-14" d="M614.77,473.18c.84,0,1.41.24,1.31,1.22A1.22,1.22,0,0,1,614.77,473.18Z" transform="translate(-523.83 -463)"/><path class="cls-14" d="M618.52,475.18c.33.69.66,1.39,1,2.08L618,475.88l.66-.65Z" transform="translate(-523.83 -463)"/><path class="cls-13" d="M602.93,466.41a1.15,1.15,0,0,1,.59-1.85c.5.55,1.66.7,1.12,1.87Z" transform="translate(-523.83 -463)"/><path class="cls-9" d="M609.15,468.61c.75.07,1.29.36,1.23,1.24C609.59,469.81,608.63,469.94,609.15,468.61Z" transform="translate(-523.83 -463)"/><path class="cls-15" d="M618.52,475.18l.1.05h.15c1-.77.65-1.52,0-2.32a1.24,1.24,0,0,1,.15-1.91,5.1,5.1,0,0,1,4,4.5C621.39,476.09,620.13,473.25,618.52,475.18Z" transform="translate(-523.83 -463)"/><path class="cls-16" d="M630.9,477.78c2.39.41,3.47,1.57,2.29,4C630.43,481.45,629.59,480,630.9,477.78Z" transform="translate(-523.83 -463)"/><path class="cls-15" d="M627.53,481.27c-.89-.56-1.92-1-1.2-2.4A1.8,1.8,0,0,1,627.53,481.27Z" transform="translate(-523.83 -463)"/><path class="cls-15" d="M628.69,482.4c-.79,0-1.13-.51-1.24-1.23C628.46,481,628.61,481.66,628.69,482.4Z" transform="translate(-523.83 -463)"/><path class="cls-15" d="M624.07,476.68c-1,.27-1.43-.12-1.17-1.16C624,475.24,624.2,475.76,624.07,476.68Z" transform="translate(-523.83 -463)"/><path class="cls-15" d="M625.23,477.83c-1.09.31-1.43-.14-1.2-1.19C625,476.46,625.31,477,625.23,477.83Z" transform="translate(-523.83 -463)"/><path class="cls-15" d="M626.4,479c-1.24.44-1.42-.19-1.23-1.21C626,477.7,626.36,478.19,626.4,479Z" transform="translate(-523.83 -463)"/><path class="cls-13" d="M770.35,474.35c0-2.66,1.77-3.8,4-4.52,1.6,2.08-1.08,2.36-1.51,3.58C772,473.66,771.47,474.83,770.35,474.35Z" transform="translate(-523.83 -463)"/><path class="cls-13" d="M768.58,474.58c.59-.19,1.06-1.18,1.82-.27a4,4,0,0,1-.5,1.36c-.4.44-.87,1.31-1.63.7S768.5,475.19,768.58,474.58Z" transform="translate(-523.83 -463)"/></svg>