<svg id="Layer_35" data-name="Layer 35" xmlns="http://www.w3.org/2000/svg" viewBox="0 0 334.97 36.39"><defs><style>.cls-1{fill:#100f12;}.cls-2{fill:#424045;}.cls-3{fill:#444247;}.cls-4{fill:#434146;}.cls-5{fill:#3c3a3e;}.cls-6{fill:#b4b1b5;}.cls-7{fill:#838085;}.cls-8{fill:#adabaf;}.cls-9{fill:#918f94;}.cls-10{fill:#6a676d;}.cls-11{fill:#b8b6ba;}.cls-12{fill:#afacb0;}.cls-13{fill:#98959a;}.cls-14{fill:#8f8c91;}</style></defs><path class="cls-1" d="M772.68,469.84a.52.52,0,0,1,.67-.29,1.56,1.56,0,0,0,1.62-.89c8.95-5.13,18.8-7.79,28.71-10.19a121.22,121.22,0,0,1,16.79-2.77,26,26,0,0,1,15.72,3.57c8.12,4.53,15.73,9.8,23.38,15l0,1.63c-15.46-5.39-30.81-3-46,1-14.29,3.79-28.71,7.24-42.3,13.29-1.51.67-3.09,1.66-4.88.67-1.06-2.24,0-4.64-.5-6.93l0,.12c1.63-.76,1.27-2.19,1.18-3.52l0,.09c1.48-.81,1.33-2.17,1.18-3.52l0,.09c1.41-.5,1.07-2,1.74-2.95a3.19,3.19,0,0,0,.64-2.95,1,1,0,0,1,.86-.53A1.5,1.5,0,0,0,772.68,469.84Z" transform="translate(-528.57 -455.58)"/><path class="cls-1" d="M532.5,474.17c7.11-4.66,14.12-9.46,21.41-13.87A29.52,29.52,0,0,1,574.58,456c15.66,2.43,30.94,6,44.89,13.9a1.38,1.38,0,0,0,1.26,1l0,0c1.14,3.59,1.28,7.63,4.45,10.35.25,1.23-.64,2.85,1.22,3.51l-.06-.12c0,1.92,0,3.83,0,5.75-2.68,1.06-5,.12-7.54-.88-18.59-7.43-37.89-12.42-57.52-16a51.77,51.77,0,0,0-26.35,2,11.09,11.09,0,0,1-2.26.28C532.61,475.2,532.56,474.68,532.5,474.17Z" transform="translate(-528.57 -455.58)"/><path class="cls-2" d="M625.16,481.19c-3.17-2.72-3.31-6.76-4.45-10.35,2.68-.41,4.29,2.18,6.75,2.39-.53.19-.62.37-.24.46,0,0,.17-.29.26-.44,1,.33,1.12,1.28,1.41,2.09l.33,2.31a2.11,2.11,0,0,0-1.49,2,.8.8,0,0,1,.55.63c-.44.84-.87,1.68.05,2.48a.6.6,0,0,0,.55,0c1-.61.76-1.54.55-2.45,2.09.09,1.05,2.76,2.68,3.22l-.05-.1-.18,1.18a1.93,1.93,0,0,0-2,1.38l.1,5.62c-1.49.92-2-.21-2.53-1.23.26-2.07.6-4.14-1.13-5.82l.06.12C626.09,483.49,626.81,481.93,625.16,481.19Z" transform="translate(-528.57 -455.58)"/><path class="cls-3" d="M762.86,475.8c.23-.47.47-.95.7-1.43a1.34,1.34,0,0,1,1.07,1.49c0,.86,0,1.74,1.17,1.89a7.66,7.66,0,0,1-2,4.61c-2.69-.11-.92,1.93-1.4,2.89l0-.09c-1.95,1.74-1,4.08-1.26,6.17l-5.27.45c1.39-6.07,1-12.24,5.16-17.24.17,2.46-2,4.88-.32,7.83.49-1.1.79-1.76,1.08-2.42,1.4-.27,2-.85.82-2.12Zm-3.38,10.44a2.06,2.06,0,0,0,.09-2.45A2.09,2.09,0,0,0,759.48,486.24Z" transform="translate(-528.57 -455.58)"/><path class="cls-4" d="M629.88,486a1.93,1.93,0,0,1,2-1.38l.69,2.52c.29-1.33,1.35-2.78-.51-3.7l.05.1c.37-2.83-.48-5.47-1.26-8.12,1.12-1.75,1.31-.13,1.54.5a54.24,54.24,0,0,1,3.51,15.87l-4.86-.42C630.6,489.6,631.62,487.5,629.88,486Z" transform="translate(-528.57 -455.58)"/><path class="cls-5" d="M763.76,482.36a7.66,7.66,0,0,0,2-4.61c.22-1.77,1.6-3.22,1.39-5.11a2.44,2.44,0,0,1,3.28-1.28,3.19,3.19,0,0,1-.64,2.95c-1.68.33-1.72,1.64-1.74,2.95l0-.09c-1.3.87-1.26,2.19-1.18,3.52l0-.09c-1.37.84-1.25,2.19-1.18,3.52l0-.12c-1.91,2.15-1.1,5.13-2.32,7.49l-1.26.12.14-6.45,0,.09C763.6,484.66,763.46,483.4,763.76,482.36Z" transform="translate(-528.57 -455.58)"/><path class="cls-6" d="M630.85,475.43c.78,2.65,1.63,5.29,1.26,8.12-1.63-.46-.59-3.13-2.67-3.21l-1.16-.09a.83.83,0,0,0-.55-.64c1.49.1,1.85-.65,1.49-2l-.33-2.31Z" transform="translate(-528.57 -455.58)"/><path class="cls-7" d="M767.19,472.64c.21,1.89-1.17,3.34-1.39,5.11-1.17-.15-1.19-1-1.17-1.89a1.34,1.34,0,0,0-1.07-1.49C763.72,471.6,765.8,472.84,767.19,472.64Z" transform="translate(-528.57 -455.58)"/><path class="cls-8" d="M762.86,475.8l-.24,2c-.27.71-.54,1.41-.82,2.12s-.59,1.32-1.08,2.42c-1.67-2.95.49-5.37.32-7.83Z" transform="translate(-528.57 -455.58)"/><path class="cls-9" d="M859.54,475.94l0-1.63c1.64.36,3.13.92,4,2.89C861.93,477.23,860.59,477.12,859.54,475.94Z" transform="translate(-528.57 -455.58)"/><path class="cls-10" d="M532.5,474.17c.06.51.11,1,.17,1.54-.69,1.48-2.26.65-4.1,2.28C529.64,475.15,531.27,474.88,532.5,474.17Z" transform="translate(-528.57 -455.58)"/><path class="cls-11" d="M763.53,491.49c1.22-2.36.41-5.34,2.32-7.49.47,2.29-.56,4.69.5,6.93Z" transform="translate(-528.57 -455.58)"/><path class="cls-12" d="M626.32,484.58c1.73,1.68,1.39,3.75,1.13,5.82-.37,0-.74,0-1.11-.07C626.33,488.41,626.33,486.5,626.32,484.58Z" transform="translate(-528.57 -455.58)"/><path class="cls-8" d="M629.88,486c1.74,1.49.72,3.59,1.16,5.37l-.49.28-.57,0Z" transform="translate(-528.57 -455.58)"/><path class="cls-13" d="M762.41,485.16l-.14,6.45-1.12-.28C761.44,489.24,760.46,486.9,762.41,485.16Z" transform="translate(-528.57 -455.58)"/><path class="cls-5" d="M775,468.66a1.56,1.56,0,0,1-1.62.89A1.48,1.48,0,0,1,775,468.66Z" transform="translate(-528.57 -455.58)"/><path class="cls-2" d="M620.73,470.86a1.38,1.38,0,0,1-1.26-1A1,1,0,0,1,620.73,470.86Z" transform="translate(-528.57 -455.58)"/><path class="cls-5" d="M772.68,469.84a1.5,1.5,0,0,1-1.35,1A1.13,1.13,0,0,1,772.68,469.84Z" transform="translate(-528.57 -455.58)"/><path class="cls-14" d="M768.09,477.26c0-1.31.06-2.62,1.74-2.95C769.16,475.24,769.5,476.76,768.09,477.26Z" transform="translate(-528.57 -455.58)"/><path class="cls-14" d="M767,480.69c-.08-1.33-.12-2.65,1.18-3.52C768.29,478.52,768.44,479.88,767,480.69Z" transform="translate(-528.57 -455.58)"/><path class="cls-14" d="M765.82,484.12c-.07-1.33-.19-2.68,1.18-3.52C767.09,481.93,767.45,483.36,765.82,484.12Z" transform="translate(-528.57 -455.58)"/><path class="cls-12" d="M625.16,481.19c1.65.74.93,2.3,1.22,3.51C624.52,484,625.41,482.42,625.16,481.19Z" transform="translate(-528.57 -455.58)"/><path class="cls-4" d="M628.28,480.25l1.16.09c.2.9.48,1.83-.56,2.44a.6.6,0,0,1-.55,0C627.41,481.93,627.84,481.09,628.28,480.25Z" transform="translate(-528.57 -455.58)"/><path class="cls-13" d="M632.06,483.45c1.86.92.8,2.37.51,3.7l-.69-2.52Z" transform="translate(-528.57 -455.58)"/><path class="cls-4" d="M627.48,473.25c-.09.15-.21.45-.26.44-.38-.09-.29-.27.24-.46Z" transform="translate(-528.57 -455.58)"/><path class="cls-4" d="M629.22,477.65c.36,1.31,0,2.06-1.49,2A2.11,2.11,0,0,1,629.22,477.65Z" transform="translate(-528.57 -455.58)"/><path class="cls-13" d="M763.76,482.36c-.3,1-.16,2.3-1.4,2.89C762.84,484.29,761.07,482.25,763.76,482.36Z" transform="translate(-528.57 -455.58)"/><path class="cls-8" d="M759.48,486.24a2.09,2.09,0,0,1,.09-2.45A2.06,2.06,0,0,1,759.48,486.24Z" transform="translate(-528.57 -455.58)"/><path class="cls-5" d="M761.8,480c.28-.71.55-1.41.82-2.12C763.8,479.1,763.2,479.68,761.8,480Z" transform="translate(-528.57 -455.58)"/></svg>