<svg id="Layer_36" data-name="Layer 36" xmlns="http://www.w3.org/2000/svg" viewBox="0 0 376.71 30.04"><defs><style>.cls-1{fill:#171619;}.cls-2{fill:#171518;}.cls-3{fill:#5c5a5e;}.cls-4{fill:#5a585c;}.cls-5{fill:#424044;}.cls-6{fill:#4f4d52;}.cls-7{fill:#c9c7ca;}.cls-8{fill:#cecdd0;}.cls-9{fill:#d4d2d5;}</style></defs><path class="cls-1" d="M632.29,486.58c-19.11-4.05-38.24-8-57.32-12.19-10.55-2.32-21-5.05-31.5-7.63-4.62-1.14-9.3-1.87-14-2.55-7.19-1-13.9,1.11-20.78,2.59,8.27-5.8,17.16-9.95,27.55-10,10-.05,19.63,2.18,29.21,4.44,17.9,4.23,35.68,8.94,53.53,13.34,1.89.47,3.25,1.89,5.11,2.27l-.06-.13c.43,1.84,1.28,3,3.43,2.29l0,0c-.5,1.27-.11,1.65,1.16,1.16h0c-.49,1.27-.11,1.66,1.17,1.15l0,0c-.55,1.34,0,1.59,1.18,1.17l0,0c-.5,1.3.09,1.5,1.19,1.18l0,0C632.1,484.56,632.2,485.57,632.29,486.58Z" transform="translate(-508.7 -456.76)"/><path class="cls-2" d="M850.36,466.24l-1.9.36a2.28,2.28,0,0,0-2.67.77l-2,.33a2.13,2.13,0,0,0-2.62.77l-2,.36a2.18,2.18,0,0,0-2.59.83l-1.88.39a1.16,1.16,0,0,0-1.58.6l-3,.58a1.17,1.17,0,0,0-1.61.56l-3,.51a2.2,2.2,0,0,0-2.66.75l-2.87.56a10.56,10.56,0,0,0-7.41,1.72l-3,.47a2.24,2.24,0,0,0-2.73.69L804,477a1.22,1.22,0,0,0-1.65.54l-4,.81a1.33,1.33,0,0,0-1.75.43l-2.84.58a19.89,19.89,0,0,0-9.72,2l-1.7.44a1.26,1.26,0,0,0-1.75.37l-3.94.72a10.08,10.08,0,0,0-7.48,1.63l-3.92.74c-1.75-.44-3.41-1-2.89-3.36.66-.42,1.52-.71,1.24-1.78l-.07.08c1,.15,1.72.13,1.21-1.2l-.06.06c1.18.37,1.78.17,1.21-1.2l-.1.07c1.49,1,1.95,0,2.34-1.17l.05-.05c1.08.24,1.5-.59,2-1.26l2-.31a1.23,1.23,0,0,0,1.67-.51l2.9-.61a1.42,1.42,0,0,0,1.65-.65l1.91-.38a2.17,2.17,0,0,0,2.67-.72l2.94-.52a1.25,1.25,0,0,0,1.65-.56l2.91-.57a7.48,7.48,0,0,0,6.22-1.73l2.91-.6a1.3,1.3,0,0,0,1.67-.57l2-.36a2.12,2.12,0,0,0,2.56-.84l1.91-.39a2.29,2.29,0,0,0,2.66-.79l1.87-.39a1.16,1.16,0,0,0,1.59-.59l2.93-.59A7.61,7.61,0,0,0,823,462l3-.5a2.22,2.22,0,0,0,2.68-.73l3-.47a5.48,5.48,0,0,0,5-.95l1.71-.44a1.28,1.28,0,0,0,1.75-.38l4.09-.53c2.14.35,4.25.46,6.16-.87a34,34,0,0,1,11.39.18,2.3,2.3,0,0,0,2.67.74l1.89.41a1.36,1.36,0,0,0,1.67.57l1.77.52a1.5,1.5,0,0,0,1.65.65l1.75.67a1,1,0,0,0,1.33.74h0a2.11,2.11,0,0,0,2.31,1.16h0c-.44,1.52-1.89,1.3-3,1.73-2.84-.69-5.75-.4-8.63-.57a1.34,1.34,0,0,0-2.27.13l-4,.5A11,11,0,0,0,850.36,466.24Z" transform="translate(-508.7 -456.76)"/><path class="cls-3" d="M762.39,481.86c-.52,2.4,1.14,2.92,2.89,3.36-3.21,1-6.41,2.58-9.69.19,0-.51,0-1,0-1.52a1.51,1.51,0,0,0,0-1.61l-.08.09c1.08.26,1.59,0,1.24-1.22l-.09.09c1.16.34,1.66,0,1.23-1.23l-.08.08c1.23.42,1.69.07,1.22-1.21l-.07.06c1.23.43,1.77.17,1.21-1.2l0,.05c1.46,1.12,1.83-.24,2.42-1.08a24,24,0,0,1,3.12-2.14c1.06-.53,2.14-.48,2.08,1.21a.64.64,0,0,0,.52.89l-.05.05c-1.5-1-1.9.09-2.34,1.17l.1-.07c-.83,0-1.3.31-1.21,1.2l.06-.06c-.86-.07-1.32.28-1.21,1.2l.07-.08C762.45,480.15,762.18,480.83,762.39,481.86Z" transform="translate(-508.7 -456.76)"/><path class="cls-4" d="M627.49,475.56c.52.21,1.45.7,1.51.6,2.07-3,3.75-1.67,5.51.35,2.28,2.62,5.08,4.84,7.48,8.95-2.9-.68-4.8-.92-6.51,0-.08-.93-.12-1.89-1.48-1.71l-.29.2c.85-1.45.09-2.5-.91-3.45C631,478.87,629.26,477.22,627.49,475.56Z" transform="translate(-508.7 -456.76)"/><path class="cls-5" d="M627.49,475.56c1.77,1.66,3.55,3.31,5.31,5,1,.95,1.76,2,.91,3.45-.52-.34-1-.89-1.7-.44l0,0c.22-1-.19-1.38-1.19-1.18l0,0c.2-1-.22-1.35-1.18-1.17l0,0c.19-1-.23-1.32-1.17-1.15h0c.17-.95-.27-1.28-1.16-1.16l0,0c-.59-1.58-1.38-2.89-3.43-2.29l.06.13C624.55,474.64,625.31,473.23,627.49,475.56Z" transform="translate(-508.7 -456.76)"/><path class="cls-3" d="M873.86,464.51c1.07-.43,2.52-.21,3-1.73,2.94.79,5.41,2.39,8.59,4.82C880.82,466.74,877.22,466.1,873.86,464.51Z" transform="translate(-508.7 -456.76)"/><path class="cls-3" d="M754.41,480.07c1.44-2.23,3.15-4.42,5.51-5.45,1.9-.82,1.23,1,1,2-.65.14-1,.51-.82,1.2l0-.05c-.81,0-1.18.42-1.21,1.2l.07-.06a1.14,1.14,0,0,0-1.22,1.21l.08-.08a1.31,1.31,0,0,0-1.23,1.23l.09-.09a3.93,3.93,0,0,0-1.05.3Z" transform="translate(-508.7 -456.76)"/><path class="cls-6" d="M754.41,480.07l1.24,1.38c-.07.31-.14.61-.19.92l.08-.09c-.63.55-2,1.11,0,1.61,0,.51,0,1,0,1.52-1.17-2.23-3.05.51-4.7-.83C751.36,482.59,753,481.38,754.41,480.07Z" transform="translate(-508.7 -456.76)"/><path class="cls-3" d="M784.07,481.32a19.89,19.89,0,0,1,9.72-2C790.65,480.49,787.5,481.59,784.07,481.32Z" transform="translate(-508.7 -456.76)"/><path class="cls-3" d="M850.36,466.24a11,11,0,0,1,8.62-1.67A39.47,39.47,0,0,1,850.36,466.24Z" transform="translate(-508.7 -456.76)"/><path class="cls-3" d="M769.2,484.48a10.08,10.08,0,0,1,7.48-1.63A19.41,19.41,0,0,1,769.2,484.48Z" transform="translate(-508.7 -456.76)"/><path class="cls-3" d="M812.64,475.33a10.56,10.56,0,0,1,7.41-1.72A17.31,17.31,0,0,1,812.64,475.33Z" transform="translate(-508.7 -456.76)"/><path class="cls-3" d="M850.41,457.15c-1.91,1.33-4,1.22-6.16.87C846.15,456.71,848.29,457,850.41,457.15Z" transform="translate(-508.7 -456.76)"/><path class="cls-3" d="M823,462a7.61,7.61,0,0,1-6.21,1.71C818.69,462.47,820.88,462.34,823,462Z" transform="translate(-508.7 -456.76)"/><path class="cls-3" d="M796.72,468.85a7.48,7.48,0,0,1-6.22,1.73C792.4,469.36,794.57,469.15,796.72,468.85Z" transform="translate(-508.7 -456.76)"/><path class="cls-3" d="M836.7,459.37a5.48,5.48,0,0,1-5,.95C833.17,459,835,459.26,836.7,459.37Z" transform="translate(-508.7 -456.76)"/><path class="cls-7" d="M632,483.55c.72-.45,1.18.1,1.7.44l.29-.21.48,1.44c-.41,1-.74,2.06-2.19,1.36C632.2,485.57,632.1,484.56,632,483.55Z" transform="translate(-508.7 -456.76)"/><path class="cls-3" d="M863,464.07a1.34,1.34,0,0,1,2.27-.13A2.14,2.14,0,0,1,863,464.07Z" transform="translate(-508.7 -456.76)"/><path class="cls-3" d="M864.47,458.07a2.3,2.3,0,0,1-2.67-.74A2.3,2.3,0,0,1,864.47,458.07Z" transform="translate(-508.7 -456.76)"/><path class="cls-3" d="M828.72,460.79a2.22,2.22,0,0,1-2.68.73A2.4,2.4,0,0,1,828.72,460.79Z" transform="translate(-508.7 -456.76)"/><path class="cls-3" d="M876.81,462.78a2.11,2.11,0,0,1-2.31-1.16A2.11,2.11,0,0,1,876.81,462.78Z" transform="translate(-508.7 -456.76)"/><path class="cls-3" d="M810.42,465.3a2.29,2.29,0,0,1-2.66.79A2.39,2.39,0,0,1,810.42,465.3Z" transform="translate(-508.7 -456.76)"/><path class="cls-3" d="M805.85,466.48a2.12,2.12,0,0,1-2.56.84A2.34,2.34,0,0,1,805.85,466.48Z" transform="translate(-508.7 -456.76)"/><path class="cls-3" d="M845.79,467.37a2.28,2.28,0,0,1,2.67-.77A2.38,2.38,0,0,1,845.79,467.37Z" transform="translate(-508.7 -456.76)"/><path class="cls-3" d="M841.21,468.47a2.13,2.13,0,0,1,2.62-.77A2.4,2.4,0,0,1,841.21,468.47Z" transform="translate(-508.7 -456.76)"/><path class="cls-3" d="M836.65,469.66a2.18,2.18,0,0,1,2.59-.83A2.37,2.37,0,0,1,836.65,469.66Z" transform="translate(-508.7 -456.76)"/><path class="cls-3" d="M783,472.23a2.17,2.17,0,0,1-2.67.72A2.43,2.43,0,0,1,783,472.23Z" transform="translate(-508.7 -456.76)"/><path class="cls-3" d="M822.92,473.05a2.2,2.2,0,0,1,2.66-.75A2.39,2.39,0,0,1,822.92,473.05Z" transform="translate(-508.7 -456.76)"/><path class="cls-3" d="M806.92,476.49a2.24,2.24,0,0,1,2.73-.69A2.48,2.48,0,0,1,806.92,476.49Z" transform="translate(-508.7 -456.76)"/><path class="cls-8" d="M768.21,476.67a.64.64,0,0,1-.52-.89l2.53-.37C769.71,476.08,769.29,476.91,768.21,476.67Z" transform="translate(-508.7 -456.76)"/><path class="cls-9" d="M760.07,477.79c-.16-.69.17-1.06.82-1.2l1.6.12C761.9,477.55,761.53,478.91,760.07,477.79Z" transform="translate(-508.7 -456.76)"/><path class="cls-5" d="M634.48,485.22l-.48-1.44c1.36-.17,1.4.79,1.48,1.72A1.21,1.21,0,0,1,634.48,485.22Z" transform="translate(-508.7 -456.76)"/><path class="cls-3" d="M773.87,474.59a1.23,1.23,0,0,1-1.67.51A1.29,1.29,0,0,1,773.87,474.59Z" transform="translate(-508.7 -456.76)"/><path class="cls-3" d="M828.62,471.79a1.17,1.17,0,0,1,1.61-.56A1.23,1.23,0,0,1,828.62,471.79Z" transform="translate(-508.7 -456.76)"/><path class="cls-3" d="M778.42,473.33a1.42,1.42,0,0,1-1.65.65A1.31,1.31,0,0,1,778.42,473.33Z" transform="translate(-508.7 -456.76)"/><path class="cls-3" d="M813.88,464.32a1.16,1.16,0,0,1-1.59.59A1.2,1.2,0,0,1,813.88,464.32Z" transform="translate(-508.7 -456.76)"/><path class="cls-3" d="M787.59,471.15a1.25,1.25,0,0,1-1.65.56A1.25,1.25,0,0,1,787.59,471.15Z" transform="translate(-508.7 -456.76)"/><path class="cls-3" d="M833.19,470.65a1.16,1.16,0,0,1,1.58-.6A1.2,1.2,0,0,1,833.19,470.65Z" transform="translate(-508.7 -456.76)"/><path class="cls-3" d="M802.33,477.53A1.22,1.22,0,0,1,804,477,1.26,1.26,0,0,1,802.33,477.53Z" transform="translate(-508.7 -456.76)"/><path class="cls-3" d="M796.63,478.77a1.33,1.33,0,0,1,1.75-.43A1.48,1.48,0,0,1,796.63,478.77Z" transform="translate(-508.7 -456.76)"/><path class="cls-3" d="M801.3,467.68a1.3,1.3,0,0,1-1.67.57A1.3,1.3,0,0,1,801.3,467.68Z" transform="translate(-508.7 -456.76)"/><path class="cls-3" d="M868,459.05a1.36,1.36,0,0,1-1.67-.57A1.32,1.32,0,0,1,868,459.05Z" transform="translate(-508.7 -456.76)"/><path class="cls-3" d="M874.53,461.63a1,1,0,0,1-1.33-.74A1.06,1.06,0,0,1,874.53,461.63Z" transform="translate(-508.7 -456.76)"/><path class="cls-3" d="M780.62,482.13a1.26,1.26,0,0,1,1.75-.37A1.43,1.43,0,0,1,780.62,482.13Z" transform="translate(-508.7 -456.76)"/><path class="cls-3" d="M871.45,460.22a1.5,1.5,0,0,1-1.65-.65A1.32,1.32,0,0,1,871.45,460.22Z" transform="translate(-508.7 -456.76)"/><path class="cls-3" d="M840.16,458.55a1.28,1.28,0,0,1-1.75.38A1.44,1.44,0,0,1,840.16,458.55Z" transform="translate(-508.7 -456.76)"/><path class="cls-7" d="M624,476.72c2.05-.6,2.84.71,3.43,2.29C625.32,479.77,624.47,478.56,624,476.72Z" transform="translate(-508.7 -456.76)"/><path class="cls-7" d="M627.43,479c.89-.12,1.33.21,1.16,1.16C627.32,480.63,626.93,480.25,627.43,479Z" transform="translate(-508.7 -456.76)"/><path class="cls-7" d="M628.57,480.13c.94-.17,1.36.18,1.17,1.15C628.46,481.79,628.08,481.4,628.57,480.13Z" transform="translate(-508.7 -456.76)"/><path class="cls-7" d="M630.85,482.39c1-.2,1.41.17,1.19,1.18C630.94,483.89,630.35,483.69,630.85,482.39Z" transform="translate(-508.7 -456.76)"/><path class="cls-7" d="M629.71,481.26c1-.18,1.38.19,1.18,1.17C629.69,482.85,629.16,482.6,629.71,481.26Z" transform="translate(-508.7 -456.76)"/><path class="cls-8" d="M765.82,477.89c.44-1.08.84-2.21,2.34-1.17C767.77,477.89,767.31,478.91,765.82,477.89Z" transform="translate(-508.7 -456.76)"/><path class="cls-8" d="M764.71,479c-.09-.89.38-1.23,1.21-1.2C766.49,479.19,765.89,479.39,764.71,479Z" transform="translate(-508.7 -456.76)"/><path class="cls-8" d="M763.56,480.16c-.11-.92.35-1.27,1.21-1.2C765.28,480.29,764.51,480.31,763.56,480.16Z" transform="translate(-508.7 -456.76)"/><path class="cls-8" d="M762.39,481.86c-.21-1,.06-1.71,1.24-1.78C763.91,481.15,763.05,481.44,762.39,481.86Z" transform="translate(-508.7 -456.76)"/><path class="cls-9" d="M758.91,478.94c0-.78.4-1.21,1.21-1.2C760.68,479.11,760.14,479.37,758.91,478.94Z" transform="translate(-508.7 -456.76)"/><path class="cls-9" d="M756.61,481.24a1.31,1.31,0,0,1,1.23-1.23C758.27,481.26,757.77,481.58,756.61,481.24Z" transform="translate(-508.7 -456.76)"/><path class="cls-9" d="M757.76,480.09a1.14,1.14,0,0,1,1.22-1.21C759.45,480.16,759,480.51,757.76,480.09Z" transform="translate(-508.7 -456.76)"/><path class="cls-9" d="M755.46,482.37c0-.31.12-.61.19-.92a3.93,3.93,0,0,1,1.05-.3C757.05,482.33,756.54,482.63,755.46,482.37Z" transform="translate(-508.7 -456.76)"/><path class="cls-9" d="M755.57,483.89c-2-.5-.66-1.06,0-1.61A1.51,1.51,0,0,1,755.57,483.89Z" transform="translate(-508.7 -456.76)"/></svg>