<svg id="Layer_33" data-name="Layer 33" xmlns="http://www.w3.org/2000/svg" viewBox="0 0 343.34 26.27"><defs><style>.cls-1{fill:#19181b;}.cls-2{fill:#1b1a1c;}.cls-3{fill:#525055;}.cls-4{fill:#49474b;}.cls-5{fill:#59575b;}.cls-6{fill:#545257;}.cls-7{fill:#7e7c81;}.cls-8{fill:#c0bec1;}.cls-9{fill:#b9b7bb;}.cls-10{fill:#fff;}.cls-11{fill:#d0cfd2;}</style></defs><path class="cls-1" d="M625.73,491.39l2.21,3.2c-5.14,1-9.56-.06-13.72-1.37-16.29-5.14-33-9-48.92-15.31-11-4.32-22.62-4.8-34.19-5.66a23.17,23.17,0,0,1-6.86-1.13c2.55-.4,5.09-1,7.67-1.16a323.39,323.39,0,0,1,50.76-.18c9.65.8,19.11,2.84,27.3,8.57l.29,0a2.53,2.53,0,0,0,2.85,1.74,3.37,3.37,0,0,0,2.92,1.77c.84,2.12,2.19,3.15,4.51,2.12-1.6,2.31.46,2.44,1.78,3C622.77,489,624.51,490,625.73,491.39Z" transform="translate(-524.25 -468.79)"/><path class="cls-2" d="M785.34,476.72c6.26-5,14-5.94,21.38-6.64a270,270,0,0,1,58.65.64,3.75,3.75,0,0,1,2.22,1c-5.25.44-10.49,1.06-15.75,1.28A90.7,90.7,0,0,0,823,479.24c-15.09,5.78-30.85,9.39-46.21,14.28a28.9,28.9,0,0,1-11.75,1.3c-1-1.69,1.33-2.71.67-4.22Z" transform="translate(-524.25 -468.79)"/><path class="cls-3" d="M785.34,476.72,765.73,490.6a8.49,8.49,0,0,0-4.22,2.55c-1,1-1.86,1.14-2.26-.54a1.82,1.82,0,0,0,1-2.11l.79-.4-.44-.54-.51.77c-.89-.05-1.26,1.77-2.44.68.7-4.18,4.4-6,6.9-8.71,2.53.45,4.31-.77,5.83-2.58,2,1,3-.69,4.34-1.55s2.42-1.71,3.67-2.5c3.16-2,3.16-2,5.89,1C784.45,476.82,785,476.7,785.34,476.72Z" transform="translate(-524.25 -468.79)"/><path class="cls-4" d="M625.73,491.39c-1.22-1.38-3-2.37-3.39-4.37,1.23-2.09-.7-2.3-1.79-3-2.32,1-3.67,0-4.51-2.12a1.52,1.52,0,0,0-.67-2.27,1.4,1.4,0,0,0-2.25.5,2.53,2.53,0,0,1-2.85-1.74c1.08.32,1.78.06,1.76-1.2,0-.75,0-1.45.79-1.83a21.11,21.11,0,0,1,5.6,3.95,1.47,1.47,0,0,0,1.61.79c.79.8,1.23,2.47,2.87,1.16h0c-.09.33-.33.74-.22,1,.32.65.87.42,1.38.18l0,0c-.85.95.15,1.27.61,1.77l1.28.93c.34.37.72,1.06,1.22.54s-.06-.93-.6-1.14a1.47,1.47,0,0,0-1.08-1.21,4.59,4.59,0,0,0-.24-.9l1.15-1.16c2.43,2.83,6.28,4.49,7,8.68a1.21,1.21,0,0,1-1.33.5l-.66-.7c0,.25-.17.56-.07.73.21.34.54.25.81-.16-.83,1.22.39,2.41.05,3.62C630,493.24,628.72,490,625.73,491.39Z" transform="translate(-524.25 -468.79)"/><path class="cls-5" d="M770.37,479.72c-1.52,1.81-3.3,3-5.83,2.58,2.05-2.58,4.09-5.15,7.79-6.58C772.4,477.8,770.93,478.54,770.37,479.72Z" transform="translate(-524.25 -468.79)"/><path class="cls-6" d="M626.37,481.2l-1.15,1.16H624l0,0c.09-.87-.23-1.32-1.16-1.15h0c-.55-1.39-.86-3.4-2.87-1.16a1.47,1.47,0,0,1-1.61-.79c.81-.21,1.36-.68,1.26-1.57-.2-1.69.47-2.1,1.85-1.22A15.47,15.47,0,0,1,626.37,481.2Z" transform="translate(-524.25 -468.79)"/><path class="cls-7" d="M612.82,475.35c-.79.38-.8,1.08-.79,1.83,0,1.26-.68,1.52-1.76,1.2l-.29,0c1.16-1.87-1.53-2.65-1.21-4.67A4.36,4.36,0,0,1,612.82,475.35Z" transform="translate(-524.25 -468.79)"/><path class="cls-8" d="M632.06,490.38a1.21,1.21,0,0,0,1.33-.5l0,.31c.09,1.43.15,2.88,2.27,2.27l.06.06c-1.36.72-.12,1.56-.11,2.35l-3.39-1c.34-1.21-.88-2.4-.05-3.62Z" transform="translate(-524.25 -468.79)"/><path class="cls-3" d="M757.43,493.27c-.54.92-1.14,2.51-2.34,1.43s.27-2.2,1.08-3.11Z" transform="translate(-524.25 -468.79)"/><path class="cls-4" d="M635.63,492.46c-2.12.61-2.18-.84-2.27-2.27C635.34,489.72,635.83,490.75,635.63,492.46Z" transform="translate(-524.25 -468.79)"/><path class="cls-9" d="M757.64,491c1.18,1.09,1.55-.73,2.44-.68l.16.18a1.82,1.82,0,0,1-1,2.1l-1.25.14-.38-1.43Z" transform="translate(-524.25 -468.79)"/><path class="cls-4" d="M635.58,494.87c0-.79-1.25-1.63.11-2.35.88-.5,1,.13,1.17.76-.07.49-.15,1-.22,1.47Z" transform="translate(-524.25 -468.79)"/><path class="cls-3" d="M757.62,491.32l.38,1.43a1.15,1.15,0,0,1-.57.52l-1.26-1.68A.89.89,0,0,1,757.62,491.32Z" transform="translate(-524.25 -468.79)"/><path class="cls-6" d="M636.64,494.75c.07-.49.15-1,.22-1.47C637.29,493.84,638.08,494.46,636.64,494.75Z" transform="translate(-524.25 -468.79)"/><path class="cls-10" d="M613.12,480.12a1.4,1.4,0,0,1,2.25-.5,1.52,1.52,0,0,1,.67,2.27A3.37,3.37,0,0,1,613.12,480.12Z" transform="translate(-524.25 -468.79)"/><path class="cls-10" d="M620.55,484c1.09.71,3,.92,1.79,3C621,486.45,619,486.32,620.55,484Z" transform="translate(-524.25 -468.79)"/><path class="cls-9" d="M760.08,490.33l.51-.77.44.54-.79.4Z" transform="translate(-524.25 -468.79)"/><path class="cls-11" d="M620,480.09c2-2.24,2.32-.23,2.87,1.16C621.26,482.56,620.82,480.89,620,480.09Z" transform="translate(-524.25 -468.79)"/><path class="cls-11" d="M622.91,481.25c.93-.17,1.25.28,1.16,1.15-.51.24-1.06.47-1.38-.18C622.58,482,622.82,481.58,622.91,481.25Z" transform="translate(-524.25 -468.79)"/><path class="cls-11" d="M624,482.37h1.19a4.59,4.59,0,0,1,.24.9l-.82.88C624.18,483.64,623.18,483.32,624,482.37Z" transform="translate(-524.25 -468.79)"/><path class="cls-11" d="M625.92,485.07l-1.28-.93c.27-.3.54-.59.82-.88a1.47,1.47,0,0,1,1.08,1.21Z" transform="translate(-524.25 -468.79)"/><path class="cls-11" d="M626.54,484.47c.54.21,1.09.63.6,1.14s-.88-.17-1.22-.54Z" transform="translate(-524.25 -468.79)"/><path class="cls-8" d="M632.14,490.25c-.27.41-.6.5-.81.16-.1-.17,0-.48.07-.73l.66.7Z" transform="translate(-524.25 -468.79)"/></svg>