<svg id="Layer_16" xmlns="http://www.w3.org/2000/svg" viewBox="0 0 788 1130">
  <path fill="#813112" d="M392.68,1.38l2.21-.08c.32,1.6,1.4,2.07,2.91,2.09,7.4.09,14.78.44,22.18.92,9.09.59,18.16,1.47,27.13,2.77a280.63,280.63,0,0,1,57.29,14.35c17.37,6.44,34,14.44,49.21,25,14.84,10.27,28.84,21.56,40.67,35.46,6.41,7.53,12.84,15,18.4,23.16a292.07,292.07,0,0,1,34.92,44.62,309.17,309.17,0,0,1,17.57,49.28c4.41,16.87,8.42,33.81,10.58,51.17,1.5,12,3.29,24,3.2,36.2,0,5.33-.16,10.67,0,16a168.6,168.6,0,0,1-2.6,36.28c-2.73,15.09-5.37,30.2-8.33,45.24-3.45,17.46-6.91,34.93-10.66,52.33-4.72,21.88-9.91,43.62-15.95,65.16-4.92,17.57-10.81,34.8-17.45,51.8a144.87,144.87,0,0,1-32.5,50.4,443.93,443.93,0,0,1-36.62,33.41c-20.42,16.34-42.42,30.15-65.45,42.36-10.58,5.61-21.48,10.64-32.37,15.63-7.25,3.33-14.72,6.17-22.12,9.15-11.56,4.65-23.68,4.71-35.9,4.73A80.29,80.29,0,0,1,358.86,702.65c-8.11-3.26-16.13-6.71-24.12-10.28a451.81,451.81,0,0,1-61.18-33c-20.14-13-39.23-27.42-56.29-44.35-7.29-7.24-14.61-14.43-21.24-22.31a105.85,105.85,0,0,1-12.48-17.65c-12.29-22.71-20.27-47.09-27.4-71.76-5.53-19.12-10.32-38.45-14.52-57.92q-5.56-25.83-10.71-51.75c-2.76-13.92-5.14-27.92-7.88-41.85-2.12-10.79-4.18-21.65-4.48-32.59-.28-10-.93-20-.55-30.06a411.85,411.85,0,0,1,4.73-48.61,394.65,394.65,0,0,1,14.05-58.56A292.18,292.18,0,0,1,161.68,125.73a255.7,255.7,0,0,1,36.06-49,213.77,213.77,0,0,1,44.81-35.85A238.3,238.3,0,0,1,303.68,14.84a267.47,267.47,0,0,1,41.76-8.32c12.05-1.32,24.09-2.69,36.21-3.09,2.67-.08,5.33-.06,8,0C391.17,3.4,392.31,3.01,392.68,1.38Z" />
  
  <path fill="#46261c" d="M392.68,1.38c-.33,1.63-1.47,2-3,2-2.67,0-5.33,0-8,0-12.12.4-24.16,1.77-36.21,3.09a267.47,267.47,0,0,0-41.76,8.32,238.3,238.3,0,0,0-61.18,26.06,213.77,213.77,0,0,0-44.81,35.85,255.7,255.7,0,0,0-36.06,49,292.18,292.18,0,0,0-24.87,56.22,394.65,394.65,0,0,0-14.05,58.56,411.85,411.85,0,0,0-4.73,48.61c-.38,10.08.27,20.07.55,30.06.3,10.94,2.36,21.8,4.48,32.59,2.74,13.93,5.12,27.93,7.88,41.85q5.16,25.92,10.71,51.75c4.2,19.47,9,38.8,14.52,57.92,7.13,24.67,15.11,49.05,27.4,71.76a105.85,105.85,0,0,0,12.48,17.65c6.63,7.88,13.95,15.07,21.24,22.31,17.06,16.93,36.15,31.32,56.29,44.35a451.81,451.81,0,0,0,61.18,33c8,3.57,16,7,24.12,10.28a80.29,80.29,0,0,0,30.49,6.09c12.22,0,24.34-.08,35.9-4.73,7.4-3,14.87-5.82,22.12-9.15,10.89-5,21.79-10,32.37-15.63,23-12.21,45-26,65.45-42.36a443.93,443.93,0,0,0,36.62-33.41,144.87,144.87,0,0,0,32.5-50.4c6.64-17,12.53-34.23,17.45-51.8,6-21.54,11.23-43.28,15.95-65.16,3.75-17.4,7.21-34.87,10.66-52.33,3-15,5.6-30.15,8.33-45.24a168.6,168.6,0,0,0,2.6-36.28c-.2-5.33-.08-10.67,0-16,.09-12.17-1.7-24.16-3.2-36.2-2.16-17.36-6.17-34.3-10.58-51.17a309.17,309.17,0,0,0-17.57-49.28,292.07,292.07,0,0,0-25.23-44.63c-5.56-8.15-12-15.63-18.4-23.16-11.83-13.9-25.83-25.19-40.67-35.46-15.22-10.53-31.84-18.53-49.21-25a280.63,280.63,0,0,0-57.29-14.35c-9-1.3-18-2.18-27.13-2.77-7.4-.48-14.78-.83-22.18-.92-1.51,0-2.59-.49-2.91-2.09.55-1.37,1.78-1.24,2.89-1.22,52.7.93,103.24,10.39,149,38.18,36.76,22.31,64.11,53.4,84.61,90.88,16.11,29.45,26.37,60.95,33.26,93.67,6.15,29.18,9.29,58.62,7.91,88.46a227.6,227.6,0,0,1-4.71,38.45c-2,9-3.32,18.22-4.94,27.33,1.77.26,2.14-.8,2.62-1.5,5.34-7.85,12.43-13.87,20-19.35,14.21-10.23,29.81-11.35,45.55-5.11,12.83,5.09,20.34,15.86,23.81,28.94,4.41,16.65,2.61,33.19-2.72,49.44a101.79,101.79,0,0,1-19.68,34.4,151.55,151.55,0,0,1-46.62,37,86.75,86.75,0,0,1-46.22,12.24c-10.27,2.34-19.11-.63-27.22-6.74l-2-1.52c-1.89,2.9-2.23,6.11-3.12,9.07-6,19.86-12.63,39.42-21.42,58.26-6.63,14.19-16.15,26.15-26.77,37.43-26.32,28-56.61,50.81-90,69.65a25.31,25.31,0,0,0-12.32,15,117.05,117.05,0,0,0-5.63,29q-2,25.89-4.38,51.75a10.4,10.4,0,0,0,3.3,9,72,72,0,0,0,21.42,15c25.68,12,51.61,23.37,79.21,30.29,17.32,4.34,34.85,7.85,52.18,12.15,23,5.7,43.55,15.88,60,33.34,7,7.39,12.24,16.06,16.84,25a544,544,0,0,1,36.74,90.75c10.73,35.45,21.08,71,33.14,106.07q5.55,16.17,11,32.37c1.48,4.37,1,5-3.52,5-1.9,0-3.81,0-5.71,0h-772c-6,0-6.08-.18-4.23-5.66,5.95-17.64,12.14-35.2,17.76-52.95,10.82-34.24,21.21-68.61,32-102.86,8.17-26,19.51-50.72,32.09-74.83,6-11.52,13.52-21.94,23.61-30.51,16.53-14,35.81-21.81,56.57-27,23.78-5.88,48.1-9.69,71.22-18.08,18.59-6.75,36.91-14.17,54.73-22.74,8.6-4.14,16.63-9.21,23.21-16.33,1.78-1.92,2.79-3.75,2.54-6.52q-2.16-23.88-4-47.78c-.7-9.31-1.54-18.58-4-27.62-1.48-5.49-2.82-11-6.76-15.53a25.71,25.71,0,0,0-6.86-5.82,400.69,400.69,0,0,1-90.16-69.45c-17.89-18.36-29.22-40.11-37.8-63.73-4.68-12.87-8.76-25.92-12.55-39.07-.21-.69-.15-1.51-1-2-1.55-.27-2.12,1.25-3.15,2-8.58,5.88-17.81,8.42-28.09,5.54a69.16,69.16,0,0,1-9.21-3c-18.11-7.91-34.83-17.92-48.33-32.68-2.82-3.09-5.64-6.19-8.41-9.33-18.39-20.81-25.75-45.33-24-72.73a49.14,49.14,0,0,1,9-25.49c10.25-14.62,24.67-18.79,41.51-17.15,8,.78,15,4,21.41,8.68,8,5.88,15.3,12.42,21.37,21.68a15.11,15.11,0,0,0-.2-6.81c-1.76-9.33-3.66-18.63-5.33-28-3.49-19.59-4.2-39.35-3.44-59.18,1.29-33.27,7.58-65.69,17.2-97.48,12-39.65,30.7-75.7,58.4-106.76,29.7-33.29,66.55-55.13,109.21-67.5a310.52,310.52,0,0,1,72.47-11.76c5.51-.26,11-.54,16.55-.7C692.37.05,694.07-.45,695,1.38Z" />
</svg>
