<svg id="Layer_21" data-name="Layer 21" xmlns="http://www.w3.org/2000/svg" viewBox="0 0 787.2 1129.35">
  <path fill="#feede1" d="M695,179.44l2.15,0c.43,2.84,2.67,2.25,4.46,2.24a303.83,303.83,0,0,1,30.74,1.85c24.75,2.4,48.95,7.21,72.38,15.61a224.68,224.68,0,0,1,75.22,44.47C902.55,264,920.09,288.2,934,315.17c14.19,27.45,23.24,56.62,29.66,86.71a365.25,365.25,0,0,1,7.54,50.78,304.85,304.85,0,0,1-8.11,94c-5.2-2-9.22-5.83-14-8.54-9.18-5.23-18.76-9.29-29.33-10a107.86,107.86,0,0,0-37.07,4.1A94.2,94.2,0,0,0,833.4,565a85.57,85.57,0,0,0-18.26,45.8A76.54,76.54,0,0,0,818.05,640c6.77,23.29,22,38.84,43.76,47.74,19.68,8,40.26,8.13,60.87,3.12,2.74-.67,5.41-1.84,8.33-1.58-6.4,21.76-13.68,43.19-24.49,63.24a83,83,0,0,1-9,13.87A347.41,347.41,0,0,1,840.14,821c-25.92,19.62-54.06,35.48-83.54,49-9.33,4.29-18.83,8.25-28.39,12-11.34,4.43-23.23,5.36-35.34,5.21a84.24,84.24,0,0,1-29.59-5.45,495,495,0,0,1-74.93-36.33C555.27,825.7,525.43,802,500,772.91A106.21,106.21,0,0,1,486.32,754c-11.15-20.52-18.9-42.35-25.26-64.74.94.15,1.89.23,2.8.46,6.61,1.63,13.23,3.66,20,3.91,9.64.34,19.33.69,29-1,15.75-2.72,29.67-9.21,41.39-20A70,70,0,0,0,571.57,647c5.94-14.71,7.45-29.85,4-45.15-4.81-21.34-15.29-39.45-33-52.93-10.85-8.27-22.69-14.43-36.09-17.35-5.53-1.21-11.07-2.73-16.68-3.22a86.69,86.69,0,0,0-20.49.16,69.67,69.67,0,0,0-25.52,9.2c-5.14,3.08-10.9,5.4-14.51,10.61-2.05-10.44-4.45-20.82-6.06-31.32-2.43-15.81-4.08-31.76-3.33-47.76.65-14.05,1.83-28.09,3.88-42a418.51,418.51,0,0,1,16.81-71.05,290.15,290.15,0,0,1,28.95-61.33,231.39,231.39,0,0,1,53.05-60.06c26.2-20.79,55.93-34.54,88.24-42.8a344.12,344.12,0,0,1,75.65-10.17c2.1-.06,4.19-.08,6.29-.15C694.15,181.56,694.78,180.71,695,179.44Zm1.44,525.79c9.58-.69,17.8-3.94,23.66-12.29,2.92-4.17,5.69-8.11,4.47-13.47-1.34-5.9-2.33-11.9-4.57-17.55-3.72-9.38-8.9-17.54-18.26-22.43-3.7-1.93-7.09-2.34-10.76-.24-8.51,4.86-14.78,11.5-18.23,20.92-1.9,5.2-2.73,10.63-4.45,15.81-2.07,6.26-1.15,11.42,3.16,16.62C678,700.53,686,705.06,696.41,705.23Z" transform="translate(-302.38 -178.24)"/>
  <path fill="#e19762" d="M963.13,546.7a304.85,304.85,0,0,0,8.11-94,365.25,365.25,0,0,0-7.54-50.78c-6.42-30.09-15.47-59.26-29.66-86.71-13.95-27-31.49-51.22-54.12-71.58a224.68,224.68,0,0,0-75.22-44.47c-23.43-8.4-47.63-13.21-72.38-15.61a303.83,303.83,0,0,0-30.74-1.85c-1.79,0-4,.6-4.46-2.24,3-1.88,6.35-1,9.47-.81,16.15.91,32.3,1.73,48.3,4.39,37.27,6.2,72.23,18.34,103.68,39.74,30.84,21,54.53,48.37,72.83,80.67a291.92,291.92,0,0,1,23.3,52,413.11,413.11,0,0,1,15.85,65.42,401.5,401.5,0,0,1,4.55,46.54A264.15,264.15,0,0,1,972,518.06c-2,12.88-4.73,25.65-7.14,38.47-.12.6-.55,1.34.47,1.5.12,0,.38-.84.57-1.3,6.63-10.55,15.8-18.45,26.26-24.92,8.24-5.11,17.45-6.65,26.91-5.64,22.25,2.38,36.93,17.2,39.5,39.58,3.35,29.25-5,54.66-24.28,77A153.14,153.14,0,0,1,990.58,678a84.71,84.71,0,0,1-24.49,9.12c-8.63,1.65-16.14-.7-23.35-5-1.44-.86-2.58-2.25-4.74-2.56-1.27,1.55-1.53,3.63-2.11,5.57-6.25,21-13,41.8-22.59,61.58a132.25,132.25,0,0,1-21.12,31c-27.56,30.58-59.7,55.3-95.44,75.48a25,25,0,0,0-11.61,14.18c-3.66,10.5-5.16,21.41-6,32.47-1.23,16.5-2.72,33-4.2,49.47a9,9,0,0,0,2.71,7.63A65.4,65.4,0,0,0,797,971c30.93,14.86,62.39,28.29,96.3,35.07,13.8,2.77,27.59,5.81,41.13,9.65,20.56,5.83,39.43,15,54.75,30.5,8.42,8.53,14.64,18.57,19.9,29.11,12.66,25.39,24,51.33,32.44,78.54,11.67,37.63,22.63,75.48,35.19,112.83,4,11.91,8.12,23.78,12.14,35.68,1.51,4.49,1.19,4.84-4,5,0-.69,0-1.38-.07-2.07-2.54-8-4.92-16-7.66-23.89-5.25-15.09-10.38-30.23-15.09-45.5-10.48-34-20.12-68.27-32-101.82a415.94,415.94,0,0,0-29.14-64.4c-4.07-7.28-8.67-14.3-14.67-20.28-14.82-14.79-32.94-23.71-52.78-29.35-10.6-3-21.4-5.35-32.19-7.62-22.2-4.68-44.07-10.35-65-19.35-13.63-5.86-27.67-10.78-40.73-17.92-7-3.83-13.91-7.87-19.39-13.88-.71-1-1.43-1.88-2,.12-.4,1.64.29,3.59-1.14,5.44a14.65,14.65,0,0,1-2.68-10c.82-8.85,1.17-17.74,1.71-26.62,2.31-9.05,1.78-18.39,2.85-27.57,1-8.26,1.52-16.55,3.23-24.73A152.4,152.4,0,0,1,783,861.64c-2.32-.3-3.66.9-5.11,1.61-10.6,5.15-21,10.72-31.83,15.39-12.76,5.5-25.76,10.42-39.66,11.56-14.44,1.18-28.86.07-42.71-4.69-16.76-5.75-32.55-13.71-48.31-21.72-1.79-.91-3.49-2.15-6.21-2.47,1.6,5,2,10,5.78,13.6-.8.6-1.62,1.2,0,1.8l0,0c-1,3.49.71,6.72,1,10.08.87,10.23,2.09,20.44,2.78,30.68.89,13.28,2.59,26.5,3.1,39.81.16,4.16-1.35,7.48-3.26,11.21-1.47-2.46.15-5-1.84-7a6.7,6.7,0,0,0-2.7,1.89c-1,.87-2,1.72-3.07,2.54-11.08,8.64-23.73,14.35-36.66,19.51-13.25,5.28-26.24,11.2-39.79,15.76-21.71,7.3-44.24,11.25-66.43,16.53-14.81,3.53-28.85,8.56-41.93,16.07a85.46,85.46,0,0,0-29.15,26.79c-14.23,21.4-23.94,45-33.12,68.78-11.05,28.58-18.85,58.27-27.94,87.52-6.22,20-12.18,40.05-19.25,59.77-3.39,9.46-6.86,18.92-9.18,28.74l-1.13,2c-4.48-.93-4.51-1-3.16-4.95,4.53-13.33,9.13-26.64,13.58-40,12.84-38.47,23.88-77.5,36.26-116.1,8.23-25.65,19.33-50.07,31.59-74,6.46-12.61,14.72-23.92,25.89-33,15.1-12.29,32.41-19.74,51-24.59,23-6,46.62-9.62,69.27-17.09a527.22,527.22,0,0,0,61.79-25.28,76.24,76.24,0,0,0,21-14.58c2.63-2.61,3.88-5.35,3.53-9.11-1-10.79-1.76-21.6-2.65-32.4-.57-6.82-1.25-13.63-1.8-20.45a116,116,0,0,0-5.78-28.44A25.33,25.33,0,0,0,594.8,852.9c-28.52-16-55-34.89-78.27-57.95-28.34-28.14-34.15-35.23-50.06-77.79-4-10.7-7.27-21.66-10.5-32.62-.48-1.62-1-3.22-1.48-4.67-1.82-.91-2.69.4-3.7,1.13q-13.64,9.86-29.75,5.06a63.42,63.42,0,0,1-6.53-2c-20.63-8.67-38.92-20.65-53.67-37.76-7.61-8.82-15-17.66-19.63-28.56-7.56-17.78-11-36.15-7.3-55.2,3.23-16.78,12.18-29.79,29.38-34.62,15-4.22,29.41-2.23,42.17,7.65,7,5.39,13.71,10.91,18.64,18.33a2.25,2.25,0,0,0,2.08,1.36c.7-1.52.06-3.11-.22-4.65-2.09-11.42-4.64-22.77-6.24-34.25-4-29-3.45-58,.54-87a400.79,400.79,0,0,1,17.51-75c10.4-30.47,25.11-58.76,45.1-84.17C509.7,236,543.6,211.72,584.24,196.74a286.79,286.79,0,0,1,75.65-16.42c9.86-.82,19.73-1.27,29.61-1.81,1.85-.1,3.84-.49,5.47.93-.19,1.27-.82,2.12-2.19,2.16-2.1.07-4.19.09-6.29.15a344.12,344.12,0,0,0-75.65,10.17c-32.31,8.26-62,22-88.24,42.8a231.39,231.39,0,0,0-53.05,60.06,290.15,290.15,0,0,0-28.95,61.33,418.51,418.51,0,0,0-16.81,71.05c-2.05,13.95-3.23,28-3.88,42-.75,16,.9,31.95,3.33,47.76,1.61,10.5,4,20.88,6.06,31.31.29,2.25.49,4.52.89,6.76,4.91,27.1,10.35,54.1,16.65,80.91,4.21,17.92,8.49,35.83,14.22,53.35,6.36,22.39,14.11,44.22,25.26,64.74A106.21,106.21,0,0,0,500,772.91c25.4,29.1,55.24,52.79,88.32,72.5a495,495,0,0,0,74.93,36.33,84.24,84.24,0,0,0,29.59,5.45c12.11.15,24-.78,35.34-5.21,9.56-3.73,19.06-7.69,28.39-12,29.48-13.56,57.62-29.42,83.54-49a347.41,347.41,0,0,0,57.37-54.55,83,83,0,0,0,9-13.87c10.81-20,18.09-41.48,24.49-63.24.55-1.61,1.18-3.2,1.65-4.83q10.4-36.4,18.12-73.48C955.27,589.64,959.77,568.28,963.13,546.7ZM336.28,578.62c-.46,2.78.36,6.16.86,9.53,2.25,15.05,6.6,29.5,15.68,41.84,13.45,18.29,29.66,33.63,50.21,44a127.06,127.06,0,0,0,18.33,7.83,28.51,28.51,0,0,0,24.65-2.9c6.23-3.78,6.95-5.64,5.07-12.48-6.05-22-10.63-44.38-15.67-66.64-2.32-10.24-3.12-20.75-7.68-30.67A76,76,0,0,0,403.25,539c-8.14-6-16.95-8.62-27.08-8.9-20.26-.57-33.37,14.15-37.66,29.79A63.18,63.18,0,0,0,336.28,578.62Zm678.38-48.38a35.06,35.06,0,0,0-21.28,5.64c-8.25,5.22-15.66,11.45-21.45,19.43-4.58,6.3-8.78,13.22-10.4,20.56-4.43,20-8.36,40.21-13,60.23-2.57,11.11-5.44,22.16-8.25,33.22-.48,1.9-1,3.57.61,5.25,6.24,6.32,13.69,9.65,22.58,8.59,12.22-1.45,22.58-7.59,33-13.51,17.81-10.06,32-24.22,43.3-40.77,12.4-18.09,17.32-38.71,15.19-60.77C1053.14,548.39,1038.8,528.85,1014.66,530.24Z" transform="translate(-302.38 -178.24)"/>
  <path fill="#e6a87a" d="M1084.69,1305.28c0,.69,0,1.38.07,2.07-2.09.08-4.18.23-6.27.23H312.58c-2.08,0-4.17-.15-6.26-.24l1.13-2c2.09,0,4.18,0,6.28,0H1019Z" transform="translate(-302.38 -178.24)"/>
  <path fill="#f4d5bd" d="M965.93,556.73c-.19.46-.45,1.32-.57,1.3-1-.16-.59-.9-.47-1.5A9.09,9.09,0,0,1,965.93,556.73Z" transform="translate(-302.38 -178.24)"/>
  <path fill="#fce0da" d="M461.06,689.29c-5.73-17.52-10-35.43-14.22-53.35-6.3-26.81-11.74-53.81-16.65-80.91-.4-2.24-.6-4.51-.89-6.76,3.61-5.2,9.37-7.52,14.51-10.6a69.67,69.67,0,0,1,25.52-9.2,86.69,86.69,0,0,1,20.49-.16c5.61.49,11.15,2,16.68,3.22,13.4,2.92,25.24,9.08,36.09,17.35,17.7,13.48,28.18,31.59,33,52.93,3.44,15.3,1.93,30.44-4,45.15a70,70,0,0,1-17.35,25.71c-11.72,10.8-25.64,17.29-41.39,20-9.64,1.67-19.33,1.32-29,1-6.77-.25-13.39-2.28-20-3.91C463,689.52,462,689.44,461.06,689.29Z" transform="translate(-302.38 -178.24)"/>
  <path fill="#fce0da" d="M963.13,546.7c-3.36,21.58-7.86,42.94-12.35,64.29Q943,648,932.66,684.47c-.47,1.63-1.1,3.22-1.65,4.83-2.92-.26-5.59.91-8.33,1.58-20.61,5-41.19,4.91-60.87-3.12-21.79-8.9-37-24.45-43.76-47.74a76.54,76.54,0,0,1-2.91-29.22A85.57,85.57,0,0,1,833.4,565a94.2,94.2,0,0,1,49.35-32.74,107.86,107.86,0,0,1,37.07-4.1c10.57.71,20.15,4.77,29.33,10C953.91,540.87,957.93,544.75,963.13,546.7Z" transform="translate(-302.38 -178.24)"/>
  <path fill="#fce0da" d="M696.41,705.23c-10.45-.17-18.4-4.7-25-12.63-4.31-5.2-5.23-10.36-3.16-16.62,1.72-5.18,2.55-10.61,4.45-15.81,3.45-9.42,9.72-16.06,18.23-20.92,3.67-2.1,7.06-1.69,10.76.24,9.36,4.89,14.54,13,18.26,22.43,2.24,5.65,3.23,11.65,4.57,17.55,1.22,5.36-1.55,9.3-4.47,13.47C714.21,701.29,706,704.54,696.41,705.23Z" transform="translate(-302.38 -178.24)"/>
  <path fill="#feede1" d="M1084.69,1305.28l-65.67,0H313.73c-2.1,0-4.19,0-6.28,0,2.32-9.82,5.79-19.28,9.18-28.74,7.07-19.72,13-39.78,19.25-59.77,9.09-29.25,16.89-58.94,27.94-87.52,9.18-23.75,18.89-47.38,33.12-68.78a85.46,85.46,0,0,1,29.15-26.79c13.08-7.51,27.12-12.54,41.93-16.07,22.19-5.28,44.72-9.23,66.43-16.53C548,996.6,561,990.68,574.24,985.4c12.93-5.16,25.58-10.87,36.66-19.51,1-.82,2.07-1.67,3.07-2.54a6.7,6.7,0,0,1,2.7-1.89c2,2,.37,4.56,1.84,7,1.91-3.73,3.42-7.05,3.26-11.21-.51-13.31-2.21-26.53-3.1-39.81-.69-10.24-1.91-20.45-2.78-30.68-.29-3.36-2-6.59-1-10.08,2.09-.38,3,1.32,4.23,2.42a127.89,127.89,0,0,0,14.81,11.54c18.59,12.75,38.8,22.41,59.82,30.31a163,163,0,0,0,67,10.61c3.82-.21,7.49-1.19,11.29-1.37-.54,8.88-.89,17.77-1.71,26.62a14.65,14.65,0,0,0,2.68,10c1.43-1.85.74-3.8,1.14-5.44l2-.12c5.48,6,12.39,10.05,19.39,13.88,13.06,7.14,27.1,12.06,40.73,17.92,20.91,9,42.78,14.67,65,19.35,10.79,2.27,21.59,4.61,32.19,7.62,19.84,5.64,38,14.56,52.78,29.35,6,6,10.6,13,14.67,20.28a415.94,415.94,0,0,1,29.14,64.4c11.85,33.55,21.49,67.82,32,101.82,4.71,15.27,9.84,30.41,15.09,45.5C1079.77,1289.29,1082.15,1297.31,1084.69,1305.28Z" transform="translate(-302.38 -178.24)"/>
  <path fill="#feede0" d="M336.28,578.62a63.18,63.18,0,0,1,2.23-18.76c4.29-15.64,17.4-30.36,37.66-29.79,10.13.28,18.94,2.87,27.08,8.9a76,76,0,0,1,24.48,30.17c4.56,9.92,5.36,20.43,7.68,30.67,5,22.26,9.62,44.62,15.67,66.64,1.88,6.84,1.16,8.7-5.07,12.48a28.51,28.51,0,0,1-24.65,2.9A127.06,127.06,0,0,1,403,674c-20.55-10.38-36.76-25.72-50.21-44-9.08-12.34-13.43-26.79-15.68-41.84C336.64,584.78,335.82,581.4,336.28,578.62Z" transform="translate(-302.38 -178.24)"/>
  <path fill="#feede0" d="M1014.66,530.24c24.14-1.39,38.48,18.15,40.38,37.87,2.13,22.06-2.79,42.68-15.19,60.77-11.34,16.55-25.49,30.71-43.3,40.77-10.47,5.92-20.83,12.06-33,13.51-8.89,1.06-16.34-2.27-22.58-8.59-1.66-1.68-1.09-3.35-.61-5.25,2.81-11.06,5.68-22.11,8.25-33.22,4.61-20,8.54-40.18,13-60.23,1.62-7.34,5.82-14.26,10.4-20.56,5.79-8,13.2-14.21,21.45-19.43A35.06,35.06,0,0,1,1014.66,530.24Z" transform="translate(-302.38 -178.24)"/>
  <path fill="#c2968b" d="M772,930.21c-3.8.18-7.47,1.16-11.29,1.37a163,163,0,0,1-67-10.61c-21-7.9-41.23-17.56-59.82-30.31a127.89,127.89,0,0,1-14.81-11.54c-1.19-1.1-2.14-2.8-4.23-2.42l0,0v-1.8c-3.79-3.62-4.18-8.58-5.78-13.6,2.72.32,4.42,1.56,6.21,2.47,15.76,8,31.55,16,48.31,21.72,13.85,4.76,28.27,5.87,42.71,4.69,13.9-1.14,26.9-6.06,39.66-11.56,10.84-4.67,21.23-10.24,31.83-15.39,1.45-.71,2.79-1.91,5.11-1.61a152.4,152.4,0,0,0-4.87,16.27c-1.71,8.18-2.26,16.47-3.23,24.73C773.8,911.82,774.33,921.16,772,930.21Z" transform="translate(-302.38 -178.24)"/>
  <path fill="#f4d5bd" d="M776.09,961.27l-2,.12C774.66,959.39,775.38,960.3,776.09,961.27Z" transform="translate(-302.38 -178.24)"/>
  <path fill="#feede1" d="M614.92,874.92v1.8C613.3,876.12,614.12,875.52,614.92,874.92Z" transform="translate(-302.38 -178.24)"/>
</svg>
