<svg id="Layer_18" xmlns="http://www.w3.org/2000/svg" viewBox="0 0 787.08 1129.23">
  <path fill="#c66037" d="M694.93,179.7l2.26-.08c.36,2,1.83,2.11,3.45,2.12,6.84,0,13.66.64,20.47.91a277.35,277.35,0,0,1,42.32,5.16c27.53,5.45,53.9,14.31,78.44,28.35a223.43,223.43,0,0,1,68.55,60.9c17.67,23.61,30.89,49.7,40.45,77.57A403.26,403.26,0,0,1,967,419.17c3,18,5,36.09,4.63,54.38-.1,5.33-.07,10.66-.07,16a151,151,0,0,1-2.72,28.29c-3.14,16.38-5.84,32.84-9.07,49.2-6.38,32.37-12.94,64.71-21.45,96.61-5.58,20.94-11.9,41.63-19.38,62a159.32,159.32,0,0,1-38.5,59.93c-8.58,8.38-17.29,16.56-26.46,24.3a381.93,381.93,0,0,1-47.77,34,489.92,489.92,0,0,1-62.5,31.79c-6.64,2.85-13.29,5.64-20.16,7.89-10.48,3.42-21.28,3.49-32.14,3.49a77.32,77.32,0,0,1-27.33-4.89c-12.28-4.61-24.23-10-36.11-15.61a456.08,456.08,0,0,1-48-26.29,359.84,359.84,0,0,1-56.52-43.21c-7.88-7.44-15.28-15.37-22.67-23.32-9.77-10.53-16.61-22.7-22.4-35.55-10.73-23.81-17.83-48.86-24.54-74q-6.37-23.91-11.49-48.15c-2.62-12.43-5.42-24.83-7.83-37.3-3.16-16.37-5.81-32.84-9.08-49.19-3.14-15.68-5.22-31.43-4.92-47.45.12-6.1.19-12.2,0-18.29-.28-11.25,1.13-22.39,2.67-33.46a439.7,439.7,0,0,1,10-49,311.23,311.23,0,0,1,28.6-73c13.69-24.86,30.41-47.23,51.86-66a219.63,219.63,0,0,1,41.54-28.93c24.53-13.06,50.6-21.51,78-26.24a380.47,380.47,0,0,1,54.29-5.38c1.71,0,3.42-.06,5.14-.06A2.25,2.25,0,0,0,694.93,179.7Z" transform="translate(-302.45 -178.28)"/>

  <path fill="#893b1b" d="M694.93,179.7a2.25,2.25,0,0,1-2.36,2c-1.72,0-3.43,0-5.14.06a380.47,380.47,0,0,0-54.29,5.38c-27.38,4.73-53.45,13.18-78,26.24a219.63,219.63,0,0,0-41.54,28.93c-21.45,18.76-38.17,41.13-51.86,66a311.23,311.23,0,0,0-28.6,73,439.7,439.7,0,0,0-10,49c-1.54,11.07-2.95,22.21-2.67,33.46.15,6.09.08,12.19,0,18.29-.3,16,1.78,31.77,4.92,47.45,3.27,16.35,5.92,32.82,9.08,49.19,2.41,12.47,5.21,24.87,7.83,37.3q5.12,24.23,11.49,48.15c6.71,25.15,13.81,50.2,24.54,74,5.79,12.85,12.63,25,22.4,35.55,7.39,8,14.79,15.88,22.67,23.32A359.84,359.84,0,0,0,580,840.28a456.08,456.08,0,0,0,48,26.29c11.88,5.58,23.83,11,36.11,15.61a77.32,77.32,0,0,0,27.33,4.89c10.86,0,21.66-.07,32.14-3.49,6.87-2.25,13.52-5,20.16-7.89a489.92,489.92,0,0,0,62.5-31.79,381.93,381.93,0,0,0,47.77-34c9.17-7.74,17.88-15.92,26.46-24.3A159.32,159.32,0,0,0,919,725.63c7.48-20.35,13.8-41,19.38-62,8.51-31.9,15.07-64.24,21.45-96.61,3.23-16.36,5.93-32.82,9.07-49.2a151,151,0,0,0,2.72-28.29c0-5.34,0-10.67.07-16,.34-18.29-1.61-36.37-4.63-54.38a403.26,403.26,0,0,0-16.14-64.54c-9.56-27.87-22.78-54-40.45-77.57a223.43,223.43,0,0,0-68.55-60.9c-24.54-14-50.91-22.9-78.44-28.35a277.35,277.35,0,0,0-42.32-5.16c-6.81-.27-13.63-.88-20.47-.91-1.62,0-3.09-.12-3.45-2.12.81-1.5,2.27-1.18,3.54-1.15,46.75.91,92,8.54,134.07,30.17,43.59,22.41,75.66,56.34,99,99.07,16.08,29.48,26.33,61,33.21,93.73,6.13,29.18,9.27,58.64,7.85,88.47a224.07,224.07,0,0,1-4.66,37.89c-2,9.06-3.34,18.27-5,27.48,2.19.48,2.47-1.11,3.13-2a77.86,77.86,0,0,1,23.16-20.94c14.33-8.6,29.67-8.9,44.26-1.7,13,6.41,20.49,18.24,22.56,32.56,4.18,29.07-3.48,54.86-22.3,77.57a151.08,151.08,0,0,1-47.66,38.43,95.31,95.31,0,0,1-19.1,7.39c-10.77,2.86-20.28.25-28.93-6.36-.45-.34-.89-.71-1.35-1a4.63,4.63,0,0,0-.91-.3c-1.26,1.3-1.34,3.25-1.84,4.94A521.83,521.83,0,0,1,919.05,734a155.44,155.44,0,0,1-32.46,49.9,384.59,384.59,0,0,1-88.68,68.59,28,28,0,0,0-13.52,16.78A104,104,0,0,0,779.84,891c-1.76,19.33-3.16,38.69-4.86,58a9.49,9.49,0,0,0,2.86,8.1,66.73,66.73,0,0,0,19.8,14.34c27.64,13.2,55.72,25.38,85.68,32.48,16.27,3.85,32.7,7.08,48.89,11.29,22.66,5.88,43.11,16.07,59.3,33.53,6.78,7.31,11.94,15.82,16.45,24.63a547.11,547.11,0,0,1,36.9,91.35c10.68,35.29,21,70.7,33,105.57,3.65,10.61,7.2,21.25,10.79,31.88,1.62,4.8,1.29,5.3-3.57,5.36-1.71,0-3.43,0-5.14,0H308.51c-7,0-7,0-4.71-6.5,17.47-49.89,32.34-100.61,48.06-151,8.35-26.79,19.77-52.28,32.54-77.16,5.28-10.31,11.59-20,20.18-28.18,17.27-16.38,38.09-25.25,60.83-30.81,24-5.87,48.49-9.75,71.79-18.26A579.18,579.18,0,0,0,591.4,973c8.59-4.16,16.63-9.22,23.21-16.35,1.79-2,2.75-3.8,2.5-6.55q-2.13-23.88-4-47.78c-.74-9.5-1.6-19-4.13-28.18-1.46-5.3-2.83-10.61-6.64-15a25.66,25.66,0,0,0-6.85-5.82,412.09,412.09,0,0,1-82.2-61.26,175.89,175.89,0,0,1-45.82-71.94c-4-11.89-8.08-23.76-11.53-35.83-.51-1.77-1.11-3.52-1.64-5.18-1.91-.27-2.51,1.22-3.54,1.92-8.58,5.89-17.81,8.45-28.1,5.49a72.73,72.73,0,0,1-9.22-2.94c-17.92-7.86-34.51-17.74-47.92-32.32-2.44-2.67-4.83-5.39-7.28-8-19.09-20.77-27-45.45-25.49-73.35a49.64,49.64,0,0,1,7.58-24.24c10-15.85,24.73-21.1,42.65-19.35a42.6,42.6,0,0,1,21.46,8.57c7.38,5.46,14.35,11.33,19.6,19,.49.72.84,1.74,2.31,1.69.45-4.18-1-8.14-1.65-12.14-2.48-14.8-6-29.41-7-44.46a338.18,338.18,0,0,1-.06-46.24,379.64,379.64,0,0,1,17.75-91.06c22.19-67.89,60.6-122.92,126.5-155.32,24.6-12.1,50.7-19.43,77.75-23.6a399.78,399.78,0,0,1,49.46-4.17C691.07,178.46,693.36,177.56,694.93,179.7ZM610.36,863l-.26-.48-.21.21.47.27a43.45,43.45,0,0,0,3.41,11.42,13.31,13.31,0,0,0,.17,2.84c3,11.08,3.14,22.54,4.16,33.84.67,7.34,1,14.81,1.76,22.13.69,6.21.5,12.49,1.64,18.7.94,5.14,1,10.62-2.64,15.47a9.11,9.11,0,0,1-.55-1.74c-.15-1.5.12-3.38-1.61-4s-2.64,1.2-3.68,2.22c-4.69,4.58-10.23,7.88-16,10.92-10.94,5.81-22.41,10.41-33.82,15.19-15.27,6.39-30.67,12.37-46.74,16.4-12.15,3.05-24.41,5.61-36.57,8.59-13.63,3.33-27.29,6.24-40.36,11.87a100.55,100.55,0,0,0-50.57,46.5c-4.84,9.07-8.82,18.53-13.29,27.76-10.22,21.14-17.72,43.25-24.56,65.63-8.33,27.25-16.52,54.54-25.09,81.72-5.09,16.13-10.84,32-16.24,48.09-2.94,8.73-2.89,8.75,6.09,8.75h760.64c1.33,0,2.67.07,4,0s2.68.46,3.82-1.13c-.29-1.09-.55-2.38-1-3.61-16.48-47.21-30.78-95.11-45.4-142.9-8.77-28.66-20.55-56-34.18-82.66-4.25-8.31-9.13-16.3-15.46-23.2-14.58-15.89-33-25.46-53.45-31.28-10.58-3-21.34-5.38-32.07-7.82-14.81-3.36-29.67-6.47-44.12-11.22-17.19-5.65-33.6-13.23-50.32-20a132,132,0,0,1-29.5-17.15c-1.28-1-2.12-2.76-4-2.66-1.95,1.4,0,4-1.94,5.55a15.87,15.87,0,0,1-2.65-9.34c.29-9.11,1.26-18.16,2.23-27.21-.44-7.8.92-15.5,1.36-23.25.42-7.53,1.31-15,2.28-22.54s3.54-14.73,5.88-22.91c-12.24,5.45-22.84,11.41-34,16.29-17.55,7.69-35.33,13-54.91,12.42a119.16,119.16,0,0,1-39.24-8.22c-12.8-4.89-24.92-11.27-37.15-17.37C614.74,864,612.81,862.72,610.36,863ZM378.24,530.36c-21.34-1.41-35.82,12.53-40,31.29-2,9-1.69,18.26-.82,27.26a82,82,0,0,0,14.89,40.2c12.05,16.75,26.53,31.23,44.81,41.53,8.64,4.87,17.39,9.22,27,11.84,8,2.17,15,.35,21.79-3.63,6.15-3.63,6.82-5.58,5-12.47-6.81-26.24-13.06-52.61-17.82-79.3a86.83,86.83,0,0,0-9-25.35c-5-9.53-12.6-16.63-21.06-22.85C395.58,533.38,387.4,529.45,378.24,530.36ZM1055,577.23c0-2.66.08-5.33,0-8a41.39,41.39,0,0,0-13.65-29.78c-12-11-26.68-12.05-41.09-6.63s-25.35,16-32.65,29.68c-2.52,4.72-5.34,9.43-6.46,14.87q-5.49,26.42-11.23,52.8-4.27,19.73-9.69,39.19c-.49,1.77-.81,3.25.6,4.72,6.57,6.86,14.34,10.43,24,8.84,10.09-1.65,19-6.21,27.9-11,18.28-9.87,33-23.82,45.16-40.25C1049.77,615.67,1055.28,597.25,1055,577.23Z" transform="translate(-302.45 -178.28)"/>

  <path fill="#c66237" d="M772.53,930.63c-1,9-1.94,18.1-2.23,27.21a15.87,15.87,0,0,0,2.65,9.34c1.89-1.55,0-4.15,1.94-5.55,1.88-.1,2.72,1.69,4,2.66a132,132,0,0,0,29.5,17.15c16.72,6.81,33.13,14.39,50.32,20,14.45,4.75,29.31,7.86,44.12,11.22,10.73,2.44,21.49,4.82,32.07,7.82,20.45,5.82,38.87,15.39,53.45,31.28,6.33,6.9,11.21,14.89,15.46,23.2,13.63,26.62,25.41,54,34.18,82.66,14.62,47.79,28.92,95.69,45.4,142.9.43,1.23.69,2.52,1,3.61-1.14,1.59-2.58,1-3.82,1.13s-2.67,0-4,0H315.91c-9,0-9,0-6.09-8.75,5.4-16,11.15-32,16.24-48.09,8.57-27.18,16.76-54.47,25.09-81.72,6.84-22.38,14.34-44.49,24.56-65.63,4.47-9.23,8.45-18.69,13.29-27.76a100.55,100.55,0,0,1,50.57-46.5c13.07-5.63,26.73-8.54,40.36-11.87,12.16-3,24.42-5.54,36.57-8.59,16.07-4,31.47-10,46.74-16.4,11.41-4.78,22.88-9.38,33.82-15.19,5.73-3,11.27-6.34,16-10.92,1-1,2-2.78,3.68-2.22s1.46,2.45,1.61,4a9.11,9.11,0,0,0,.55,1.74c3.64-4.85,3.58-10.33,2.64-15.47-1.14-6.21-1-12.49-1.64-18.7-.8-7.32-1.09-14.79-1.76-22.13-1-11.3-1.15-22.76-4.16-33.84a13.31,13.31,0,0,1-.17-2.84c1.77.84,2.92,2.4,4.28,3.71a129.6,129.6,0,0,0,18.87,14.58c15.39,10.17,32,18.15,49,25.2,21.75,9,44.26,14.17,68,13.8C760.12,931.58,766.3,930.71,772.53,930.63Z" transform="translate(-302.45 -178.28)"/>

  <path fill="#c56137" d="M378.24,530.36c9.16-.91,17.34,3,24.81,8.52,8.46,6.22,16.05,13.32,21.06,22.85a86.83,86.83,0,0,1,9,25.35c4.76,26.69,11,53.06,17.82,79.3,1.79,6.89,1.12,8.84-5,12.47-6.76,4-13.82,5.8-21.79,3.63-9.65-2.62-18.4-7-27-11.84-18.28-10.3-32.76-24.78-44.81-41.53a82,82,0,0,1-14.89-40.2c-.87-9-1.22-18.22.82-27.26C342.42,542.89,356.9,529,378.24,530.36Z" transform="translate(-302.45 -178.28)"/>

  <path fill="#c56137" d="M1055,577.23c.27,20-5.24,38.44-17.12,54.43-12.21,16.43-26.88,30.38-45.16,40.25-8.91,4.81-17.81,9.37-27.9,11-9.66,1.59-17.43-2-24-8.84-1.41-1.47-1.09-3-.6-4.72q5.44-19.46,9.69-39.19q5.7-26.38,11.23-52.8c1.12-5.44,3.94-10.15,6.46-14.87,7.3-13.71,18.22-24.26,32.65-29.68s29.13-4.34,41.09,6.63A41.39,41.39,0,0,1,1055,569.24C1055.09,571.9,1055,574.57,1055,577.23Z" transform="translate(-302.45 -178.28)"/>

  <path fill="#973d21" d="M772.53,930.63c-6.23.08-12.41,1-18.66,1-23.7.37-46.21-4.78-68-13.8-17-7-33.6-15-49-25.2a129.6,129.6,0,0,1-18.87-14.58c-1.36-1.31-2.51-2.87-4.28-3.71A43.45,43.45,0,0,1,610.36,863c2.45-.25,4.38,1.07,6.41,2.08,12.23,6.1,24.35,12.48,37.15,17.37a119.16,119.16,0,0,0,39.24,8.22c19.58.62,37.36-4.73,54.91-12.42,11.14-4.88,21.74-10.84,34-16.29-2.34,8.18-4.9,15.38-5.88,22.91s-1.86,15-2.28,22.54C773.45,915.13,772.09,922.83,772.53,930.63Z" transform="translate(-302.45 -178.28)"/>

  <polygon fill="#973d21" points="307.91 684.68 307.44 684.42 307.65 684.21 307.91 684.68" transform="translate(-302.45 -178.28)"/>
</svg>
