<svg id="Layer_19" data-name="Layer 19" xmlns="http://www.w3.org/2000/svg" viewBox="0 0 787.05 1129.19">
  <path fill="#ea9470" d="M695,179.6l2.21-.07c.48,2.82,2.72,2.13,4.5,2.17,10.46.27,20.88,1,31.3,2a288.13,288.13,0,0,1,74.37,16.42q65.94,24.35,106.46,81.77C933.08,309.1,946.89,339,956,371.13c8,28.26,13.53,56.95,15.4,86.25,1.92,30.19-1.34,60-8.32,89.37-4.55-2.75-9.17-5.38-13.63-8.27-14.76-9.54-31.17-12.12-48.11-10.09a110.53,110.53,0,0,0-29.65,7.55,92.63,92.63,0,0,0-40.89,32.49,87.71,87.71,0,0,0-14.92,37.72,77.22,77.22,0,0,0,4.54,41.24C827.1,664.16,839,676.46,855,684.58c21.43,10.9,44,11.62,67.1,6.5,3-.65,5.77-2,8.88-1.77a349.2,349.2,0,0,1-15.48,44.62c-4.71,11.25-9.79,22.41-17.54,31.92-20.23,24.79-43.93,45.83-70.18,64.06-30,20.84-62.28,37.43-96.21,50.77-23.82,9.37-47.94,9.15-71.79-.31a505.63,505.63,0,0,1-53.29-24.74c-39.37-21.19-74.88-47.29-104.75-80.83a136.27,136.27,0,0,1-22.77-35.33,368.92,368.92,0,0,1-14.75-39.54c-1-3-2.83-5.87-2.62-9.26,1.05-1.69,2.4-1.16,4-.79,6.07,1.4,12.14,3.4,18.29,3.74,16.74.92,33.22.16,49-7.12C545.6,680.61,556,672.42,564,661c9-12.85,12.88-27.21,13.27-42.74a79.24,79.24,0,0,0-1.23-13,77.34,77.34,0,0,0-8.5-26.37c-6.17-11.36-13.83-21.68-24.44-29.56a105.89,105.89,0,0,0-24-13.85c-9.42-3.73-19.24-5.71-29.13-7.1a70.46,70.46,0,0,0-46.53,9.55c-5,3-10.35,5.56-14.08,10.3-1.77-8.54-3.71-17.06-5.28-25.64-4.13-22.41-4.61-45.07-3.23-67.72,1.43-23.38,5.6-46.4,11.2-69.17,9-36.57,23.27-70.8,44.79-101.82,22.37-32.22,51-57.37,86.32-74.57,33.31-16.22,68.81-24,105.59-26.48,7.59-.51,15.21-.76,22.81-1.09C693.12,181.65,694.62,181.63,695,179.6Zm29.69,503.13c.31-4.8-1.41-8.94-2.45-13.09-2.51-10-6.06-19.47-14.94-26-10.67-7.83-10.84-8-21.83-.59A30.82,30.82,0,0,0,674.26,657c-2.65,6.11-4.2,12.53-6,18.91s-1.14,11.35,3.1,16.64c6.08,7.59,13.71,12.23,23.12,12.49,10.15.27,19.46-2.87,25.46-12.09C722.07,689.68,725.57,687,724.64,682.73Z" transform="translate(-302.5 -178.31)"/>
  <path fill="#a03820" d="M461.56,690.67c-.21,3.39,1.65,6.21,2.62,9.26a368.92,368.92,0,0,0,14.75,39.54A136.27,136.27,0,0,0,501.7,774.8c29.87,33.54,65.38,59.64,104.75,80.83a505.63,505.63,0,0,0,53.29,24.74c23.85,9.46,48,9.68,71.79.31,33.93-13.34,66.2-29.93,96.21-50.77,26.25-18.23,50-39.27,70.18-64.06,7.75-9.51,12.83-20.67,17.54-31.92a347.61,347.61,0,0,0,15.47-44.62c.6-1.79,1.28-3.56,1.8-5.38q10-35,17.57-70.69c4.66-22.08,9.4-44.16,12.8-66.49,7-29.4,10.24-59.18,8.32-89.37-1.87-29.3-7.37-58-15.4-86.25-9.13-32.14-22.94-62-42.23-89.28q-40.54-57.27-106.46-81.77A288.13,288.13,0,0,0,733,183.66c-10.42-.94-20.84-1.69-31.3-2-1.78,0-4,.65-4.5-2.17.92-1.33,2.34-1.08,3.63-1.06,45,.91,88.61,8,129.48,27.91,43.68,21.29,76.44,54,100.46,95.93,16.7,29.15,27.68,60.42,34.95,93.09,6.94,31.17,10.7,62.65,9.13,94.61a223.33,223.33,0,0,1-4.68,37.9c-2,9.05-3.33,18.26-5,27.42,2.28.46,2.52-1.2,3.2-2.14a78,78,0,0,1,23.19-20.92c14.35-8.58,29.7-8.84,44.27-1.6,13,6.45,20.43,18.29,22.47,32.63,4.13,29.07-3.56,54.84-22.41,77.54a151.2,151.2,0,0,1-47.71,38.38,87.18,87.18,0,0,1-21.35,7.8c-9.68,2.11-18-.82-25.79-6.2-.91-.63-1.49-1.78-3.16-1.84-1.45,2.67-2,5.82-2.85,8.81-5.74,19.13-12,38.07-20.51,56.21A133.5,133.5,0,0,1,893,776.76c-27.59,30.83-59.8,55.77-95.71,76.06a26.34,26.34,0,0,0-12.33,15,99,99,0,0,0-5.09,23.35c-1.78,19.14-3.11,38.31-4.85,57.45a10.49,10.49,0,0,0,3.37,9,67.6,67.6,0,0,0,19.44,13.87c27.64,13.21,55.74,25.34,85.69,32.47,16.09,3.83,32.33,7,48.34,11.14,22.89,5.88,43.51,16.12,59.81,33.76,6.76,7.32,11.91,15.84,16.41,24.66a536.43,536.43,0,0,1,35.52,87c11.21,36.72,21.89,73.62,34.36,110q5.47,15.91,10.81,31.87c1.57,4.65,1.21,5.09-3.91,5.14h-776c-7.26,0-7.29,0-4.92-6.79,17.47-49.9,32.34-100.62,48.06-151.07,8.29-26.61,19.69-51.91,32.34-76.64,5.19-10.15,11.34-19.76,19.72-27.83,17.28-16.66,38.26-25.69,61.19-31.32s46.23-9.37,68.56-17.13a542.13,542.13,0,0,0,59-24.42c8.22-4,15.9-9,22.09-16a7.46,7.46,0,0,0,2.26-6.07c-1.39-15.93-2.66-31.86-3.93-47.79-.75-9.49-1.58-19-4.11-28.18-1.51-5.49-3-10.93-6.9-15.48a25.66,25.66,0,0,0-7-5.69,405.44,405.44,0,0,1-83.33-62.58A172.4,172.4,0,0,1,468.58,723c-5.09-14.52-9.85-29.12-14.12-43.78-1.89-.55-2.5,1-3.52,1.7-8.53,6-17.75,8.51-28.05,5.66a71.22,71.22,0,0,1-9.23-2.92c-17.94-7.82-34.53-17.71-48-32.25-2.58-2.8-5.1-5.66-7.67-8.47-18.86-20.68-26.72-45.2-25.24-72.89a49.53,49.53,0,0,1,12.71-31.07c10.12-11.42,23.16-13.8,37.38-12.66,8,.64,15.06,3.76,21.49,8.49,7.55,5.56,14.65,11.56,20,19.42.38.57.68,1.42,2,1.3.64-4.11-.91-8-1.57-12-2.5-15-6.08-29.79-7.05-45a342.89,342.89,0,0,1,0-46.23,378,378,0,0,1,17.67-90.51C457.85,293,496.84,237.56,563.9,205.37c24-11.53,49.41-18.58,75.69-22.66A403.55,403.55,0,0,1,689,178.52c2-.06,4.23-.84,5.91,1.08-.33,2-1.83,2.05-3.43,2.12-7.6.33-15.22.58-22.81,1.09-36.78,2.51-72.28,10.26-105.59,26.48-35.35,17.2-63.95,42.35-86.32,74.57-21.52,31-35.78,65.25-44.79,101.82-5.6,22.77-9.77,45.79-11.2,69.17-1.38,22.65-.9,45.31,3.23,67.72,1.57,8.58,3.51,17.1,5.29,25.64.32,6.85,2.07,13.49,3.32,20.19,4.86,26.11,10.32,52.11,16.62,77.91C452.9,661.22,456.63,676.12,461.56,690.67ZM772,930.24c1-10.73,2.29-21.43,2.88-32.18a122.7,122.7,0,0,1,5.65-30.66c.48-1.5,2-3,.55-5.15l-5.54,2.7c-12.27,6.06-24.36,12.53-37.18,17.44-9.06,3.48-18.21,7.22-27.88,7.77-17.27,1-34.51,1-51.16-5.57-14.9-5.88-29.2-12.93-43.5-20.06-1.78-.89-3.47-2.15-5.93-2.47,1.36,4.35,2.59,8.27,3.82,12.19,1.38,8.83,3,17.59,3.58,26.55.69,11.39,2,22.74,2.93,34.12.63,7.77,1.16,15.56,1.53,23.35.2,4.32-.27,5.06-3.32,8.71-1.39-1.52,0-3.81-1.48-5.3-1.12-.16-1.72.64-2.44,1.24a101.83,101.83,0,0,1-22.93,14.86c-16.93,7.84-34.18,14.93-51.66,21.43-17.89,6.65-36.62,10.16-55.1,14.62-14,3.38-28.25,6-41.74,11.51-22.24,9.11-40.24,22.94-51.85,44.32-13.38,24.63-24.94,50.09-33.48,76.81-16.51,51.64-31.49,103.77-49.34,155-.37,1-1.07,2.07-.33,3.58h776.14c.56-2.17-.53-3.88-1.14-5.61-15.48-43.78-28.88-88.24-42.2-132.7a531.88,531.88,0,0,0-36.09-89.92c-5.37-10.49-11.51-20.56-20.17-28.89-10.47-10.09-22.81-16.94-36-22.7-11.63-5.08-24.05-7.1-36.19-10.2-13.26-3.4-26.7-6-40-9.43-18.31-4.67-35.62-12.19-53-19.43-11.78-4.91-23.58-9.78-34.09-17.18-3.39-2.38-6.61-5-9.9-7.52-1.72,1.66-.73,4.19-2.29,5.82a15.27,15.27,0,0,1-2.8-10.26C771,948.1,771.44,939.16,772,930.24ZM336.81,578c-.55,14.86,3.95,28.5,9.94,41.8,3.82,8.45,10,15.19,15.87,22.19,13.49,16.09,30.29,27.6,49.18,36.28,3.1,1.42,6.41,2.39,9.64,3.51,8.89,3.11,17.26,1.73,25.1-3.2,5.6-3.52,6.32-5.5,4.63-11.65-6.61-24-11.85-48.35-16.84-72.75-2-10-3.55-20-8.39-29.24-5.72-10.89-13.83-19.33-23.63-26.6-10.4-7.72-21.89-9.53-34.1-7.45-16.65,2.83-25.16,14.41-29.84,29.55C336.61,566.13,337,572.09,336.81,578Zm718.49-.34c.14-7-.3-13.79-2.59-20.34-3.64-10.44-9.81-19.36-20.09-23.68-13.22-5.56-26.82-5.35-39.43,2.46-8.28,5.13-15.85,11.31-21.33,19.51s-10.09,17.08-12,27.2c-2.82,15.31-6.21,30.53-9.64,45.72-3.1,13.71-6.55,27.34-10,41-.49,2-.83,3.58.8,5.21,6.12,6.11,13.4,9.46,22.06,8.47,8.38-1,16.15-4.06,23.62-8A155.39,155.39,0,0,0,1031.24,640C1047.12,621.92,1054.57,601.2,1055.3,577.63ZM427.35,557.48l-.5-.81c-.15.26-.44.53-.43.79s.29.57.46.86C427,558,427.19,557.76,427.35,557.48Z" transform="translate(-302.5 -178.31)"/>
  <path fill="#e9876b" d="M963.1,546.75c-3.4,22.33-8.14,44.41-12.8,66.49q-7.53,35.65-17.57,70.69c-.52,1.82-1.2,3.59-1.8,5.38-3.1-.18-5.92,1.12-8.87,1.77-23.07,5.12-45.67,4.4-67.1-6.5-16-8.12-27.86-20.42-34.52-37.19a77.22,77.22,0,0,1-4.54-41.24,87.71,87.71,0,0,1,14.92-37.72,92.63,92.63,0,0,1,40.89-32.49,110.53,110.53,0,0,1,29.65-7.55c16.94-2,33.35.55,48.11,10.09C953.93,541.37,958.55,544,963.1,546.75Z" transform="translate(-302.5 -178.31)"/>
  <path fill="#e9876b" d="M461.56,690.67c-4.93-14.55-8.66-29.45-12.29-44.36-6.3-25.8-11.76-51.8-16.62-77.91-1.25-6.7-3-13.34-3.32-20.19,3.72-4.74,9.09-7.32,14.07-10.3a70.46,70.46,0,0,1,46.53-9.55c9.89,1.39,19.71,3.37,29.13,7.1a105.89,105.89,0,0,1,24,13.85c10.61,7.88,18.27,18.2,24.44,29.56a77.34,77.34,0,0,1,8.5,26.37,77.34,77.34,0,0,1,8.5,26.37,79.24,79.24,0,0,1,1.23,13C576.88,633.75,573,648.11,564,661c-8,11.46-18.4,19.65-31.18,25.54-15.77,7.28-32.25,8-49,7.12-6.15-.34-12.22-2.34-18.29-3.74C464,689.51,462.61,689,461.56,690.67Z" transform="translate(-302.5 -178.31)"/>
  <path fill="#e9876b" d="M724.64,682.73c.93,4.29-2.57,6.95-4.7,10.21-6,9.22-15.31,12.36-25.46,12.09-9.41-.26-17-4.9-23.12-12.49-4.24-5.29-4.87-10.37-3.1-16.64s3.35-12.8,6-18.91a30.82,30.82,0,0,1,11.16-13.93c11-7.37,11.16-7.24,21.83.59,8.88,6.52,12.43,16,14.94,26C723.23,673.79,725,677.93,724.64,682.73Z" transform="translate(-302.5 -178.31)"/>
  <path fill="#ea9470" d="M772,930.24c-.53,8.92-1,17.86-1.63,26.77a15.27,15.27,0,0,0,2.8,10.26c1.56-1.63.57-4.16,2.29-5.82,3.29,2.51,6.51,5.14,9.9,7.52,10.51,7.4,22.31,12.27,34.09,17.18,17.39,7.24,34.7,14.76,53,19.43,13.26,3.39,26.7,6,40,9.43,12.14,3.1,24.56,5.12,36.19,10.2,13.2,5.76,25.54,12.61,36,22.7,8.66,8.33,14.8,18.4,20.17,28.89a531.88,531.88,0,0,1,36.09,89.92c13.32,44.46,26.72,88.92,42.2,132.7.61,1.73,1.7,3.44,1.14,5.61H308.05c-.74-1.51,0-2.53.33-3.58,17.85-51.21,32.83-103.34,49.34-155,8.54-26.72,20.1-52.18,33.48-76.81,11.61-21.38,29.61-35.21,51.85-44.32,13.49-5.52,27.71-8.13,41.74-11.51,18.48-4.46,37.21-8,55.1-14.62,17.48-6.5,34.73-13.59,51.66-21.43a101.83,101.83,0,0,0,22.93-14.86c.72-.6,1.32-1.4,2.44-1.24,1.44,1.49.09,3.78,1.48,5.3,3.05-3.65,3.52-4.39,3.32-8.71-.37-7.79-.9-15.58-1.53-23.35-.93-11.38-2.24-22.73-2.93-34.12-.54-9-2.2-17.72-3.58-26.54,1.29,1.11,2.61,2.19,3.86,3.34a155.25,155.25,0,0,0,24.07,18.1,300.2,300.2,0,0,0,50.58,24.67c18.56,7,37.69,11.37,57.68,11.25C757.26,931.57,764.67,931.81,772,930.24Z" transform="translate(-302.5 -178.31)"/>
  <path fill="#ea946f" d="M336.81,578c.19-5.88-.2-11.84,1.56-17.56,4.68-15.14,13.19-26.72,29.84-29.55,12.21-2.08,23.7-.27,34.1,7.45,9.8,7.27,17.91,15.71,23.63,26.6,4.84,9.24,6.35,19.28,8.39,29.24,5,24.4,10.23,48.73,16.84,72.75,1.69,6.15,1,8.13-4.63,11.65-7.84,4.93-16.21,6.31-25.1,3.2-3.23-1.12-6.54-2.09-9.64-3.51-18.89-8.68-35.69-20.19-49.18-36.28-5.87-7-12.05-13.74-15.87-22.19C340.76,606.47,336.26,592.83,336.81,578Z" transform="translate(-302.5 -178.31)"/>
  <path fill="#ea9470" d="M1055.3,577.63c-.73,23.57-8.18,44.29-24.06,62.35a155.39,155.39,0,0,1-44.46,35.16c-7.47,4-15.24,7.06-23.62,8-8.66,1-15.94-2.36-22.06-8.47-1.63-1.63-1.29-3.23-.8-5.21,3.41-13.64,6.86-27.27,10-41,3.43-15.19,6.82-30.41,9.64-45.72,1.87-10.12,6.41-18.88,12-27.2s13-14.38,21.33-19.51c12.61-7.81,26.21-8,39.43-2.46,10.28,4.32,16.45,13.24,20.09,23.68C1055,563.84,1055.44,570.68,1055.3,577.63Z" transform="translate(-302.5 -178.31)"/>
  <path fill="#b25d45" d="M772,930.24c-7.3,1.57-14.71,1.33-22.1,1.38-20,.12-39.12-4.23-57.68-11.25a300.2,300.2,0,0,1-50.58-24.67,155.25,155.25,0,0,1-24.07-18.1c-1.25-1.15-2.57-2.23-3.86-3.34l-3.82-12.2c2.46.32,4.15,1.58,5.93,2.47,14.3,7.13,28.6,14.18,43.5,20.06,16.65,6.57,33.89,6.55,51.16,5.57,9.67-.55,18.82-4.29,27.88-7.77,12.82-4.91,24.91-11.38,37.18-17.44l5.54-2.7c1.4,2.16-.07,3.65-.55,5.15a122.7,122.7,0,0,0-5.65,30.66C774.26,908.81,773,919.51,772,930.24Z" transform="translate(-302.5 -178.31)"/>
  <path fill="#dbb4a2" d="M427.35,557.48c-.16.28-.32.56-.47.84-.17-.29-.45-.57-.46-.86s.28-.53.43-.79Z" transform="translate(-302.5 -178.31)"/>
</svg>
