<svg id="Layer_17" xmlns="http://www.w3.org/2000/svg" viewBox="0 0 788 1130">
  <path fill="#b04e2c" d="M392.6,1.48l2.2-.09c.49,2.36,2.35,2.1,4.05,2.1,11.6,0,23.11,1.15,34.65,2.13a280.5,280.5,0,0,1,86.75,21.34,224.35,224.35,0,0,1,67.76,45.57,227,227,0,0,1,29.24,35.59,300.64,300.64,0,0,1,25.18,46,242,242,0,0,1,10.84,28.19,453.48,453.48,0,0,1,12.34,49.12c3.44,18.48,6.07,37.06,6.19,55.91,0,8,0,16,0,24a156.49,156.49,0,0,1-2.7,28.3c-3,16.4-5.92,32.83-9.1,49.19-4.45,22.89-9.09,45.74-14.44,68.45-7.21,30.53-15.33,60.75-26.43,90.13-7.5,19.94-17.29,38.46-32.45,53.79-10.71,10.83-21.48,21.53-33.25,31.25a420.74,420.74,0,0,1-72.79,47.84c-14.66,7.7-29.87,14.22-45,20.86-20.86,9.11-42.41,10.23-64.15,5-14.06-3.39-27-10.16-40.11-16.27a458.08,458.08,0,0,1-49.17-26.6c-30-18.76-57.15-40.78-80.77-67.29-10.85-12.18-18.42-26-24.81-40.67-9-20.8-15.37-42.5-21.24-64.32-8.19-30.4-15-61.15-20.81-92.1-3.05-16.2-5.81-32.46-9.09-48.61-2-10.06-4.05-20.17-4.34-30.35-.49-17.28-1-34.58.69-51.9a420.9,420.9,0,0,1,8.19-51.05c5.32-23.8,12.4-47,22.83-69.11,15-31.76,34.26-60.46,61-83.76a222.53,222.53,0,0,1,41.55-28.93,257.39,257.39,0,0,1,78-26.25,383.38,383.38,0,0,1,54.29-5.38c1.71,0,3.43-.05,5.14-.05A2.31,2.31,0,0,0,392.6,1.48Z" />
  
  <path fill="#6b2d1a" d="M392.6,1.48a2.31,2.31,0,0,1-2.4,2c-1.71,0-3.43,0-5.14.05a383.38,383.38,0,0,0-54.29,5.38,257.39,257.39,0,0,0-78,26.25,222.53,222.53,0,0,0-41.55,28.93c-26.74,23.3-46,52-61,83.76-10.43,22.07-17.51,45.31-22.83,69.11a420.9,420.9,0,0,0-8.19,51.05c-1.67,17.32-1.18,34.62-.69,51.9.29,10.18,2.3,20.29,4.34,30.35,3.28,16.15,6,32.41,9.09,48.61,5.83,30.95,12.62,61.7,20.81,92.1,5.87,21.82,12.21,43.52,21.24,64.32,6.39,14.71,14,28.49,24.81,40.67,23.62,26.51,50.76,48.53,80.77,67.29a458.08,458.08,0,0,0,49.17,26.6c13.08,6.11,26,12.88,40.11,16.27,21.74,5.23,43.29,4.11,64.15-5,15.17-6.64,30.38-13.16,45-20.86a420.74,420.74,0,0,0,72.79-47.84c11.77-9.72,22.54-20.42,33.25-31.25,15.16-15.33,24.95-33.85,32.45-53.79,11.1-29.38,19.22-59.6,26.43-90.13,5.35-22.71,10-45.56,14.44-68.45,3.18-16.36,6.09-32.79,9.1-49.19a156.49,156.49,0,0,0,2.7-28.3c0-8,.06-16,0-24-.12-18.85-2.75-37.43-6.19-55.91a453.48,453.48,0,0,0-12.34-49.12,242,242,0,0,0-10.84-28.19,300.64,300.64,0,0,0-25.18-46,227,227,0,0,0-29.31-35.59A224.35,224.35,0,0,0,517.6,26.94a280.5,280.5,0,0,0-84.1-21.32c-11.54-1-23.05-2.18-34.65-2.13-1.7,0-3.56.26-4.05-2.1.61-1.31,1.82-1.21,2.94-1.19,52.7.95,103.24,10.41,149,38.23,36.75,22.32,64.09,53.41,84.59,90.9,16.1,29.46,26.36,61,33.24,93.69,6.14,29.18,9.3,58.63,7.88,88.46a226.59,226.59,0,0,1-4.72,38.45c-2,9-3.29,18.15-4.91,27.28,1.84.15,2.2-.89,2.69-1.6,5.58-8.15,13-14.44,21-20,14.24-9.79,29.83-10.77,45.13-4.13,14.22,6.18,22.16,18.54,24.31,33.74,4.16,29.29-3.78,55.16-22.88,77.92a151.81,151.81,0,0,1-47.37,37.9A88.25,88.25,0,0,1,664.9,508.76c-10.09,2.31-18.73-.7-26.75-6.53-.74-.53-1.25-1.49-2.84-1.35-2,6.45-4,13.07-6,19.7-3.7,12-8,23.76-12.69,35.41A154.18,154.18,0,0,1,584.05,605.76a386.24,386.24,0,0,1-89.2,68.83,26.22,26.22,0,0,0-12.3,15,98.87,98.87,0,0,0-5.09,23.34c-1.79,19.13-3.11,38.31-4.86,57.44-.35,3.82.86,6.36,3.43,9a67.43,67.43,0,0,0,19.44,13.86c27.81,13.29,56.08,25.45,86.21,32.59,16.09,3.82,32.35,6.93,48.34,11.11,22.64,5.93,43.1,16.12,59.23,33.63,6.75,7.33,11.9,15.84,16.41,24.65a545.76,545.76,0,0,1,36.71,90.78c10.74,35.46,21.09,71,33.15,106.09q5.55,16.17,11,32.38c1.35,4,.83,4.7-3.3,4.79-1.33,0-2.66,0-4,0q-386,0-772,0c-8.56,0-8.26-.12-5.62-7.58,17.54-49.65,32.22-100.21,47.91-150.45,8.31-26.59,19.67-51.89,32.34-76.6,5.37-10.47,11.79-20.33,20.56-28.59,17.16-16.18,37.82-25,60.34-30.52,22.87-5.63,46.23-9.35,68.54-17.13a541.34,541.34,0,0,0,59-24.4c8-3.92,15.55-8.8,21.72-15.52,1.91-2.09,2.93-4.07,2.65-7.06-1.47-15.91-2.86-31.83-4-47.76-.76-10.47-1.94-20.83-4.94-30.92-1.25-4.21-2.77-8.2-5.62-11.72a25.25,25.25,0,0,0-7.31-6.16,409.87,409.87,0,0,1-81.72-60.94,176.6,176.6,0,0,1-46.1-72.4c-4.55-13.49-9-27-12.93-40.59-1.86-.59-2.44,1-3.46,1.69-8.71,6.08-18.11,8.64-28.59,5.54a76,76,0,0,1-9.21-3c-17.88-8-34.48-17.82-47.83-32.44-2.83-3.1-5.64-6.2-8.42-9.34-18.43-20.78-25.82-45.28-24.12-72.69a48.79,48.79,0,0,1,7.34-23.15c10.05-16.09,24.9-21.48,43.05-19.63a42.68,42.68,0,0,1,21.43,8.65,124.81,124.81,0,0,1,11.43,9.47,79.7,79.7,0,0,1,10,12.13,13.42,13.42,0,0,0-.11-6.6c-2.85-17-7.11-33.85-8.25-51.18a335,335,0,0,1,0-46.24A382.29,382.29,0,0,1,132.9,183.76c21.47-66.07,58.36-120.19,121.61-153.2,25.7-13.42,53.14-21.45,81.7-26a387.84,387.84,0,0,1,50.58-4.33C388.72.2,391.04-.77,392.6,1.48Z" />
  
  <path fill="#b14f2d" d="M470.11,752.37c-.91,9-1.94,18.09-2.2,27.2a14.31,14.31,0,0,0,2.85,9.46c1.42-1.73,0-4.15,1.37-5.49,1.59-.54,2.31.61,3.11,1.29,11.74,10,25.51,16.47,39.65,22.14,12.35,5,24.45,10.53,37.05,14.87,15.82,5.46,32.16,8.95,48.46,12.61,9.81,2.2,19.63,4.41,29.35,7a127.25,127.25,0,0,1,40.37,18.17c13.43,9.27,23.4,21.65,30.79,36.1,11.69,22.88,22.56,46.17,30.54,70.63,7.13,21.84,13.43,44,20.27,65.91,7.81,25,15.3,50.18,24.41,74.8,2.29,6.2,4,12.64,5.85,18.84-1.06,1.62-2.5,1.12-3.74,1.19s-2.66,0-4,0H13.04c-9.54,0-8.72.52-5.8-8.1,5.12-15.13,10.52-30.17,15.31-45.4,8.56-27.18,16.68-54.49,25.13-81.71,7.28-23.42,14.61-46.81,25.59-68.88,4.47-9,8.28-18.34,13-27.29,12.61-24.12,31.85-40.25,57.13-49.75,8.05-3,16.34-4.86,24.61-7,22.22-5.74,45-9.32,66.73-17,13.47-4.72,26.53-10.44,39.68-15.94,10.54-4.41,20.91-9.15,30.4-15.64,2.71-1.85,4.92-4.18,7.39-6.25,2.19-1.84,3.16-1.4,3.66,1.45.19,1.06-.3,2.25.74,3.31,3.56-4.69,3.46-10.17,2.53-15.28-1.14-6.22-1-12.49-1.63-18.71-.78-7.13-1.12-14.39-1.74-21.56-1-11.68-1.43-23.48-4.26-35a12.32,12.32,0,0,1-.12-2.28,8.12,8.12,0,0,1,1.43.92c15.27,11.23,30.05,20.52,45.54,28.52,16.69,8.59,33.75,16.42,52.06,21.13,11.57,3,23.21,5.3,35.19,5.45C451.98,753.42,461.07,753.55,470.11,752.37Z" />
  
  <path fill="#b04f2c" d="M75.11,352.12c12.59-1.24,22.45,5.55,31.75,13.36,8.13,6.82,13.59,15.48,18.3,25.08s5.54,19.55,7.59,29.4q7.14,34.27,15.8,68.17c1.78,6.94,1.15,8.84-5,12.48-6.77,4-13.82,5.78-21.81,3.63-10-2.71-19-7.38-28-12.48-17.75-10.1-31.53-24.41-43.57-40.46-7.49-10-11.55-21.79-14.11-34-2.44-11.61-2.77-23.34,0-34.93C40.22,364.89,54.66,350.46,75.11,352.12Z" />
  
  <path fill="#b04f2c" d="M752.6,399.6c.3,19.86-5.35,38.07-17.14,53.87-12.24,16.4-26.88,30.42-45.22,40.29-8.93,4.81-17.88,9.2-27.94,11-8.81,1.59-16-2-22.66-7-2.26-1.7-2.52-4.14-1.66-7.17,4.68-16.62,8.52-33.46,12.2-50.34q4.65-21.39,8.89-42.87c.84-4.23,3.45-8.16,5.53-12.08,7.49-14.09,18.42-25,33.22-30.71,13.15-5.07,26.84-4.38,38.54,4.46,10,7.55,15.14,18.33,16.2,30.86C752.82,393.11,752.6,396.36,752.6,399.6Z" />
</svg>
