<svg xmlns="http://www.w3.org/2000/svg" viewBox="0 0 786.93 1129.16">
  <g transform="translate(-302.54 -178.32)">
    <path fill="#f7c9b1" d="M694.92,179.48l2.26,0c.18,2.08,1.64,2.21,3.27,2.26,4.19.14,8.37.39,12.55.55a316.86,316.86,0,0,1,75.44,11.65c54.7,15.66,98.2,46.77,129.75,94.25,18.28,27.52,31.23,57.44,39.7,89.35,7.31,27.5,12.27,55.37,13.74,83.81,1.49,28.93-2,57.38-8.47,85.52-3.7-2.3-7.5-4.47-11.09-6.94-15.32-10.58-32.54-13.53-50.51-11.55a102.59,102.59,0,0,0-30.69,7.86c-13.73,6.14-26.06,14.34-35.5,26a89.05,89.05,0,0,0-19.56,44.11,78.87,78.87,0,0,0,4.32,40.19,69.87,69.87,0,0,0,34.45,37.91,81.51,81.51,0,0,0,38.85,9.35c7.38-.12,14.8.63,22.12-1.14,5.14-1.24,10.34-2.25,15.51-3.37a357.14,357.14,0,0,1-16.49,46.82c-4.73,10.82-9.8,21.55-17.39,30.73a336.31,336.31,0,0,1-57,54.12c-33.36,25.19-70,44.53-108.78,59.74-23.87,9.35-48,9.21-71.84-.32a498.27,498.27,0,0,1-71.19-34.92c-32.89-19.67-62.68-43.15-87.94-72.12-4.76-5.45-9.42-11-13-17.31-11.89-21-19.79-43.62-26.38-66.73,6.38.78,12.46,3,18.92,3.7,13.32,1.51,26.58,1.67,39.53-1.66,22.66-5.82,40.19-18.84,50.35-40.2a75.14,75.14,0,0,0,6.47-44.32,90,90,0,0,0-22-47.21c-11-12.46-24.9-20.88-40.67-26.3a113.83,113.83,0,0,0-25-5,80.51,80.51,0,0,0-19.37.2,66.57,66.57,0,0,0-25,9c-5.32,3.16-11.31,5.5-15,10.93-1.78-8.75-3.92-17.44-5.27-26.26-3-19.77-4.89-39.59-3.66-59.69a436.61,436.61,0,0,1,10.59-72.23c8.21-35.36,21.32-68.67,41-99.23,22.82-35.34,52.73-62.9,90.6-81.47,29.39-14.41,60.68-22.2,93.13-25.63,11.55-1.22,23.16-1.71,34.76-2.21C692.21,181.59,694.49,182.36,694.92,179.48Zm30,502.65c-.9-4.44-1.49-9-2.78-13.29-3.51-11.84-8.31-22.83-20.1-29.08-3.22-1.72-6.34-2.93-9.67-1.17-8.77,4.64-16,10.77-19.28,20.64-1.85,5.58-3.32,11.25-4.93,16.89-1.72,6-1.58,11.25,3.06,16.1,5.13,5.37,9.86,10.58,17.93,12,11.71,2.11,22-.56,29.43-9.73C721.47,691,725.63,687.74,725,682.13Z"/>
    
    <path fill="#cc523a" d="M694.92,179.48c-.43,2.88-2.71,2.11-4.47,2.19-11.6.5-23.21,1-34.76,2.21-32.45,3.43-63.74,11.22-93.13,25.63C524.69,228.08,494.78,255.64,472,291c-19.73,30.56-32.84,63.87-41,99.23a436.61,436.61,0,0,0-10.59,72.23c-1.23,20.1.65,39.92,3.66,59.69,1.35,8.82,3.49,17.51,5.27,26.25.3,2.25.52,4.51.92,6.75,4.6,25.59,9.68,51.08,15.59,76.4,4.52,19.4,9.15,38.78,15.26,57.76C467.61,712.4,475.51,735,487.4,756c3.59,6.34,8.25,11.86,13,17.31,25.26,29,55.05,52.45,87.94,72.12a498.27,498.27,0,0,0,71.19,34.92c23.88,9.53,48,9.67,71.84.32,38.81-15.21,75.42-34.55,108.78-59.74a336.31,336.31,0,0,0,57-54.12c7.59-9.18,12.66-19.91,17.39-30.73a355.64,355.64,0,0,0,16.48-46.82c7.47-24.2,13.42-48.79,18.76-73.53,4.94-22.88,9.77-45.78,13.35-68.93,6.52-28.14,10-56.59,8.47-85.52-1.47-28.44-6.43-56.31-13.74-83.81-8.47-31.91-21.42-61.83-39.7-89.35-31.55-47.48-75.05-78.59-129.75-94.25A316.86,316.86,0,0,0,713,182.24c-4.18-.16-8.36-.41-12.55-.55-1.63-.05-3.09-.18-3.27-2.26,2.41-1.77,5.17-.93,7.74-.84,22.45.79,44.77,2.85,66.76,7.71,49.44,10.93,92.39,33.4,126.71,71.2,22.66,25,39.17,53.69,51.41,84.95,10.87,27.74,17.54,56.59,21.85,86a304.27,304.27,0,0,1,3.15,60.31c-.69,13.16-2,26.19-5.14,39.15-1.74,7.25-2.61,14.92-3.7,22.43-.3,2.06-.71,4.11-1.07,6.17-.21.64-.63,1.48.45,1.56.51,0,.62-.78.6-1.35,5.85-9.12,13.67-16.3,22.47-22.46,14.16-9.91,29.74-11.09,45.12-4.66,14.55,6.09,22.6,18.64,24.76,34,4.12,29.31-3.92,55.17-23.06,77.92a152.85,152.85,0,0,1-47.46,37.81,82.12,82.12,0,0,1-21.42,7.65c-9.23,1.87-17.26-.83-24.79-5.88-1.08-.73-1.8-2-3.68-2.27-1,1.39-1.24,3.25-1.75,5-5.5,18.82-11.55,37.44-19.48,55.41A142.06,142.06,0,0,1,891.81,778c-27.43,30.2-59.21,54.77-94.61,74.79a26.33,26.33,0,0,0-12.32,15c-3.8,10.88-5.13,22.2-6.06,33.59-1.28,15.94-2.47,31.88-3.89,47.8-.3,3.36.76,5.66,3,8.06a65.4,65.4,0,0,0,19.33,14c27.45,13.22,55.39,25.29,85.15,32.46,16.45,4,33.09,7.19,49.47,11.42,22.89,5.91,43.51,16.18,59.8,33.85,6.62,7.19,11.71,15.53,16.11,24.18,13.82,27.17,25.74,55.1,34.75,84.31,11.59,37.63,22.45,75.48,35.26,112.73q5.57,16.2,11,32.44c1.34,4,.88,4.65-3.33,4.76-2.47.07-5,0-7.43,0H308.85c-7.24,0-7.28,0-4.89-6.86,17.45-49.73,32.21-100.33,47.93-150.62,3.51-11.21,6.79-22.6,11.78-33.15,8.69-18.34,15.87-37.43,26.92-54.67a98.81,98.81,0,0,1,40.39-36,171.08,171.08,0,0,1,35.39-12.57c22.34-5.46,45.15-9.1,67-16.7a555.29,555.29,0,0,0,59.57-24.62c8.05-3.91,15.55-8.83,21.7-15.57,1.76-1.94,2.78-3.77,2.54-6.55-1.38-15.92-2.54-31.87-3.88-47.79-.64-7.58-1-15.23-2.92-22.61s-3-15.25-8.47-21.41a25.48,25.48,0,0,0-6.62-5.23c-27.11-15.38-52.54-33.13-75-54.79-31.59-30.45-38.33-39.67-53.91-81.89-3.89-10.54-7.13-21.29-10.31-32.06-.52-1.77-.67-3.71-1.91-5.13-2-.16-2.79,1.37-4,2.17-8.52,5.7-17.6,7.73-27.68,5a93.45,93.45,0,0,1-19.59-7.74,156.57,156.57,0,0,1-44.52-35.2,103.68,103.68,0,0,1-23.88-47.32c-2.51-11.49-3-23.19-.37-34.58,3.82-16.57,12.77-29.45,30.19-33.93,14.75-3.8,28.7-1.66,41.1,7.88,7,5.37,13.67,11,18.67,18.33.52.76.95,1.68,2.36,1.67.48-4.19-1-8.17-1.63-12.18-2.51-15-6.06-29.81-7-45.07a340.93,340.93,0,0,1,0-45.09A377.71,377.71,0,0,1,435.36,362C458.43,291.19,499,234.71,568.9,203.1c25.17-11.39,51.66-18,79-21.52,13.61-1.75,27.29-2.49,41-3C690.91,178.47,693.11,177.89,694.92,179.48Zm86.89,682.34c-2,.12-3.54,1.3-5.24,2.12-10.94,5.29-21.64,11.06-32.83,15.86-11.74,5-23.77,9.31-36.48,10.41a111.78,111.78,0,0,1-51.88-7.5c-14-5.59-27.19-12.67-40.68-19.21-1.61-.79-3.13-1.94-5.67-2.11,2,4.64,2.72,9.1,5,13-.37,4.83,1.56,9.33,2,14.05,1.47,17.25,3,34.5,4.5,51.76.51,6.06.93,12.14,1.17,18.22.16,4.18-.63,5.69-3.52,8.55-.85-1.69.32-3.85-1.19-5.36a2.18,2.18,0,0,0-2.05.77,86.24,86.24,0,0,1-22.29,14.76q-26.85,12.72-54.83,22.75c-23.54,8.45-48.24,12.53-72.46,18.36a145.53,145.53,0,0,0-41.64,16.86c-15.54,9.39-26.93,22.83-35.11,38.94-11.8,23.27-22.86,46.89-30.78,71.82-16.49,51.87-31.52,104.21-49.53,155.6-.37,1.06-1,2.08-.36,3.49h777.14c-4-11.71-7.84-22.83-11.63-34-12.8-37.48-23.71-75.55-35.43-113.36a489.74,489.74,0,0,0-36.45-86.69c-4.31-8-9.33-15.7-16-22.14-16.64-16.12-36.79-25.37-59.1-30.49-16.88-3.88-33.79-7.63-50.6-11.78-21.15-5.23-41-14-61.06-22.36-13.93-5.78-27.46-12.29-38.78-22.58-.17-.16-.68,0-1,.1-1.34,1.54,0,4.06-2,5.57-1.9-3.48-3-6.83-2.6-10.9.87-8.7,1.22-17.46,1.79-26.19,1.85-9.12,1.73-18.43,2.68-27.64,1-9.42,1.74-18.82,4-28.07,1-4.21,3.35-8.12,3-12.65a1.29,1.29,0,0,0,.4-.16c.07,0,.06-.19.09-.29Zm232.93-331.59A34.5,34.5,0,0,0,994,535.51c-8.64,5.34-16.4,11.77-22.32,20.15-4.47,6.34-8.62,13.19-10.25,20.61-4.56,20.81-8.59,41.74-13.54,62.46q-3.63,15.27-7.57,30.46c-.55,2.14-1,3.94.88,5.72,6.39,6.14,13.82,9.38,22.75,8.21,12-1.58,22.19-7.57,32.5-13.39,17.81-10.06,32-24.17,43.35-40.74,12.49-18.26,17.55-39,15.22-61.32C1053,548.32,1038.8,528.89,1014.74,530.23Zm-637,0c-8.14-.12-15.83.72-22.23,5.32-8.73,6.29-14.89,14.65-17.27,25.41a71.57,71.57,0,0,0-1.12,27.2c2.63,16.17,7.5,31.46,17.71,44.61,13.35,17.2,29.11,31.54,48.67,41.54,7.52,3.85,15.11,7.09,23.45,8.66s15.33-1.24,21.83-6c3-2.23,3.94-4.75,2.8-8.8-6.31-22.54-11.07-45.46-16.16-68.3-2.29-10.25-3.16-20.73-7.67-30.66a75.41,75.41,0,0,0-24.93-30.5C395.15,533.05,386.89,529.82,377.73,530.2Zm49.62,27.5-.36-.87c-.2.17-.57.34-.57.5a2.58,2.58,0,0,0,.35.9Z"/>
    
    <path fill="#ebbaa7" d="M965.94,556.74c0,.57-.09,1.39-.6,1.35-1.08-.08-.66-.92-.45-1.56A3.17,3.17,0,0,1,965.94,556.74Z"/>
    
    <path fill="#f7baaa" d="M963.16,546.82c-3.58,23.15-8.41,46-13.35,68.93-5.34,24.74-11.29,49.33-18.76,73.53-5.16,1.12-10.36,2.13-15.5,3.37-7.32,1.77-14.74,1-22.12,1.14a81.51,81.51,0,0,1-38.85-9.35,69.87,69.87,0,0,1-34.45-37.91,78.87,78.87,0,0,1-4.32-40.19,89.05,89.05,0,0,1,19.56-44.11c9.44-11.7,21.77-19.9,35.5-26a102.59,102.59,0,0,1,30.69-7.86c18-2,35.19,1,50.51,11.55C955.66,542.35,959.46,544.52,963.16,546.82Z"/>
    <path fill="#f7baaa" d="M461,689.29c-6.11-19-10.74-38.36-15.26-57.76-5.91-25.32-11-50.81-15.59-76.4-.4-2.24-.62-4.5-.92-6.75,3.67-5.42,9.66-7.76,15-10.92a66.57,66.57,0,0,1,25-9,80.51,80.51,0,0,1,19.37-.2,113.83,113.83,0,0,1,25,5c15.77,5.42,29.69,13.84,40.67,26.3a90,90,0,0,1,22,47.21,75.14,75.14,0,0,1-6.47,44.32c-10.16,21.36-27.69,34.38-50.35,40.2-13,3.33-26.21,3.17-39.53,1.66C473.48,692.26,467.4,690.07,461,689.29Z"/>
    <path fill="#f7baaa" d="M725,682.13c.68,5.61-3.48,8.85-6.34,12.4-7.4,9.17-17.72,11.84-29.43,9.73-8.07-1.46-12.8-6.67-17.93-12-4.64-4.85-4.78-10.05-3.06-16.1,1.61-5.64,3.08-11.31,4.93-16.89,3.28-9.87,10.51-16,19.28-20.64,3.33-1.76,6.45-.55,9.67,1.17,11.79,6.25,16.59,17.24,20.1,29.08C723.46,673.16,724.05,677.69,725,682.13Z"/>
    
    <path fill="#f7c9b1" d="M772.13,930.19c-.57,8.73-.92,17.49-1.79,26.19-.41,4.07.7,7.42,2.6,10.9,2-1.51.71-4,2-5.57.36-.05.87-.26,1-.1,11.32,10.29,24.85,16.8,38.78,22.58,20,8.33,39.91,17.13,61.06,22.36,16.81,4.15,33.72,7.9,50.6,11.78,22.31,5.12,42.46,14.37,59.1,30.49,6.66,6.44,11.68,14.1,16,22.14a489.74,489.74,0,0,1,36.45,86.69c11.72,37.81,22.63,75.88,35.43,113.36,3.79,11.13,7.62,22.25,11.63,34H307.93c-.65-1.41,0-2.43.36-3.49,18-51.39,33-103.73,49.53-155.6,7.92-24.93,19-48.55,30.78-71.82,8.18-16.11,19.57-29.55,35.11-38.94a145.53,145.53,0,0,1,41.64-16.86c24.22-5.83,48.92-9.91,72.46-18.36q28-10,54.83-22.75a86.24,86.24,0,0,0,22.29-14.76,2.18,2.18,0,0,1,2.05-.77c1.51,1.51.34,3.67,1.19,5.36,2.89-2.86,3.68-4.37,3.52-8.55-.24-6.08-.66-12.16-1.17-18.22-1.46-17.26-3-34.51-4.5-51.76-.4-4.72-2.33-9.22-2-14a141.64,141.64,0,0,0,25.52,20.05c20,12.21,40.93,22.64,63.39,29.6,15.48,4.79,31.27,7.89,47.59,7.6C757.78,931.53,765,931.69,772.13,930.19Z"/>
    
    <path fill="#f6c8b0" d="M1014.74,530.23c24.06-1.34,38.25,18.09,40.27,37.44,2.33,22.28-2.73,43.06-15.22,61.32-11.34,16.57-25.54,30.68-43.35,40.74-10.31,5.82-20.5,11.81-32.5,13.39-8.93,1.17-16.36-2.07-22.75-8.21-1.86-1.78-1.43-3.58-.88-5.72q3.91-15.2,7.57-30.46c5-20.72,9-41.65,13.54-62.46,1.63-7.42,5.78-14.27,10.25-20.61,5.92-8.38,13.68-14.81,22.32-20.15A34.5,34.5,0,0,1,1014.74,530.23Z"/>
    <path fill="#f6c8b0" d="M377.73,530.2c9.16-.38,17.42,2.85,25.08,8.45a75.41,75.41,0,0,1,24.93,30.5c4.51,9.93,5.38,20.41,7.67,30.66,5.09,22.84,9.85,45.76,16.16,68.3,1.14,4,.24,6.57-2.8,8.8-6.5,4.79-13.49,7.6-21.83,6s-15.93-4.81-23.45-8.66c-19.56-10-35.32-24.34-48.67-41.54-10.21-13.15-15.08-28.44-17.71-44.61a71.57,71.57,0,0,1,1.12-27.2c2.38-10.76,8.54-19.12,17.27-25.41C361.9,530.92,369.59,530.08,377.73,530.2Z"/>
    
    <path fill="#bc7e6d" d="M772.13,930.19c-7.12,1.5-14.35,1.34-21.57,1.47-16.32.29-32.11-2.81-47.59-7.6-22.46-7-43.38-17.39-63.39-29.6a141.64,141.64,0,0,1-25.52-20.05c-2.31-3.92-3.07-8.38-5-13,2.54.17,4.06,1.32,5.67,2.11,13.49,6.54,26.72,13.62,40.68,19.21a111.78,111.78,0,0,0,51.88,7.5c12.71-1.1,24.74-5.38,36.48-10.41,11.19-4.8,21.89-10.57,32.83-15.86,1.7-.82,3.26-2,5.24-2.12h0c.32,4.53-2,8.44-3,12.65-2.24,9.25-3,18.65-4,28.07C773.86,911.76,774,921.07,772.13,930.19Z"/>
    
    <path fill="#ebbaa7" d="M427.35,557.7l-.58.53a2.58,2.58,0,0,1-.35-.9c0-.16.37-.33.57-.5Z"/>
    
    <path fill="#bc7e6d" d="M781.81,861.82l.5-.44c0,.1,0,.24-.09.29a1.29,1.29,0,0,1-.4.16Z"/>
  </g>
</svg>
