<svg id="Layer_9" data-name="Layer 9" xmlns="http://www.w3.org/2000/svg" viewBox="0 0 92.97 14.31"><defs><style>.cls-1{fill:#1d1c1f;}.cls-2{fill:#1b1a1e;}.cls-3{fill:#4c4a4f;}.cls-4{fill:#4d4b50;}.cls-5{fill:#88858a;}</style></defs><path class="cls-1" d="M662.61,701.41c7.16.11,12.7,2.71,17.93,6.13a7.44,7.44,0,0,1,2.77,2.8c.42.92,1.75,2.16.18,3.44s-2.45,0-3.25-.94c-4.87-5.82-11.54-7.17-18.59-7.7-1.27-.1-3.35.94-3.33-1.7,0-2.35,1.87-1.91,3.31-2A6.71,6.71,0,0,1,662.61,701.41Z" transform="translate(-649.04 -700.21)"/><path class="cls-2" d="M708,714.2c-.85-1.42-.39-2.56.44-3.73,4.27-6,16.33-10.63,23.64-9,.7.16,1.51.35,1.61,1.33s-.6,1.29-1.15,1.8c-1,.89-2.17.59-3.25.53-7.64-.43-13.68,2.8-18.89,8.05A2.57,2.57,0,0,1,708,714.2Z" transform="translate(-649.04 -700.21)"/><path class="cls-3" d="M742,700.88c-1.9,8-8.12,11.27-15.26,13.41-.71.21-1.65.17-1.9-.65s.29-1.31,1.21-1.47C733.15,711,737.86,706.46,742,700.88Z" transform="translate(-649.04 -700.21)"/><path class="cls-4" d="M651.39,701.88a19.55,19.55,0,0,0,13,10.1c.93.24,2.11.38,1.78,1.62s-1.83,1-2.41.72c-5.32-2.74-11.18-4.88-13.61-11.15C650.4,702.59,650.69,702,651.39,701.88Z" transform="translate(-649.04 -700.21)"/><path class="cls-5" d="M651.39,701.88c-.7.16-1,.71-1.24,1.29-1.06-.79-1.61-2-.5-2.8C650.44,699.82,651.29,700.78,651.39,701.88Z" transform="translate(-649.04 -700.21)"/></svg>