<svg id="Layer_6" data-name="Layer 6" xmlns="http://www.w3.org/2000/svg" viewBox="0 0 44.46 12.64"><defs><style>.cls-1{fill:#131114;}.cls-2{fill:#d5edfb;}</style></defs><path class="cls-1" d="M694.51,704.82c-6-1.69-12.19-3-17.23-7.06a14.68,14.68,0,0,1-1.75-1.37c-.7-.76-2.21-1.51-1.17-2.71s1.84.35,2.73.86c4.54,2.67,8.68,5.68,14.17,7s10.22,0,15-1.68a34.13,34.13,0,0,0,9.81-6c.62-.51,1.34-1,2-.33.84.9.25,1.76-.57,2.32-4.93,3.39-9.58,7.4-16,7.67-1.1,0-1.46,1.16-2.4,1.31Z" transform="translate(-674 -693.18)"/><path class="cls-2" d="M694.51,704.82h4.58A3.11,3.11,0,0,1,694.51,704.82Z" transform="translate(-674 -693.18)"/></svg>