<svg id="Layer_7" data-name="Layer 7" xmlns="http://www.w3.org/2000/svg" viewBox="0 0 75.32 18.66"><defs><style>.cls-1{fill:#29282c;}</style></defs><path class="cls-1" d="M733.65,693c0,2.31-1.58,3.18-3.38,4.34-4.17,2.69-9,2.92-13.56,4.32a22.15,22.15,0,0,0-5.9,3c-5.06,3.39-10.11,6.73-16.81,6.27a17.79,17.79,0,0,1-10.17-4,28.5,28.5,0,0,0-15.55-6.42c-3.27-.4-5.68-2.63-8.58-3.83-1.44-.6-1.81-2.29-.8-4.41,4.66,5.61,11.15,6.37,17.65,7.26,1.82.25,3.39,1.53,4.87,2.72a44.86,44.86,0,0,0,5.39,3.95c7.65,4.4,14.9,2.45,21.28-2.45a26.53,26.53,0,0,1,13-5.53c3.85-.54,7.58-1.71,10.31-4.86a3.7,3.7,0,0,1,1.46-.72C733,692.68,733.16,692.84,733.65,693Z" transform="translate(-658.33 -692.36)"/></svg>