<svg id="Layer_8" data-name="Layer 8" xmlns="http://www.w3.org/2000/svg" viewBox="0 0 51.38 9.54"><defs><style>.cls-1{fill:#141417;}.cls-2{fill:#131316;}.cls-3{fill:#99969b;}.cls-4{fill:#9a979c;}</style></defs><path class="cls-1" d="M719.89,709.32c-5.69-.57-10.62,1.29-15,4.81-.73.59-1.29,1.45-2.38,1.34-.54-.06-1.24-.1-1.54-.44a1.58,1.58,0,0,1,0-1.49c3.22-4.67,13.27-8.52,18.49-7.12a2.56,2.56,0,0,1,1.61,2.15Z" transform="translate(-669.77 -706.12)"/><path class="cls-2" d="M670.79,708.89c-1.46-1.26-1.45-2.12.64-2.51,4.25-.8,8.16.3,11.84,2.27a40.75,40.75,0,0,1,5.55,3.68c.8.61,2.16,1.5,1.17,2.7a2,2,0,0,1-3-.13c-2.21-2.82-5.6-3.47-8.52-5a5.12,5.12,0,0,0-1.69-.25c-.33-.58-.73-1-1.45-.56l-3,.2Z" transform="translate(-669.77 -706.12)"/><path class="cls-3" d="M670.79,708.89l1.52.44C671.54,710.1,671.1,709.72,670.79,708.89Z" transform="translate(-669.77 -706.12)"/><path class="cls-3" d="M675.29,709.13c.72-.42,1.12,0,1.45.56A1.11,1.11,0,0,1,675.29,709.13Z" transform="translate(-669.77 -706.12)"/><path class="cls-4" d="M719.89,709.32l1.24-.75C721.22,709.65,720.85,710,719.89,709.32Z" transform="translate(-669.77 -706.12)"/></svg>